{
.appVersion = "1290";
DisplayStrings = (
"Woven/space silk/space pyjamas/space exchanged/space for/space blue/space quartz./space \012WOVEN/space SILK/space PYJAMAS/space EXCHANGED/space FOR/space BLUE/space QUARTZ./space \012\012My/space girl/space wove/space six/space dozen/space plaid/space jackets/space before/space she/space quit./space \012MY/space GIRL/space WOVE/space SIX/space DOZEN/space PLAID/space JACKETS/space BEFORE/space SHE/space QUIT./space \012\012Few/space black/space taxis/space drive/space up/space major/space roads/space on/space quiet/space hazy/space nights./space \012FEW/space BLACK/space TAXIS/space DRIVE/space UP/space MAJOR/space ROADS/space ON/space QUIET/space HAZY/space NIGHTS./space \012\012Jackie/space will/space budget/space for/space the/space most/space expensive/space zoology/space equipment!\012JACKIE/space WILL/space BUDGET/space FOR/space THE/space MOST/space EXPENSIVE/space ZOOLOGY/space EQUIPMENT!\012\012jim/space quickly/space realized/space that/space the/space beautiful/space gowns/space are/space expensive./space \012JIM/space QUICKLY/space REALIZED/space THAT/space THE/space BEAUTIFUL/space GOWNS/space ARE/space EXPENSIVE./space \012\012þ/space dazt/space/space hnð/space/space vök/space og/space yfir/space blm/space sex/space pæju./space \012Þ/space DAZT/space/space HNÐ/space/space VÖK/space OG/space YFIR/space BLM/space SEX/space PÆJU.\012\012pranzo/space d/quoteright acqua/space fa/space volti/space sghembi./space/space \012PRANZO/space D/quoteright ACQUA/space FA/space VOLTI/space SGHEMBI./space \012\012STUDIO/space GHIBLI/space Studio/space Ghibli\012\012\012",

glyphs = (
{
glyphname = A;
lastChange = "2020-02-11 16:18:18 +0000";
layers = (
{
anchors = (
{
name = bottom;
position = "{358, 0}";
},
{
name = ogonek;
position = "{644, 22}";
},
{
name = top;
position = "{342, 1540}";
}
);
layerId = "798A1B98-D718-4469-8D5D-1F04921BF637";
paths = (
{
closed = 1;
nodes = (
"232 0 LINE",
"232 22 LINE",
"136 22 LINE",
"326 1312 LINE",
"316 1312 LINE",
"494 22 LINE",
"398 22 LINE",
"398 0 LINE",
"672 0 LINE",
"672 22 LINE",
"568 22 LINE",
"350 1544 LINE",
"336 1544 LINE",
"112 22 LINE",
"10 22 LINE",
"10 0 LINE"
);
},
{
closed = 1;
nodes = (
"458 434 LINE",
"458 458 LINE",
"184 458 LINE",
"184 434 LINE"
);
}
);
width = 682;
},
{
anchors = (
{
name = bottom;
position = "{406, 0}";
},
{
name = ogonek;
position = "{698, 20}";
},
{
name = top;
position = "{376, 1540}";
}
);
layerId = "A4F0BE09-87B8-499B-8BA0-E8BD95093B86";
paths = (
{
closed = 1;
nodes = (
"186 0 LINE",
"186 22 LINE",
"106 22 LINE",
"232 744 LINE",
"216 744 LINE",
"332 22 LINE",
"228 22 LINE",
"228 0 LINE",
"778 0 LINE",
"778 22 LINE",
"690 22 LINE",
"414 1540 LINE",
"338 1540 LINE",
"80 22 LINE",
"-22 22 LINE",
"-22 0 LINE"
);
},
{
closed = 1;
nodes = (
"334 260 LINE",
"334 282 LINE",
"128 282 LINE",
"128 260 LINE"
);
}
);
width = 755;
},
{
anchors = (
{
name = bottom;
position = "{374, 0}";
},
{
name = ogonek;
position = "{660, 22}";
},
{
name = top;
position = "{346, 1540}";
}
);
layerId = "2224527B-843E-45D0-ACBE-AC9678FC6685";
paths = (
{
closed = 1;
nodes = (
"260 0 LINE",
"260 66 LINE",
"172 66 LINE",
"344 1402 LINE",
"346 1402 LINE",
"512 66 LINE",
"410 66 LINE",
"410 0 LINE",
"690 0 LINE",
"690 66 LINE",
"582 66 LINE",
"390 1544 LINE",
"302 1544 LINE",
"102 66 LINE",
"16 66 LINE",
"16 0 LINE"
);
},
{
closed = 1;
nodes = (
"492 394 LINE",
"492 458 LINE",
"190 458 LINE",
"190 394 LINE"
);
}
);
width = 702;
},
{
anchors = (
{
name = bottom;
position = "{456, 0}";
},
{
name = ogonek;
position = "{748, 20}";
},
{
name = top;
position = "{393, 1540}";
}
);
layerId = "42FCB8D3-5141-4304-9365-2E27830BD286";
paths = (
{
closed = 1;
nodes = (
"248 0 LINE",
"248 88 LINE",
"176 88 LINE",
"270 766 LINE",
"266 766 LINE",
"368 88 LINE",
"290 88 LINE",
"290 0 LINE",
"826 0 LINE",
"826 88 LINE",
"724 88 LINE",
"464 1540 LINE",
"302 1540 LINE",
"84 88 LINE",
"-6 88 LINE",
"-6 0 LINE"
);
},
{
closed = 1;
nodes = (
"384 256 LINE",
"384 338 LINE",
"164 338 LINE",
"164 256 LINE"
);
}
);
width = 815;
}
);
leftKerningGroup = A;
rightKerningGroup = A;
unicode = 0041;
},
{
glyphname = AE;
lastChange = "2020-01-14 17:56:03 +0000";
layers = (
{
anchors = (
{
name = bottom;
position = "{528, 0}";
},
{
name = top;
position = "{528, 1540}";
}
);
layerId = "798A1B98-D718-4469-8D5D-1F04921BF637";
paths = (
{
closed = 1;
nodes = (
"934 0 LINE",
"934 272 LINE",
"912 272 LINE",
"912 92 OFFCURVE",
"908 22 OFFCURVE",
"734 22 CURVE SMOOTH",
"572 22 LINE",
"572 782 LINE",
"868 782 LINE",
"868 652 LINE",
"890 652 LINE",
"890 936 LINE",
"868 936 LINE",
"868 804 LINE",
"572 804 LINE",
"572 1518 LINE",
"746 1518 LINE SMOOTH",
"910 1518 OFFCURVE",
"912 1450 OFFCURVE",
"912 1272 CURVE",
"934 1272 LINE",
"934 1540 LINE",
"506 1540 LINE",
"506 22 LINE",
"406 22 LINE",
"406 0 LINE"
);
},
{
closed = 1;
nodes = (
"528 370 LINE",
"532 392 LINE",
"222 392 LINE",
"218 370 LINE"
);
},
{
closed = 1;
nodes = (
"210 0 LINE",
"210 22 LINE",
"140 22 LINE",
"526 1540 LINE",
"506 1540 LINE",
"116 22 LINE",
"32 22 LINE",
"32 0 LINE"
);
}
);
width = 1022;
},
{
anchors = (
{
name = bottom;
position = "{627, 0}";
},
{
name = top;
position = "{627, 1540}";
}
);
layerId = "A4F0BE09-87B8-499B-8BA0-E8BD95093B86";
paths = (
{
closed = 1;
nodes = (
"1142 0 LINE",
"1142 404 LINE",
"1120 404 LINE",
"1120 224 OFFCURVE",
"1038 22 OFFCURVE",
"866 22 CURVE SMOOTH",
"824 22 LINE",
"824 782 LINE",
"1120 782 LINE",
"1120 652 LINE",
"1142 652 LINE",
"1142 936 LINE",
"1120 936 LINE",
"1120 804 LINE",
"824 804 LINE",
"824 1518 LINE",
"866 1518 LINE SMOOTH",
"1038 1518 OFFCURVE",
"1120 1318 OFFCURVE",
"1120 1140 CURVE",
"1142 1140 LINE",
"1142 1540 LINE",
"496 1540 LINE",
"496 22 LINE",
"418 22 LINE",
"418 0 LINE"
);
},
{
closed = 1;
nodes = (
"518 370 LINE",
"522 392 LINE",
"212 392 LINE",
"208 370 LINE"
);
},
{
closed = 1;
nodes = (
"200 0 LINE",
"200 22 LINE",
"130 22 LINE",
"514 1540 LINE",
"496 1540 LINE",
"106 22 LINE",
"22 22 LINE",
"22 0 LINE"
);
}
);
width = 1219;
},
{
anchors = (
{
name = bottom;
position = "{538, 0}";
},
{
name = top;
position = "{538, 1540}";
}
);
layerId = "2224527B-843E-45D0-ACBE-AC9678FC6685";
paths = (
{
closed = 1;
nodes = (
"944 0 LINE",
"944 272 LINE",
"878 272 LINE",
"878 114 OFFCURVE",
"874 66 OFFCURVE",
"744 66 CURVE SMOOTH",
"582 66 LINE",
"582 760 LINE",
"856 760 LINE",
"856 652 LINE",
"920 652 LINE",
"920 936 LINE",
"856 936 LINE",
"856 826 LINE",
"582 826 LINE",
"582 1474 LINE",
"756 1474 LINE SMOOTH",
"876 1474 OFFCURVE",
"878 1428 OFFCURVE",
"878 1272 CURVE",
"944 1272 LINE",
"944 1540 LINE",
"516 1540 LINE",
"516 66 LINE",
"416 66 LINE",
"416 0 LINE"
);
},
{
closed = 1;
nodes = (
"538 348 LINE",
"542 414 LINE",
"232 414 LINE",
"228 348 LINE"
);
},
{
closed = 1;
nodes = (
"242 0 LINE",
"242 66 LINE",
"162 66 LINE",
"534 1540 LINE",
"468 1540 LINE",
"88 66 LINE",
"20 66 LINE",
"20 0 LINE"
);
}
);
width = 1042;
},
{
anchors = (
{
name = bottom;
position = "{657, 0}";
},
{
name = top;
position = "{657, 1540}";
}
);
layerId = "42FCB8D3-5141-4304-9365-2E27830BD286";
paths = (
{
closed = 1;
nodes = (
"1172 0 LINE",
"1172 404 LINE",
"1084 404 LINE",
"1084 224 OFFCURVE",
"1068 88 OFFCURVE",
"896 88 CURVE SMOOTH",
"854 88 LINE",
"854 748 LINE",
"1084 748 LINE",
"1084 652 LINE",
"1172 652 LINE",
"1172 936 LINE",
"1084 936 LINE",
"1084 836 LINE",
"854 836 LINE",
"854 1452 LINE",
"896 1452 LINE SMOOTH",
"1068 1452 OFFCURVE",
"1084 1318 OFFCURVE",
"1084 1140 CURVE",
"1172 1140 LINE",
"1172 1540 LINE",
"526 1540 LINE",
"526 88 LINE",
"448 88 LINE",
"448 0 LINE"
);
},
{
closed = 1;
nodes = (
"548 338 LINE",
"552 426 LINE",
"242 426 LINE",
"238 338 LINE"
);
},
{
closed = 1;
nodes = (
"264 0 LINE",
"264 88 LINE",
"178 88 LINE",
"544 1540 LINE",
"450 1540 LINE",
"76 88 LINE",
"18 88 LINE",
"18 0 LINE"
);
}
);
width = 1279;
}
);
leftKerningGroup = A;
rightKerningGroup = E;
unicode = 00C6;
},
{
glyphname = B;
lastChange = "2020-01-14 17:56:03 +0000";
layers = (
{
anchors = (
{
name = bottom;
position = "{374, 0}";
},
{
name = top;
position = "{374, 1540}";
}
);
layerId = "798A1B98-D718-4469-8D5D-1F04921BF637";
paths = (
{
closed = 1;
nodes = (
"420 0 LINE SMOOTH",
"580 0 OFFCURVE",
"680 158 OFFCURVE",
"680 420 CURVE SMOOTH",
"680 690 OFFCURVE",
"546 812 OFFCURVE",
"438 816 CURVE",
"540 836 OFFCURVE",
"638 960 OFFCURVE",
"638 1198 CURVE SMOOTH",
"638 1442 OFFCURVE",
"518 1540 OFFCURVE",
"372 1540 CURVE SMOOTH",
"92 1540 LINE",
"92 1518 LINE",
"196 1518 LINE",
"196 22 LINE",
"92 22 LINE",
"92 0 LINE"
);
},
{
closed = 1;
nodes = (
"262 804 LINE",
"374 804 LINE SMOOTH",
"476 804 OFFCURVE",
"608 682 OFFCURVE",
"608 422 CURVE SMOOTH",
"608 148 OFFCURVE",
"508 22 OFFCURVE",
"410 22 CURVE SMOOTH",
"262 22 LINE"
);
},
{
closed = 1;
nodes = (
"262 1518 LINE",
"374 1518 LINE SMOOTH",
"464 1518 OFFCURVE",
"568 1442 OFFCURVE",
"568 1198 CURVE SMOOTH",
"568 938 OFFCURVE",
"472 826 OFFCURVE",
"374 826 CURVE SMOOTH",
"262 826 LINE"
);
}
);
width = 734;
},
{
anchors = (
{
name = bottom;
position = "{495, 0}";
},
{
name = top;
position = "{495, 1540}";
}
);
layerId = "A4F0BE09-87B8-499B-8BA0-E8BD95093B86";
paths = (
{
closed = 1;
nodes = (
"586 0 LINE SMOOTH",
"768 0 OFFCURVE",
"950 128 OFFCURVE",
"950 442 CURVE SMOOTH",
"950 734 OFFCURVE",
"714 812 OFFCURVE",
"606 816 CURVE",
"714 828 OFFCURVE",
"922 928 OFFCURVE",
"922 1186 CURVE SMOOTH",
"922 1448 OFFCURVE",
"706 1540 OFFCURVE",
"560 1540 CURVE SMOOTH",
"60 1540 LINE",
"60 1518 LINE",
"164 1518 LINE",
"164 22 LINE",
"60 22 LINE",
"60 0 LINE"
);
},
{
closed = 1;
nodes = (
"488 804 LINE",
"518 804 LINE SMOOTH",
"586 804 OFFCURVE",
"606 700 OFFCURVE",
"606 426 CURVE SMOOTH",
"606 154 OFFCURVE",
"560 22 OFFCURVE",
"510 22 CURVE SMOOTH",
"488 22 LINE"
);
},
{
closed = 1;
nodes = (
"488 1518 LINE",
"510 1518 LINE SMOOTH",
"562 1518 OFFCURVE",
"594 1430 OFFCURVE",
"594 1186 CURVE SMOOTH",
"594 926 OFFCURVE",
"584 826 OFFCURVE",
"518 826 CURVE SMOOTH",
"488 826 LINE"
);
}
);
width = 994;
},
{
anchors = (
{
name = bottom;
position = "{384, 0}";
},
{
name = top;
position = "{384, 1540}";
}
);
layerId = "2224527B-843E-45D0-ACBE-AC9678FC6685";
paths = (
{
closed = 1;
nodes = (
"430 0 LINE SMOOTH",
"590 0 OFFCURVE",
"690 158 OFFCURVE",
"690 420 CURVE SMOOTH",
"690 690 OFFCURVE",
"572 812 OFFCURVE",
"464 816 CURVE",
"568 836 OFFCURVE",
"648 960 OFFCURVE",
"648 1198 CURVE SMOOTH",
"648 1442 OFFCURVE",
"528 1540 OFFCURVE",
"382 1540 CURVE SMOOTH",
"102 1540 LINE",
"102 1474 LINE",
"206 1474 LINE",
"206 66 LINE",
"102 66 LINE",
"102 0 LINE"
);
},
{
closed = 1;
nodes = (
"272 782 LINE",
"384 782 LINE SMOOTH",
"486 782 OFFCURVE",
"618 682 OFFCURVE",
"618 422 CURVE SMOOTH",
"618 148 OFFCURVE",
"518 66 OFFCURVE",
"420 66 CURVE SMOOTH",
"272 66 LINE"
);
},
{
closed = 1;
nodes = (
"272 1474 LINE",
"384 1474 LINE SMOOTH",
"474 1474 OFFCURVE",
"578 1442 OFFCURVE",
"578 1198 CURVE SMOOTH",
"578 938 OFFCURVE",
"482 848 OFFCURVE",
"384 848 CURVE SMOOTH",
"272 848 LINE"
);
}
);
width = 754;
},
{
anchors = (
{
name = bottom;
position = "{515, 0}";
},
{
name = top;
position = "{515, 1540}";
}
);
layerId = "42FCB8D3-5141-4304-9365-2E27830BD286";
paths = (
{
closed = 1;
nodes = (
"606 0 LINE SMOOTH",
"788 0 OFFCURVE",
"992 128 OFFCURVE",
"992 442 CURVE SMOOTH",
"992 734 OFFCURVE",
"766 812 OFFCURVE",
"658 816 CURVE",
"766 828 OFFCURVE",
"964 928 OFFCURVE",
"964 1186 CURVE SMOOTH",
"964 1448 OFFCURVE",
"770 1540 OFFCURVE",
"580 1540 CURVE SMOOTH",
"80 1540 LINE",
"80 1452 LINE",
"184 1452 LINE",
"184 88 LINE",
"80 88 LINE",
"80 0 LINE"
);
},
{
closed = 1;
nodes = (
"508 770 LINE",
"538 770 LINE SMOOTH",
"590 770 OFFCURVE",
"650 718 OFFCURVE",
"650 442 CURVE SMOOTH",
"650 220 OFFCURVE",
"588 88 OFFCURVE",
"530 88 CURVE SMOOTH",
"508 88 LINE"
);
},
{
closed = 1;
nodes = (
"508 1452 LINE",
"530 1452 LINE SMOOTH",
"582 1452 OFFCURVE",
"638 1398 OFFCURVE",
"638 1186 CURVE SMOOTH",
"638 944 OFFCURVE",
"604 858 OFFCURVE",
"538 858 CURVE SMOOTH",
"508 858 LINE"
);
}
);
width = 1054;
}
);
leftKerningGroup = H;
rightKerningGroup = B;
unicode = 0042;
},
{
glyphname = C;
lastChange = "2020-02-11 16:18:58 +0000";
layers = (
{
anchors = (
{
name = bottom;
position = "{438, 0}";
},
{
name = top;
position = "{376, 1540}";
}
);
layerId = "798A1B98-D718-4469-8D5D-1F04921BF637";
paths = (
{
closed = 1;
nodes = (
"514 -22 OFFCURVE",
"578 90 OFFCURVE",
"616 194 CURVE",
"592 208 LINE",
"574 144 OFFCURVE",
"516 4 OFFCURVE",
"418 4 CURVE SMOOTH",
"276 4 OFFCURVE",
"158 304 OFFCURVE",
"158 770 CURVE SMOOTH",
"158 1076 OFFCURVE",
"266 1536 OFFCURVE",
"424 1536 CURVE SMOOTH",
"484 1536 OFFCURVE",
"528 1466 OFFCURVE",
"528 1408 CURVE SMOOTH",
"528 1338 OFFCURVE",
"516 1318 OFFCURVE",
"516 1278 CURVE SMOOTH",
"516 1234 OFFCURVE",
"526 1214 OFFCURVE",
"548 1214 CURVE SMOOTH",
"570 1214 OFFCURVE",
"582 1230 OFFCURVE",
"582 1290 CURVE SMOOTH",
"582 1424 OFFCURVE",
"524 1564 OFFCURVE",
"416 1564 CURVE SMOOTH",
"202 1564 OFFCURVE",
"88 1132 OFFCURVE",
"88 768 CURVE SMOOTH",
"88 242 OFFCURVE",
"242 -22 OFFCURVE",
"410 -22 CURVE SMOOTH"
);
}
);
width = 648;
},
{
anchors = (
{
name = bottom;
position = "{520, 0}";
},
{
name = top;
position = "{476, 1540}";
}
);
layerId = "A4F0BE09-87B8-499B-8BA0-E8BD95093B86";
paths = (
{
closed = 1;
nodes = (
"604 -22 OFFCURVE",
"702 60 OFFCURVE",
"748 194 CURVE",
"724 208 LINE",
"700 90 OFFCURVE",
"592 8 OFFCURVE",
"526 8 CURVE SMOOTH",
"438 8 OFFCURVE",
"436 548 OFFCURVE",
"436 770 CURVE SMOOTH",
"436 1000 OFFCURVE",
"438 1532 OFFCURVE",
"552 1532 CURVE SMOOTH",
"574 1532 OFFCURVE",
"614 1510 OFFCURVE",
"614 1472 CURVE SMOOTH",
"614 1408 OFFCURVE",
"518 1354 OFFCURVE",
"518 1242 CURVE SMOOTH",
"518 1146 OFFCURVE",
"552 1082 OFFCURVE",
"648 1082 CURVE SMOOTH",
"734 1082 OFFCURVE",
"772 1158 OFFCURVE",
"772 1252 CURVE SMOOTH",
"772 1390 OFFCURVE",
"670 1564 OFFCURVE",
"494 1564 CURVE SMOOTH",
"202 1564 OFFCURVE",
"78 1166 OFFCURVE",
"78 768 CURVE SMOOTH",
"78 266 OFFCURVE",
"230 -22 OFFCURVE",
"486 -22 CURVE SMOOTH"
);
}
);
width = 816;
},
{
anchors = (
{
name = bottom;
position = "{428, 0}";
},
{
name = top;
position = "{366, 1540}";
}
);
layerId = "2224527B-843E-45D0-ACBE-AC9678FC6685";
paths = (
{
closed = 1;
nodes = (
"504 -22 OFFCURVE",
"576 90 OFFCURVE",
"610 194 CURVE",
"550 218 LINE",
"528 148 OFFCURVE",
"482 44 OFFCURVE",
"400 44 CURVE SMOOTH",
"266 44 OFFCURVE",
"148 310 OFFCURVE",
"148 770 CURVE SMOOTH",
"148 1086 OFFCURVE",
"244 1498 OFFCURVE",
"418 1498 CURVE SMOOTH",
"460 1498 OFFCURVE",
"502 1464 OFFCURVE",
"502 1408 CURVE SMOOTH",
"502 1338 OFFCURVE",
"488 1318 OFFCURVE",
"488 1278 CURVE SMOOTH",
"488 1234 OFFCURVE",
"508 1214 OFFCURVE",
"536 1214 CURVE SMOOTH",
"562 1214 OFFCURVE",
"580 1230 OFFCURVE",
"580 1290 CURVE SMOOTH",
"580 1424 OFFCURVE",
"516 1564 OFFCURVE",
"408 1564 CURVE SMOOTH",
"190 1564 OFFCURVE",
"78 1136 OFFCURVE",
"78 768 CURVE SMOOTH",
"78 242 OFFCURVE",
"216 -22 OFFCURVE",
"400 -22 CURVE SMOOTH"
);
}
);
width = 648;
},
{
anchors = (
{
name = bottom;
position = "{535, 0}";
},
{
name = top;
position = "{491, 1540}";
}
);
layerId = "42FCB8D3-5141-4304-9365-2E27830BD286";
paths = (
{
closed = 1;
nodes = (
"649 -22 OFFCURVE",
"717 62 OFFCURVE",
"763 194 CURVE",
"691 240 LINE",
"665 132 OFFCURVE",
"639 66 OFFCURVE",
"559 66 CURVE SMOOTH",
"463 66 OFFCURVE",
"425 382 OFFCURVE",
"425 770 CURVE SMOOTH",
"425 1026 OFFCURVE",
"451 1472 OFFCURVE",
"573 1472 CURVE SMOOTH",
"603 1472 OFFCURVE",
"617 1460 OFFCURVE",
"617 1412 CURVE SMOOTH",
"617 1342 OFFCURVE",
"533 1314 OFFCURVE",
"533 1224 CURVE SMOOTH",
"533 1140 OFFCURVE",
"567 1082 OFFCURVE",
"663 1082 CURVE SMOOTH",
"749 1082 OFFCURVE",
"787 1158 OFFCURVE",
"787 1252 CURVE SMOOTH",
"787 1388 OFFCURVE",
"671 1564 OFFCURVE",
"515 1564 CURVE SMOOTH",
"217 1564 OFFCURVE",
"73 1174 OFFCURVE",
"73 768 CURVE SMOOTH",
"73 266 OFFCURVE",
"245 -22 OFFCURVE",
"503 -22 CURVE SMOOTH"
);
}
);
width = 856;
}
);
leftKerningGroup = O;
rightKerningGroup = C;
unicode = 0043;
},
{
glyphname = D;
lastChange = "2020-02-11 16:18:33 +0000";
layers = (
{
anchors = (
{
name = bottom;
position = "{416, 0}";
},
{
name = center;
position = "{354, 770}";
},
{
name = top;
position = "{354, 1540}";
}
);
layerId = "798A1B98-D718-4469-8D5D-1F04921BF637";
paths = (
{
closed = 1;
nodes = (
"342 0 LINE SMOOTH",
"540 0 OFFCURVE",
"702 258 OFFCURVE",
"702 782 CURVE SMOOTH",
"702 1300 OFFCURVE",
"542 1540 OFFCURVE",
"342 1540 CURVE SMOOTH",
"88 1540 LINE",
"88 1518 LINE",
"186 1518 LINE",
"186 22 LINE",
"88 22 LINE",
"88 0 LINE"
);
},
{
closed = 1;
nodes = (
"252 1518 LINE",
"358 1518 LINE SMOOTH",
"492 1518 OFFCURVE",
"628 1252 OFFCURVE",
"628 782 CURVE SMOOTH",
"628 236 OFFCURVE",
"476 22 OFFCURVE",
"314 22 CURVE SMOOTH",
"252 22 LINE"
);
}
);
width = 788;
},
{
anchors = (
{
name = bottom;
position = "{440, 0}";
},
{
name = center;
position = "{517, 770}";
},
{
name = top;
position = "{517, 1540}";
}
);
layerId = "A4F0BE09-87B8-499B-8BA0-E8BD95093B86";
paths = (
{
closed = 1;
nodes = (
"530 0 LINE SMOOTH",
"750 0 OFFCURVE",
"946 280 OFFCURVE",
"946 782 CURVE SMOOTH",
"946 1278 OFFCURVE",
"752 1540 OFFCURVE",
"530 1540 CURVE SMOOTH",
"48 1540 LINE",
"48 1518 LINE",
"154 1518 LINE",
"154 22 LINE",
"48 22 LINE",
"48 0 LINE"
);
},
{
closed = 1;
nodes = (
"486 1518 LINE",
"516 1518 LINE SMOOTH",
"574 1518 OFFCURVE",
"602 1230 OFFCURVE",
"602 782 CURVE SMOOTH",
"602 302 OFFCURVE",
"574 22 OFFCURVE",
"516 22 CURVE SMOOTH",
"486 22 LINE"
);
}
);
width = 1012;
},
{
anchors = (
{
name = bottom;
position = "{364, 0}";
},
{
name = center;
position = "{364, 770}";
},
{
name = top;
position = "{364, 1540}";
}
);
layerId = "2224527B-843E-45D0-ACBE-AC9678FC6685";
paths = (
{
closed = 1;
nodes = (
"352 0 LINE SMOOTH",
"550 0 OFFCURVE",
"712 258 OFFCURVE",
"712 782 CURVE SMOOTH",
"712 1300 OFFCURVE",
"552 1540 OFFCURVE",
"352 1540 CURVE SMOOTH",
"98 1540 LINE",
"98 1474 LINE",
"196 1474 LINE",
"196 66 LINE",
"98 66 LINE",
"98 0 LINE"
);
},
{
closed = 1;
nodes = (
"262 1474 LINE",
"368 1474 LINE SMOOTH",
"502 1474 OFFCURVE",
"638 1230 OFFCURVE",
"638 782 CURVE SMOOTH",
"638 258 OFFCURVE",
"486 66 OFFCURVE",
"324 66 CURVE SMOOTH",
"262 66 LINE"
);
}
);
width = 808;
},
{
anchors = (
{
name = bottom;
position = "{464, 0}";
},
{
name = center;
position = "{547, 770}";
},
{
name = top;
position = "{547, 1540}";
}
);
layerId = "42FCB8D3-5141-4304-9365-2E27830BD286";
paths = (
{
closed = 1;
nodes = (
"560 0 LINE SMOOTH",
"780 0 OFFCURVE",
"984 280 OFFCURVE",
"984 782 CURVE SMOOTH",
"984 1278 OFFCURVE",
"782 1540 OFFCURVE",
"560 1540 CURVE SMOOTH",
"78 1540 LINE",
"78 1452 LINE",
"184 1452 LINE",
"184 88 LINE",
"78 88 LINE",
"78 0 LINE"
);
},
{
closed = 1;
nodes = (
"516 1452 LINE",
"546 1452 LINE SMOOTH",
"604 1452 OFFCURVE",
"664 1198 OFFCURVE",
"664 782 CURVE SMOOTH",
"664 334 OFFCURVE",
"604 88 OFFCURVE",
"546 88 CURVE SMOOTH",
"516 88 LINE"
);
}
);
width = 1066;
}
);
leftKerningGroup = H;
rightKerningGroup = O;
rightMetricsKey = O;
unicode = 0044;
},
{
glyphname = E;
lastChange = "2020-01-14 17:56:03 +0000";
layers = (
{
anchors = (
{
name = bottom;
position = "{350, 22}";
},
{
name = ogonek;
position = "{546, 22}";
},
{
name = top;
position = "{328, 1540}";
},
{
name = topleft;
position = "{6, 1540}";
}
);
layerId = "798A1B98-D718-4469-8D5D-1F04921BF637";
paths = (
{
closed = 1;
nodes = (
"572 0 LINE",
"572 272 LINE",
"550 272 LINE",
"550 92 OFFCURVE",
"538 22 OFFCURVE",
"372 22 CURVE SMOOTH",
"208 22 LINE",
"208 760 LINE",
"476 760 LINE",
"476 630 LINE",
"498 630 LINE",
"498 914 LINE",
"476 914 LINE",
"476 782 LINE",
"208 782 LINE",
"208 1518 LINE",
"382 1518 LINE SMOOTH",
"548 1518 OFFCURVE",
"550 1450 OFFCURVE",
"550 1272 CURVE",
"572 1272 LINE",
"572 1540 LINE",
"44 1540 LINE",
"44 1518 LINE",
"142 1518 LINE",
"142 22 LINE",
"44 22 LINE",
"44 0 LINE"
);
}
);
width = 636;
},
{
anchors = (
{
name = bottom;
position = "{434, 22}";
},
{
name = ogonek;
position = "{722, 22}";
},
{
name = top;
position = "{434, 1540}";
},
{
name = topleft;
position = "{24, 1540}";
}
);
layerId = "A4F0BE09-87B8-499B-8BA0-E8BD95093B86";
paths = (
{
closed = 1;
nodes = (
"768 0 LINE",
"768 404 LINE",
"746 404 LINE",
"746 224 OFFCURVE",
"620 22 OFFCURVE",
"492 22 CURVE SMOOTH",
"472 22 LINE",
"472 760 LINE",
"654 760 LINE",
"654 630 LINE",
"676 630 LINE",
"676 914 LINE",
"654 914 LINE",
"654 782 LINE",
"472 782 LINE",
"472 1518 LINE",
"492 1518 LINE SMOOTH",
"620 1518 OFFCURVE",
"746 1318 OFFCURVE",
"746 1140 CURVE",
"768 1140 LINE",
"768 1540 LINE",
"34 1540 LINE",
"34 1518 LINE",
"140 1518 LINE",
"140 22 LINE",
"34 22 LINE",
"34 0 LINE"
);
}
);
width = 823;
},
{
anchors = (
{
name = bottom;
position = "{348, 22}";
},
{
name = ogonek;
position = "{544, 22}";
},
{
name = top;
position = "{326, 1540}";
},
{
name = topleft;
position = "{4, 1540}";
}
);
layerId = "2224527B-843E-45D0-ACBE-AC9678FC6685";
paths = (
{
closed = 1;
nodes = (
"570 0 LINE",
"570 272 LINE",
"504 272 LINE",
"504 92 OFFCURVE",
"497 66 OFFCURVE",
"424 66 CURVE SMOOTH",
"208 66 LINE",
"208 738 LINE",
"458 738 LINE",
"458 630 LINE",
"518 630 LINE",
"518 914 LINE",
"458 914 LINE",
"458 804 LINE",
"208 804 LINE",
"208 1474 LINE",
"412 1474 LINE SMOOTH",
"501 1474 OFFCURVE",
"504 1450 OFFCURVE",
"504 1272 CURVE",
"570 1272 LINE",
"570 1540 LINE",
"42 1540 LINE",
"42 1474 LINE",
"142 1474 LINE",
"142 66 LINE",
"42 66 LINE",
"42 0 LINE"
);
}
);
width = 656;
},
{
anchors = (
{
name = bottom;
position = "{464, 22}";
},
{
name = ogonek;
position = "{752, 22}";
},
{
name = top;
position = "{464, 1540}";
},
{
name = topleft;
position = "{54, 1540}";
}
);
layerId = "42FCB8D3-5141-4304-9365-2E27830BD286";
paths = (
{
closed = 1;
nodes = (
"798 0 LINE",
"798 404 LINE",
"710 404 LINE",
"710 224 OFFCURVE",
"650 88 OFFCURVE",
"522 88 CURVE SMOOTH",
"502 88 LINE",
"502 726 LINE",
"660 726 LINE",
"660 630 LINE",
"748 630 LINE",
"748 914 LINE",
"660 914 LINE",
"660 814 LINE",
"502 814 LINE",
"502 1452 LINE",
"522 1452 LINE SMOOTH",
"650 1452 OFFCURVE",
"710 1318 OFFCURVE",
"710 1140 CURVE",
"798 1140 LINE",
"798 1540 LINE",
"64 1540 LINE",
"64 1452 LINE",
"170 1452 LINE",
"170 88 LINE",
"64 88 LINE",
"64 0 LINE"
);
}
);
width = 883;
}
);
leftKerningGroup = H;
rightKerningGroup = E;
unicode = 0045;
},
{
glyphname = F;
lastChange = "2020-01-14 17:56:03 +0000";
layers = (
{
anchors = (
{
name = bottom;
position = "{330, 0}";
},
{
name = top;
position = "{330, 1540}";
}
);
layerId = "798A1B98-D718-4469-8D5D-1F04921BF637";
paths = (
{
closed = 1;
nodes = (
"348 0 LINE",
"348 22 LINE",
"248 22 LINE",
"248 760 LINE",
"494 760 LINE",
"494 630 LINE",
"516 630 LINE",
"516 914 LINE",
"494 914 LINE",
"494 782 LINE",
"248 782 LINE",
"248 1518 LINE",
"386 1518 LINE SMOOTH",
"557 1518 OFFCURVE",
"558 1450 OFFCURVE",
"558 1272 CURVE",
"580 1272 LINE",
"580 1540 LINE",
"84 1540 LINE",
"84 1518 LINE",
"182 1518 LINE",
"182 22 LINE",
"84 22 LINE",
"84 0 LINE"
);
}
);
width = 656;
},
{
anchors = (
{
name = bottom;
position = "{407, 0}";
},
{
name = top;
position = "{407, 1540}";
}
);
layerId = "A4F0BE09-87B8-499B-8BA0-E8BD95093B86";
paths = (
{
closed = 1;
nodes = (
"588 0 LINE",
"588 22 LINE",
"482 22 LINE",
"482 760 LINE",
"640 760 LINE",
"640 630 LINE",
"662 630 LINE",
"662 914 LINE",
"640 914 LINE",
"640 782 LINE",
"482 782 LINE",
"482 1518 LINE",
"496 1518 LINE SMOOTH",
"632 1518 OFFCURVE",
"726 1318 OFFCURVE",
"726 1140 CURVE",
"748 1140 LINE",
"748 1540 LINE",
"44 1540 LINE",
"44 1518 LINE",
"150 1518 LINE",
"150 22 LINE",
"44 22 LINE",
"44 0 LINE"
);
}
);
width = 814;
},
{
anchors = (
{
name = bottom;
position = "{340, 0}";
},
{
name = top;
position = "{340, 1540}";
}
);
layerId = "2224527B-843E-45D0-ACBE-AC9678FC6685";
paths = (
{
closed = 1;
nodes = (
"358 0 LINE",
"358 66 LINE",
"258 66 LINE",
"258 738 LINE",
"486 738 LINE",
"486 630 LINE",
"552 630 LINE",
"552 914 LINE",
"486 914 LINE",
"486 804 LINE",
"258 804 LINE",
"258 1474 LINE",
"440 1474 LINE SMOOTH",
"522 1474 OFFCURVE",
"522 1450 OFFCURVE",
"522 1272 CURVE",
"590 1272 LINE",
"590 1540 LINE",
"94 1540 LINE",
"94 1474 LINE",
"192 1474 LINE",
"192 66 LINE",
"94 66 LINE",
"94 0 LINE"
);
}
);
width = 676;
},
{
anchors = (
{
name = bottom;
position = "{437, 0}";
},
{
name = top;
position = "{437, 1540}";
}
);
layerId = "42FCB8D3-5141-4304-9365-2E27830BD286";
paths = (
{
closed = 1;
nodes = (
"618 0 LINE",
"618 88 LINE",
"512 88 LINE",
"512 760 LINE",
"670 760 LINE",
"670 662 LINE",
"758 662 LINE",
"758 946 LINE",
"670 946 LINE",
"670 848 LINE",
"512 848 LINE",
"512 1452 LINE",
"526 1452 LINE SMOOTH",
"662 1452 OFFCURVE",
"690 1318 OFFCURVE",
"690 1140 CURVE",
"778 1140 LINE",
"778 1540 LINE",
"74 1540 LINE",
"74 1452 LINE",
"180 1452 LINE",
"180 88 LINE",
"74 88 LINE",
"74 0 LINE"
);
}
);
width = 874;
}
);
leftKerningGroup = H;
rightKerningGroup = F;
unicode = 0046;
},
{
glyphname = G;
lastChange = "2020-01-14 17:56:03 +0000";
layers = (
{
anchors = (
{
name = bottom;
position = "{384, 0}";
},
{
name = top;
position = "{384, 1540}";
}
);
layerId = "798A1B98-D718-4469-8D5D-1F04921BF637";
paths = (
{
closed = 1;
nodes = (
"448 -22 OFFCURVE",
"496 14 OFFCURVE",
"515 14 CURVE SMOOTH",
"530 14 OFFCURVE",
"538 2 OFFCURVE",
"538 0 CURVE",
"562 0 LINE",
"562 674 LINE",
"662 674 LINE",
"662 696 LINE",
"392 696 LINE",
"392 674 LINE",
"496 674 LINE",
"496 48 LINE",
"481 28 OFFCURVE",
"443 2 OFFCURVE",
"396 2 CURVE SMOOTH",
"216 2 OFFCURVE",
"146 444 OFFCURVE",
"146 768 CURVE SMOOTH",
"146 1082 OFFCURVE",
"246 1532 OFFCURVE",
"408 1532 CURVE SMOOTH",
"470 1532 OFFCURVE",
"516 1474 OFFCURVE",
"516 1408 CURVE SMOOTH",
"516 1338 OFFCURVE",
"506 1318 OFFCURVE",
"506 1278 CURVE SMOOTH",
"506 1236 OFFCURVE",
"514 1214 OFFCURVE",
"536 1214 CURVE SMOOTH",
"558 1214 OFFCURVE",
"572 1230 OFFCURVE",
"572 1290 CURVE SMOOTH",
"572 1426 OFFCURVE",
"526 1562 OFFCURVE",
"400 1562 CURVE SMOOTH",
"244 1562 OFFCURVE",
"76 1292 OFFCURVE",
"76 768 CURVE SMOOTH",
"76 274 OFFCURVE",
"182 -22 OFFCURVE",
"392 -22 CURVE SMOOTH"
);
}
);
width = 694;
},
{
anchors = (
{
name = bottom;
position = "{486, 0}";
},
{
name = top;
position = "{486, 1540}";
}
);
layerId = "A4F0BE09-87B8-499B-8BA0-E8BD95093B86";
paths = (
{
closed = 1;
nodes = (
"560 -22 OFFCURVE",
"614 14 OFFCURVE",
"694 14 CURVE SMOOTH",
"758 14 OFFCURVE",
"782 5 OFFCURVE",
"786 0 CURVE",
"816 0 LINE",
"816 674 LINE",
"898 674 LINE",
"898 696 LINE",
"462 696 LINE",
"462 674 LINE",
"518 674 LINE",
"518 24 LINE",
"516 15 OFFCURVE",
"508 4 OFFCURVE",
"492 4 CURVE SMOOTH",
"422 4 OFFCURVE",
"416 298 OFFCURVE",
"416 768 CURVE SMOOTH",
"416 1102 OFFCURVE",
"420 1536 OFFCURVE",
"546 1536 CURVE SMOOTH",
"596 1536 OFFCURVE",
"648 1498 OFFCURVE",
"648 1466 CURVE SMOOTH",
"648 1400 OFFCURVE",
"546 1354 OFFCURVE",
"546 1252 CURVE SMOOTH",
"546 1152 OFFCURVE",
"582 1082 OFFCURVE",
"676 1082 CURVE SMOOTH",
"764 1082 OFFCURVE",
"802 1152 OFFCURVE",
"802 1252 CURVE SMOOTH",
"802 1418 OFFCURVE",
"672 1562 OFFCURVE",
"516 1562 CURVE SMOOTH",
"282 1562 OFFCURVE",
"56 1272 OFFCURVE",
"56 768 CURVE SMOOTH",
"56 208 OFFCURVE",
"238 -22 OFFCURVE",
"492 -22 CURVE SMOOTH"
);
}
);
width = 920;
},
{
anchors = (
{
name = bottom;
position = "{394, 0}";
},
{
name = top;
position = "{394, 1540}";
}
);
layerId = "2224527B-843E-45D0-ACBE-AC9678FC6685";
paths = (
{
closed = 1;
nodes = (
"452 -22 OFFCURVE",
"485 6 OFFCURVE",
"507 6 CURVE SMOOTH",
"513 6 OFFCURVE",
"518 3 OFFCURVE",
"520 0 CURVE",
"572 0 LINE",
"572 630 LINE",
"672 630 LINE",
"672 696 LINE",
"402 696 LINE",
"402 630 LINE",
"506 630 LINE",
"506 84 LINE",
"487 66 OFFCURVE",
"442 42 OFFCURVE",
"388 42 CURVE SMOOTH",
"264 42 OFFCURVE",
"156 320 OFFCURVE",
"156 768 CURVE SMOOTH",
"156 1086 OFFCURVE",
"236 1496 OFFCURVE",
"406 1496 CURVE SMOOTH",
"474 1496 OFFCURVE",
"516 1450 OFFCURVE",
"516 1404 CURVE SMOOTH",
"516 1340 OFFCURVE",
"500 1318 OFFCURVE",
"500 1278 CURVE SMOOTH",
"500 1236 OFFCURVE",
"520 1214 OFFCURVE",
"546 1214 CURVE SMOOTH",
"572 1214 OFFCURVE",
"590 1230 OFFCURVE",
"590 1290 CURVE SMOOTH",
"590 1426 OFFCURVE",
"540 1562 OFFCURVE",
"404 1562 CURVE SMOOTH",
"238 1562 OFFCURVE",
"86 1292 OFFCURVE",
"86 768 CURVE SMOOTH",
"86 274 OFFCURVE",
"214 -22 OFFCURVE",
"380 -22 CURVE SMOOTH"
);
}
);
width = 714;
},
{
anchors = (
{
name = bottom;
position = "{518, 0}";
},
{
name = top;
position = "{518, 1540}";
}
);
layerId = "42FCB8D3-5141-4304-9365-2E27830BD286";
paths = (
{
closed = 1;
nodes = (
"624 -22 OFFCURVE",
"652 26 OFFCURVE",
"698 26 CURVE SMOOTH",
"732 26 OFFCURVE",
"753 4 OFFCURVE",
"756 0 CURVE",
"848 0 LINE",
"848 608 LINE",
"940 608 LINE",
"940 696 LINE",
"470 696 LINE",
"470 608 LINE",
"550 608 LINE",
"550 90 LINE",
"547 81 OFFCURVE",
"539 70 OFFCURVE",
"524 70 CURVE SMOOTH",
"456 70 OFFCURVE",
"396 294 OFFCURVE",
"396 768 CURVE SMOOTH",
"396 1072 OFFCURVE",
"436 1482 OFFCURVE",
"574 1482 CURVE SMOOTH",
"618 1482 OFFCURVE",
"656 1444 OFFCURVE",
"656 1410 CURVE SMOOTH",
"656 1344 OFFCURVE",
"578 1320 OFFCURVE",
"578 1236 CURVE SMOOTH",
"578 1154 OFFCURVE",
"614 1082 OFFCURVE",
"708 1082 CURVE SMOOTH",
"794 1082 OFFCURVE",
"840 1152 OFFCURVE",
"840 1252 CURVE SMOOTH",
"840 1424 OFFCURVE",
"714 1562 OFFCURVE",
"538 1562 CURVE SMOOTH",
"310 1562 OFFCURVE",
"64 1268 OFFCURVE",
"64 768 CURVE SMOOTH",
"64 208 OFFCURVE",
"270 -22 OFFCURVE",
"524 -22 CURVE SMOOTH"
);
}
);
width = 980;
}
);
leftKerningGroup = O;
rightKerningGroup = G;
unicode = 0047;
},
{
glyphname = H;
lastChange = "2020-01-14 18:57:02 +0000";
layers = (
{
anchors = (
{
name = bottom;
position = "{424, 0}";
},
{
name = center;
position = "{424, 770}";
},
{
name = top;
position = "{424, 1540}";
},
{
name = topleft;
position = "{44, 1540}";
}
);
layerId = "798A1B98-D718-4469-8D5D-1F04921BF637";
paths = (
{
closed = 1;
nodes = (
"328 0 LINE",
"328 22 LINE",
"230 22 LINE",
"230 782 LINE",
"600 782 LINE",
"600 22 LINE",
"502 22 LINE",
"502 0 LINE",
"768 0 LINE",
"768 22 LINE",
"666 22 LINE",
"666 1518 LINE",
"768 1518 LINE",
"768 1540 LINE",
"502 1540 LINE",
"502 1518 LINE",
"600 1518 LINE",
"600 804 LINE",
"230 804 LINE",
"230 1518 LINE",
"328 1518 LINE",
"328 1540 LINE",
"66 1540 LINE",
"66 1518 LINE",
"164 1518 LINE",
"164 22 LINE",
"66 22 LINE",
"66 0 LINE"
);
}
);
width = 832;
},
{
anchors = (
{
name = bottom;
position = "{544, 0}";
},
{
name = center;
position = "{524, 770}";
},
{
name = top;
position = "{524, 1540}";
},
{
name = topleft;
position = "{33, 1540}";
}
);
layerId = "A4F0BE09-87B8-499B-8BA0-E8BD95093B86";
paths = (
{
closed = 1;
nodes = (
"522 0 LINE",
"522 22 LINE",
"460 22 LINE",
"460 782 LINE",
"612 782 LINE",
"612 22 LINE",
"552 22 LINE",
"552 0 LINE",
"1038 0 LINE",
"1038 22 LINE",
"932 22 LINE",
"932 1518 LINE",
"1038 1518 LINE",
"1038 1540 LINE",
"552 1540 LINE",
"552 1518 LINE",
"612 1518 LINE",
"612 804 LINE",
"460 804 LINE",
"460 1518 LINE",
"522 1518 LINE",
"522 1540 LINE",
"26 1540 LINE",
"26 1518 LINE",
"132 1518 LINE",
"132 22 LINE",
"26 22 LINE",
"26 0 LINE"
);
}
);
width = 1065;
},
{
anchors = (
{
name = bottom;
position = "{428, 0}";
},
{
name = center;
position = "{424, 770}";
},
{
name = top;
position = "{424, 1540}";
},
{
name = topleft;
position = "{44, 1540}";
}
);
layerId = "2224527B-843E-45D0-ACBE-AC9678FC6685";
paths = (
{
closed = 1;
nodes = (
"328 0 LINE",
"328 66 LINE",
"230 66 LINE",
"230 760 LINE",
"600 760 LINE",
"600 66 LINE",
"502 66 LINE",
"502 0 LINE",
"768 0 LINE",
"768 66 LINE",
"666 66 LINE",
"666 1474 LINE",
"768 1474 LINE",
"768 1540 LINE",
"502 1540 LINE",
"502 1474 LINE",
"600 1474 LINE",
"600 826 LINE",
"230 826 LINE",
"230 1474 LINE",
"328 1474 LINE",
"328 1540 LINE",
"66 1540 LINE",
"66 1474 LINE",
"164 1474 LINE",
"164 66 LINE",
"66 66 LINE",
"66 0 LINE"
);
}
);
width = 832;
},
{
anchors = (
{
name = bottom;
position = "{566, 0}";
},
{
name = center;
position = "{544, 770}";
},
{
name = top;
position = "{544, 1540}";
},
{
name = topleft;
position = "{53, 1540}";
}
);
layerId = "42FCB8D3-5141-4304-9365-2E27830BD286";
paths = (
{
closed = 1;
nodes = (
"542 0 LINE",
"542 88 LINE",
"480 88 LINE",
"480 748 LINE",
"632 748 LINE",
"632 88 LINE",
"572 88 LINE",
"572 0 LINE",
"1058 0 LINE",
"1058 88 LINE",
"952 88 LINE",
"952 1452 LINE",
"1058 1452 LINE",
"1058 1540 LINE",
"572 1540 LINE",
"572 1452 LINE",
"632 1452 LINE",
"632 836 LINE",
"480 836 LINE",
"480 1452 LINE",
"542 1452 LINE",
"542 1540 LINE",
"46 1540 LINE",
"46 1452 LINE",
"152 1452 LINE",
"152 88 LINE",
"46 88 LINE",
"46 0 LINE"
);
}
);
width = 1105;
}
);
leftKerningGroup = H;
rightKerningGroup = H;
unicode = 0048;
},
{
glyphname = Hbar;
lastChange = "2020-01-14 18:58:30 +0000";
layers = (
{
components = (
{
name = H;
transform = "{1, 0, 0, 1, 20, 0}";
}
);
layerId = "798A1B98-D718-4469-8D5D-1F04921BF637";
paths = (
{
closed = 1;
nodes = (
"808 1142 LINE",
"808 1164 LINE",
"66 1164 LINE",
"66 1142 LINE"
);
}
);
width = 872;
},
{
components = (
{
name = H;
}
);
layerId = "A4F0BE09-87B8-499B-8BA0-E8BD95093B86";
paths = (
{
closed = 1;
nodes = (
"990 1142 LINE",
"990 1164 LINE",
"72 1164 LINE",
"72 1142 LINE"
);
}
);
width = 1065;
},
{
components = (
{
name = H;
}
);
layerId = "2224527B-843E-45D0-ACBE-AC9678FC6685";
paths = (
{
closed = 1;
nodes = (
"778 1120 LINE",
"778 1186 LINE",
"76 1186 LINE",
"76 1120 LINE"
);
}
);
width = 842;
},
{
components = (
{
name = H;
}
);
layerId = "42FCB8D3-5141-4304-9365-2E27830BD286";
paths = (
{
closed = 1;
nodes = (
"1030 1110 LINE",
"1030 1198 LINE",
"102 1198 LINE",
"102 1110 LINE"
);
}
);
width = 1105;
}
);
leftKerningGroup = H;
leftMetricsKey = H;
rightKerningGroup = H;
rightMetricsKey = H;
unicode = 0126;
},
{
glyphname = I;
lastChange = "2020-02-10 14:57:36 +0000";
layers = (
{
anchors = (
{
name = bottom;
position = "{216, 0}";
},
{
name = ogonek;
position = "{348, 22}";
},
{
name = top;
position = "{212, 1540}";
},
{
name = topleft;
position = "{42, 1540}";
}
);
layerId = "798A1B98-D718-4469-8D5D-1F04921BF637";
paths = (
{
closed = 1;
nodes = (
"348 0 LINE",
"348 22 LINE",
"244 22 LINE SMOOTH",
"244 1518 LINE",
"348 1518 LINE",
"348 1540 LINE",
"76 1540 LINE",
"76 1518 LINE",
"178 1518 LINE",
"178 22 LINE",
"76 22 LINE",
"76 0 LINE"
);
}
);
width = 424;
},
{
anchors = (
{
name = bottom;
position = "{322, 0}";
},
{
name = ogonek;
position = "{490, 20}";
},
{
name = top;
position = "{312, 1540}";
},
{
name = topleft;
position = "{44, 1540}";
}
);
layerId = "A4F0BE09-87B8-499B-8BA0-E8BD95093B86";
paths = (
{
closed = 1;
nodes = (
"584 0 LINE",
"584 22 LINE",
"474 22 LINE SMOOTH",
"474 1518 LINE",
"584 1518 LINE",
"584 1540 LINE",
"38 1540 LINE",
"38 1518 LINE",
"146 1518 LINE",
"146 22 LINE",
"38 22 LINE",
"38 0 LINE"
);
}
);
width = 620;
},
{
anchors = (
{
name = bottom;
position = "{226, 0}";
},
{
name = ogonek;
position = "{366, 22}";
},
{
name = top;
position = "{222, 1540}";
},
{
name = topleft;
position = "{52, 1540}";
}
);
layerId = "2224527B-843E-45D0-ACBE-AC9678FC6685";
paths = (
{
closed = 1;
nodes = (
"358 0 LINE",
"358 66 LINE",
"254 66 LINE SMOOTH",
"254 1474 LINE",
"358 1474 LINE",
"358 1540 LINE",
"86 1540 LINE",
"86 1474 LINE",
"188 1474 LINE",
"188 66 LINE",
"86 66 LINE",
"86 0 LINE"
);
}
);
width = 444;
},
{
anchors = (
{
name = bottom;
position = "{352, 0}";
},
{
name = ogonek;
position = "{546, 20}";
},
{
name = top;
position = "{342, 1540}";
},
{
name = topleft;
position = "{74, 1540}";
}
);
layerId = "42FCB8D3-5141-4304-9365-2E27830BD286";
paths = (
{
closed = 1;
nodes = (
"614 0 LINE",
"614 88 LINE",
"504 88 LINE SMOOTH",
"504 1452 LINE",
"614 1452 LINE",
"614 1540 LINE",
"68 1540 LINE",
"68 1452 LINE",
"176 1452 LINE",
"176 88 LINE",
"68 88 LINE",
"68 0 LINE"
);
}
);
width = 680;
}
);
leftKerningGroup = H;
rightKerningGroup = H;
unicode = 0049;
},
{
glyphname = J;
lastChange = "2020-02-10 16:02:14 +0000";
layers = (
{
anchors = (
{
name = bottom;
position = "{279, 0}";
},
{
name = top;
position = "{368, 1540}";
}
);
layerId = "798A1B98-D718-4469-8D5D-1F04921BF637";
paths = (
{
closed = 1;
nodes = (
"312 -30 OFFCURVE",
"410 84 OFFCURVE",
"410 404 CURVE SMOOTH",
"410 1518 LINE",
"512 1518 LINE",
"512 1540 LINE",
"238 1540 LINE",
"238 1518 LINE",
"344 1518 LINE",
"344 312 LINE SMOOTH",
"344 100 OFFCURVE",
"276 0 OFFCURVE",
"202 0 CURVE SMOOTH",
"144 0 OFFCURVE",
"100 54 OFFCURVE",
"100 128 CURVE SMOOTH",
"100 198 OFFCURVE",
"112 218 OFFCURVE",
"112 258 CURVE SMOOTH",
"112 306 OFFCURVE",
"102 322 OFFCURVE",
"80 322 CURVE SMOOTH",
"58 322 OFFCURVE",
"46 306 OFFCURVE",
"46 246 CURVE SMOOTH",
"46 106 OFFCURVE",
"94 -30 OFFCURVE",
"210 -30 CURVE SMOOTH"
);
}
);
width = 558;
},
{
anchors = (
{
name = bottom;
position = "{414, 0}";
},
{
name = top;
position = "{530, 1540}";
}
);
layerId = "A4F0BE09-87B8-499B-8BA0-E8BD95093B86";
paths = (
{
closed = 1;
nodes = (
"410 -24 OFFCURVE",
"682 38 OFFCURVE",
"682 492 CURVE SMOOTH",
"682 1518 LINE",
"794 1518 LINE",
"794 1540 LINE",
"234 1540 LINE",
"234 1518 LINE",
"352 1518 LINE",
"352 210 LINE SMOOTH",
"352 58 OFFCURVE",
"334 8 OFFCURVE",
"278 8 CURVE SMOOTH",
"240 8 OFFCURVE",
"188 18 OFFCURVE",
"188 58 CURVE SMOOTH",
"188 100 OFFCURVE",
"296 184 OFFCURVE",
"296 296 CURVE SMOOTH",
"296 408 OFFCURVE",
"242 456 OFFCURVE",
"168 456 CURVE SMOOTH",
"92 456 OFFCURVE",
"36 408 OFFCURVE",
"36 296 CURVE SMOOTH",
"36 124 OFFCURVE",
"134 -24 OFFCURVE",
"320 -24 CURVE SMOOTH"
);
}
);
width = 827;
},
{
anchors = (
{
name = bottom;
position = "{283, 0}";
},
{
name = top;
position = "{386, 1540}";
}
);
layerId = "2224527B-843E-45D0-ACBE-AC9678FC6685";
paths = (
{
closed = 1;
nodes = (
"328 -30 OFFCURVE",
"420 62 OFFCURVE",
"420 382 CURVE SMOOTH",
"420 1474 LINE",
"522 1474 LINE",
"522 1540 LINE",
"248 1540 LINE",
"248 1474 LINE",
"354 1474 LINE",
"354 312 LINE SMOOTH",
"354 100 OFFCURVE",
"294 38 OFFCURVE",
"214 38 CURVE SMOOTH",
"160 38 OFFCURVE",
"118 78 OFFCURVE",
"118 130 CURVE SMOOTH",
"118 200 OFFCURVE",
"134 218 OFFCURVE",
"134 258 CURVE SMOOTH",
"134 302 OFFCURVE",
"118 322 OFFCURVE",
"90 322 CURVE SMOOTH",
"62 322 OFFCURVE",
"44 306 OFFCURVE",
"44 246 CURVE SMOOTH",
"44 112 OFFCURVE",
"100 -30 OFFCURVE",
"220 -30 CURVE SMOOTH"
);
}
);
width = 566;
},
{
anchors = (
{
name = bottom;
position = "{444, 0}";
},
{
name = top;
position = "{544, 1540}";
}
);
layerId = "42FCB8D3-5141-4304-9365-2E27830BD286";
paths = (
{
closed = 1;
nodes = (
"440 -24 OFFCURVE",
"712 38 OFFCURVE",
"712 492 CURVE SMOOTH",
"712 1452 LINE",
"824 1452 LINE",
"824 1540 LINE",
"264 1540 LINE",
"264 1452 LINE",
"382 1452 LINE",
"382 176 LINE SMOOTH",
"382 98 OFFCURVE",
"352 70 OFFCURVE",
"294 70 CURVE SMOOTH",
"268 70 OFFCURVE",
"248 86 OFFCURVE",
"248 128 CURVE SMOOTH",
"248 180 OFFCURVE",
"326 190 OFFCURVE",
"326 302 CURVE SMOOTH",
"326 414 OFFCURVE",
"272 456 OFFCURVE",
"198 456 CURVE SMOOTH",
"122 456 OFFCURVE",
"66 408 OFFCURVE",
"66 296 CURVE SMOOTH",
"66 124 OFFCURVE",
"164 -24 OFFCURVE",
"350 -24 CURVE SMOOTH"
);
}
);
width = 887;
}
);
leftKerningGroup = J;
rightKerningGroup = J;
unicode = 004A;
},
{
glyphname = K;
lastChange = "2020-01-14 17:56:03 +0000";
layers = (
{
anchors = (
{
name = bottom;
position = "{342, 0}";
},
{
name = top;
position = "{342, 1540}";
}
);
layerId = "798A1B98-D718-4469-8D5D-1F04921BF637";
paths = (
{
closed = 1;
nodes = (
"308 0 LINE",
"308 22 LINE",
"204 22 LINE",
"204 756 LINE",
"198 752 LINE",
"484 22 LINE",
"386 22 LINE",
"386 0 LINE",
"640 0 LINE",
"640 22 LINE",
"556 22 LINE",
"236 824 LINE",
"236 770 LINE",
"542 1518 LINE",
"640 1518 LINE",
"640 1540 LINE",
"402 1540 LINE",
"402 1518 LINE",
"514 1518 LINE",
"204 766 LINE",
"204 1518 LINE",
"308 1518 LINE",
"308 1540 LINE",
"36 1540 LINE",
"36 1518 LINE",
"138 1518 LINE",
"138 22 LINE",
"36 22 LINE",
"36 0 LINE"
);
}
);
width = 682;
},
{
anchors = (
{
name = bottom;
position = "{508, 0}";
},
{
name = top;
position = "{500, 1540}";
}
);
layerId = "A4F0BE09-87B8-499B-8BA0-E8BD95093B86";
paths = (
{
closed = 1;
nodes = (
"500 0 LINE",
"500 22 LINE",
"432 22 LINE",
"432 766 LINE",
"422 766 LINE",
"574 22 LINE",
"508 22 LINE",
"508 0 LINE",
"988 0 LINE",
"988 22 LINE",
"904 22 LINE",
"640 1164 LINE",
"630 1112 LINE",
"836 1518 LINE",
"934 1518 LINE",
"934 1540 LINE",
"718 1540 LINE",
"718 1518 LINE",
"810 1518 LINE",
"432 778 LINE",
"432 1518 LINE",
"514 1518 LINE",
"514 1540 LINE",
"4 1540 LINE",
"4 1518 LINE",
"106 1518 LINE",
"106 22 LINE",
"4 22 LINE",
"4 0 LINE"
);
}
);
width = 999;
},
{
anchors = (
{
name = bottom;
position = "{352, 0}";
},
{
name = top;
position = "{352, 1540}";
}
);
layerId = "2224527B-843E-45D0-ACBE-AC9678FC6685";
paths = (
{
closed = 1;
nodes = (
"318 0 LINE",
"318 66 LINE",
"214 66 LINE",
"214 756 LINE",
"204 752 LINE",
"476 66 LINE",
"396 66 LINE",
"396 0 LINE",
"650 0 LINE",
"650 66 LINE",
"552 66 LINE",
"248 824 LINE",
"256 760 LINE",
"580 1474 LINE",
"650 1474 LINE",
"650 1540 LINE",
"412 1540 LINE",
"412 1474 LINE",
"504 1474 LINE",
"214 824 LINE",
"214 1474 LINE",
"318 1474 LINE",
"318 1540 LINE",
"46 1540 LINE",
"46 1474 LINE",
"148 1474 LINE",
"148 66 LINE",
"46 66 LINE",
"46 0 LINE"
);
}
);
width = 702;
},
{
anchors = (
{
name = bottom;
position = "{525, 0}";
},
{
name = top;
position = "{530, 1540}";
}
);
layerId = "42FCB8D3-5141-4304-9365-2E27830BD286";
paths = (
{
closed = 1;
nodes = (
"528 0 LINE",
"528 88 LINE",
"462 88 LINE",
"462 816 LINE",
"418 840 LINE",
"604 88 LINE",
"536 88 LINE",
"536 0 LINE",
"1030 0 LINE",
"1030 88 LINE",
"956 88 LINE",
"694 1116 LINE",
"660 1032 LINE",
"896 1452 LINE",
"990 1452 LINE",
"990 1540 LINE",
"694 1540 LINE",
"694 1452 LINE",
"794 1452 LINE",
"462 858 LINE",
"462 1452 LINE",
"576 1452 LINE",
"576 1540 LINE",
"34 1540 LINE",
"34 1452 LINE",
"136 1452 LINE",
"136 88 LINE",
"34 88 LINE",
"34 0 LINE"
);
}
);
width = 1059;
}
);
leftKerningGroup = H;
rightKerningGroup = K;
unicode = 004B;
},
{
glyphname = L;
lastChange = "2020-01-14 17:56:03 +0000";
layers = (
{
anchors = (
{
name = bottom;
position = "{318, 0}";
},
{
name = center;
position = "{318, 770}";
},
{
name = top;
position = "{318, 1540}";
},
{
name = topright;
position = "{580, 1540}";
}
);
layerId = "798A1B98-D718-4469-8D5D-1F04921BF637";
paths = (
{
closed = 1;
nodes = (
"548 0 LINE",
"548 272 LINE",
"526 272 LINE",
"526 92 OFFCURVE",
"506 22 OFFCURVE",
"332 22 CURVE SMOOTH",
"242 22 LINE",
"242 1518 LINE",
"342 1518 LINE",
"342 1540 LINE",
"76 1540 LINE",
"76 1518 LINE",
"176 1518 LINE",
"176 22 LINE",
"76 22 LINE",
"76 0 LINE"
);
}
);
width = 602;
},
{
anchors = (
{
name = bottom;
position = "{396, 0}";
},
{
name = center;
position = "{396, 770}";
},
{
name = top;
position = "{396, 1540}";
},
{
name = topright;
position = "{758, 1540}";
}
);
layerId = "A4F0BE09-87B8-499B-8BA0-E8BD95093B86";
paths = (
{
closed = 1;
nodes = (
"724 0 LINE",
"724 404 LINE",
"702 404 LINE",
"702 224 OFFCURVE",
"628 22 OFFCURVE",
"498 22 CURVE SMOOTH",
"460 22 LINE",
"460 1518 LINE",
"562 1518 LINE",
"562 1540 LINE",
"34 1540 LINE",
"34 1518 LINE",
"132 1518 LINE",
"132 22 LINE",
"34 22 LINE",
"34 0 LINE"
);
}
);
width = 768;
},
{
anchors = (
{
name = bottom;
position = "{328, 0}";
},
{
name = center;
position = "{328, 770}";
},
{
name = top;
position = "{328, 1540}";
},
{
name = topright;
position = "{590, 1540}";
}
);
layerId = "2224527B-843E-45D0-ACBE-AC9678FC6685";
paths = (
{
closed = 1;
nodes = (
"558 0 LINE",
"558 272 LINE",
"492 272 LINE",
"492 92 OFFCURVE",
"472 66 OFFCURVE",
"364 66 CURVE SMOOTH",
"252 66 LINE",
"252 1474 LINE",
"352 1474 LINE",
"352 1540 LINE",
"86 1540 LINE",
"86 1474 LINE",
"186 1474 LINE",
"186 66 LINE",
"86 66 LINE",
"86 0 LINE"
);
}
);
width = 622;
},
{
anchors = (
{
name = bottom;
position = "{426, 0}";
},
{
name = center;
position = "{426, 770}";
},
{
name = top;
position = "{426, 1540}";
},
{
name = topright;
position = "{788, 1540}";
}
);
layerId = "42FCB8D3-5141-4304-9365-2E27830BD286";
paths = (
{
closed = 1;
nodes = (
"754 0 LINE",
"754 404 LINE",
"666 404 LINE",
"666 230 OFFCURVE",
"610 88 OFFCURVE",
"512 88 CURVE SMOOTH",
"490 88 LINE",
"490 1452 LINE",
"592 1452 LINE",
"592 1540 LINE",
"64 1540 LINE",
"64 1452 LINE",
"162 1452 LINE",
"162 88 LINE",
"64 88 LINE",
"64 0 LINE"
);
}
);
width = 828;
}
);
leftKerningGroup = H;
rightKerningGroup = L;
unicode = 004C;
},
{
glyphname = Lslash;
lastChange = "2020-01-14 17:56:03 +0000";
layers = (
{
components = (
{
name = L;
}
);
layerId = "798A1B98-D718-4469-8D5D-1F04921BF637";
paths = (
{
closed = 1;
nodes = (
"490 922 LINE",
"490 958 LINE",
"34 564 LINE",
"34 528 LINE"
);
}
);
width = 634;
},
{
components = (
{
name = L;
}
);
layerId = "A4F0BE09-87B8-499B-8BA0-E8BD95093B86";
paths = (
{
closed = 1;
nodes = (
"590 926 LINE",
"590 958 LINE",
"24 560 LINE",
"24 528 LINE"
);
}
);
width = 812;
},
{
components = (
{
name = L;
}
);
layerId = "2224527B-843E-45D0-ACBE-AC9678FC6685";
paths = (
{
closed = 1;
nodes = (
"500 878 LINE",
"500 958 LINE",
"44 564 LINE",
"44 484 LINE"
);
}
);
width = 654;
},
{
components = (
{
name = L;
}
);
layerId = "42FCB8D3-5141-4304-9365-2E27830BD286";
paths = (
{
closed = 1;
nodes = (
"620 860 LINE",
"620 958 LINE",
"54 560 LINE",
"54 462 LINE"
);
}
);
width = 872;
}
);
leftKerningGroup = H;
rightKerningGroup = L;
unicode = 0141;
},
{
glyphname = M;
lastChange = "2020-01-14 17:56:03 +0000";
layers = (
{
anchors = (
{
name = bottom;
position = "{516, 0}";
},
{
name = top;
position = "{516, 1540}";
}
);
layerId = "798A1B98-D718-4469-8D5D-1F04921BF637";
paths = (
{
closed = 1;
nodes = (
"308 0 LINE",
"308 22 LINE",
"188 22 LINE",
"188 1532 LINE",
"184 1532 LINE",
"442 0 LINE",
"458 0 LINE",
"744 1514 LINE",
"736 1514 LINE",
"736 22 LINE",
"638 22 LINE",
"638 0 LINE",
"906 0 LINE",
"906 22 LINE",
"802 22 LINE",
"802 1518 LINE",
"906 1518 LINE",
"906 1540 LINE",
"728 1540 LINE",
"466 166 LINE",
"476 166 LINE",
"256 1540 LINE",
"66 1540 LINE",
"66 1518 LINE",
"166 1518 LINE",
"166 22 LINE",
"66 22 LINE",
"66 0 LINE"
);
}
);
width = 970;
},
{
anchors = (
{
name = bottom;
position = "{616, 0}";
},
{
name = top;
position = "{616, 1540}";
}
);
layerId = "A4F0BE09-87B8-499B-8BA0-E8BD95093B86";
paths = (
{
closed = 1;
nodes = (
"264 0 LINE",
"264 22 LINE",
"168 22 LINE",
"168 1504 LINE",
"154 1506 LINE",
"398 0 LINE",
"458 0 LINE",
"712 1484 LINE",
"696 1484 LINE",
"696 22 LINE",
"618 22 LINE",
"618 0 LINE",
"1130 0 LINE",
"1130 22 LINE",
"1026 22 LINE",
"1026 1518 LINE",
"1130 1518 LINE",
"1130 1540 LINE",
"696 1540 LINE",
"584 876 LINE",
"598 876 LINE",
"498 1540 LINE",
"44 1540 LINE",
"44 1518 LINE",
"146 1518 LINE",
"146 22 LINE",
"44 22 LINE",
"44 0 LINE"
);
}
);
width = 1173;
},
{
anchors = (
{
name = bottom;
position = "{560, 0}";
},
{
name = top;
position = "{560, 1540}";
}
);
layerId = "2224527B-843E-45D0-ACBE-AC9678FC6685";
paths = (
{
closed = 1;
nodes = (
"328 0 LINE",
"328 66 LINE",
"220 66 LINE",
"220 1474 LINE",
"218 1474 LINE",
"452 74 LINE",
"542 74 LINE",
"782 1492 LINE",
"780 1492 LINE",
"780 66 LINE",
"680 66 LINE",
"680 0 LINE",
"948 0 LINE",
"948 66 LINE",
"846 66 LINE",
"846 1474 LINE",
"934 1474 LINE",
"934 1540 LINE",
"722 1540 LINE",
"494 142 LINE",
"500 142 LINE",
"278 1540 LINE",
"64 1540 LINE",
"64 1474 LINE",
"154 1474 LINE",
"154 66 LINE",
"54 66 LINE",
"54 0 LINE"
);
}
);
width = 990;
},
{
anchors = (
{
name = bottom;
position = "{654, 0}";
},
{
name = top;
position = "{654, 1540}";
}
);
layerId = "42FCB8D3-5141-4304-9365-2E27830BD286";
paths = (
{
closed = 1;
nodes = (
"290 0 LINE",
"290 88 LINE",
"208 88 LINE",
"208 1490 LINE",
"174 1490 LINE",
"428 88 LINE",
"510 88 LINE",
"818 1418 LINE",
"780 1418 LINE",
"780 88 LINE",
"670 88 LINE",
"670 0 LINE",
"1214 0 LINE",
"1214 88 LINE",
"1110 88 LINE",
"1110 1452 LINE",
"1214 1452 LINE",
"1214 1540 LINE",
"750 1540 LINE",
"590 876 LINE",
"636 876 LINE",
"524 1540 LINE",
"18 1540 LINE",
"18 1452 LINE",
"120 1452 LINE",
"120 88 LINE",
"18 88 LINE",
"18 0 LINE"
);
}
);
width = 1233;
}
);
leftKerningGroup = H;
rightKerningGroup = H;
unicode = 004D;
},
{
glyphname = N;
lastChange = "2020-01-14 17:56:03 +0000";
layers = (
{
anchors = (
{
name = bottom;
position = "{420, 0}";
},
{
name = top;
position = "{420, 1540}";
}
);
layerId = "798A1B98-D718-4469-8D5D-1F04921BF637";
paths = (
{
closed = 1;
nodes = (
"308 0 LINE",
"308 22 LINE",
"188 22 LINE",
"188 1510 LINE",
"186 1510 LINE",
"628 0 LINE",
"658 0 LINE",
"658 1518 LINE",
"754 1518 LINE",
"754 1540 LINE",
"530 1540 LINE",
"530 1518 LINE",
"634 1518 LINE",
"634 170 LINE",
"642 170 LINE",
"244 1540 LINE",
"64 1540 LINE",
"64 1518 LINE",
"164 1518 LINE",
"164 22 LINE",
"64 22 LINE",
"64 0 LINE"
);
}
);
width = 820;
},
{
anchors = (
{
name = bottom;
position = "{454, 0}";
},
{
name = top;
position = "{454, 1540}";
}
);
layerId = "A4F0BE09-87B8-499B-8BA0-E8BD95093B86";
paths = (
{
closed = 1;
nodes = (
"256 0 LINE",
"256 22 LINE",
"158 22 LINE",
"158 1356 LINE",
"136 1356 LINE",
"672 0 LINE",
"760 0 LINE",
"760 1518 LINE",
"856 1518 LINE",
"856 1540 LINE",
"638 1540 LINE",
"638 1518 LINE",
"736 1518 LINE",
"736 756 LINE",
"752 756 LINE",
"440 1540 LINE",
"34 1540 LINE",
"34 1518 LINE",
"134 1518 LINE",
"134 22 LINE",
"34 22 LINE",
"34 0 LINE"
);
}
);
width = 889;
},
{
anchors = (
{
name = bottom;
position = "{416, 0}";
},
{
name = top;
position = "{416, 1540}";
}
);
layerId = "2224527B-843E-45D0-ACBE-AC9678FC6685";
paths = (
{
closed = 1;
nodes = (
"326 0 LINE",
"326 66 LINE",
"208 66 LINE",
"208 1460 LINE",
"206 1460 LINE",
"596 0 LINE",
"704 0 LINE",
"704 1474 LINE",
"802 1474 LINE",
"802 1540 LINE",
"534 1540 LINE",
"534 1474 LINE",
"636 1474 LINE",
"636 136 LINE",
"638 136 LINE",
"254 1540 LINE",
"38 1540 LINE",
"38 1474 LINE",
"140 1474 LINE",
"140 66 LINE",
"38 66 LINE",
"38 0 LINE"
);
}
);
width = 840;
},
{
anchors = (
{
name = bottom;
position = "{484, 0}";
},
{
name = top;
position = "{484, 1540}";
}
);
layerId = "42FCB8D3-5141-4304-9365-2E27830BD286";
paths = (
{
closed = 1;
nodes = (
"318 0 LINE",
"318 88 LINE",
"222 88 LINE",
"222 1356 LINE",
"200 1356 LINE",
"668 0 LINE",
"822 0 LINE",
"822 1452 LINE",
"920 1452 LINE",
"920 1540 LINE",
"636 1540 LINE",
"636 1452 LINE",
"732 1452 LINE",
"732 756 LINE",
"782 756 LINE",
"504 1540 LINE",
"30 1540 LINE",
"30 1452 LINE",
"132 1452 LINE",
"132 88 LINE",
"30 88 LINE",
"30 0 LINE"
);
}
);
width = 949;
}
);
leftKerningGroup = H;
rightKerningGroup = H;
unicode = 004E;
},
{
glyphname = Eng;
lastChange = "2020-01-14 18:26:31 +0000";
layers = (
{
components = (
{
name = N;
}
);
layerId = "798A1B98-D718-4469-8D5D-1F04921BF637";
paths = (
{
closed = 1;
nodes = (
"562 -430 OFFCURVE",
"658 -374 OFFCURVE",
"658 -8 CURVE SMOOTH",
"658 154 LINE",
"630 154 LINE",
"630 -48 LINE SMOOTH",
"630 -244 OFFCURVE",
"590 -406 OFFCURVE",
"504 -406 CURVE SMOOTH",
"444 -406 OFFCURVE",
"428 -338 OFFCURVE",
"428 -282 CURVE SMOOTH",
"428 -212 OFFCURVE",
"440 -192 OFFCURVE",
"440 -152 CURVE SMOOTH",
"440 -104 OFFCURVE",
"430 -88 OFFCURVE",
"408 -88 CURVE SMOOTH",
"386 -88 OFFCURVE",
"374 -104 OFFCURVE",
"374 -164 CURVE SMOOTH",
"374 -304 OFFCURVE",
"418 -430 OFFCURVE",
"502 -430 CURVE SMOOTH"
);
}
);
width = 820;
},
{
components = (
{
name = N;
}
);
layerId = "A4F0BE09-87B8-499B-8BA0-E8BD95093B86";
paths = (
{
closed = 1;
nodes = (
"760 -434 OFFCURVE",
"760 -276 OFFCURVE",
"760 -172 CURVE SMOOTH",
"760 0 LINE",
"734 0 LINE",
"734 -174 LINE SMOOTH",
"734 -264 OFFCURVE",
"728 -412 OFFCURVE",
"648 -412 CURVE SMOOTH",
"616 -412 OFFCURVE",
"598 -394 OFFCURVE",
"598 -362 CURVE SMOOTH",
"598 -318 OFFCURVE",
"634 -252 OFFCURVE",
"634 -184 CURVE SMOOTH",
"634 -108 OFFCURVE",
"586 -82 OFFCURVE",
"538 -82 CURVE SMOOTH",
"474 -82 OFFCURVE",
"418 -130 OFFCURVE",
"418 -216 CURVE SMOOTH",
"418 -352 OFFCURVE",
"546 -434 OFFCURVE",
"646 -434 CURVE SMOOTH"
);
}
);
width = 889;
},
{
components = (
{
name = N;
}
);
layerId = "2224527B-843E-45D0-ACBE-AC9678FC6685";
paths = (
{
closed = 1;
nodes = (
"566 -430 OFFCURVE",
"704 -374 OFFCURVE",
"704 -8 CURVE SMOOTH",
"704 154 LINE",
"634 154 LINE",
"634 -48 LINE SMOOTH",
"634 -244 OFFCURVE",
"590 -364 OFFCURVE",
"504 -364 CURVE SMOOTH",
"468 -364 OFFCURVE",
"446 -316 OFFCURVE",
"446 -260 CURVE SMOOTH",
"446 -190 OFFCURVE",
"460 -192 OFFCURVE",
"460 -152 CURVE SMOOTH",
"460 -104 OFFCURVE",
"440 -88 OFFCURVE",
"418 -88 CURVE SMOOTH",
"396 -88 OFFCURVE",
"376 -104 OFFCURVE",
"376 -164 CURVE SMOOTH",
"376 -304 OFFCURVE",
"398 -430 OFFCURVE",
"504 -430 CURVE SMOOTH"
);
}
);
width = 840;
},
{
components = (
{
name = N;
}
);
layerId = "42FCB8D3-5141-4304-9365-2E27830BD286";
paths = (
{
closed = 1;
nodes = (
"786 -434 OFFCURVE",
"822 -286 OFFCURVE",
"822 -172 CURVE SMOOTH",
"822 0 LINE",
"730 0 LINE",
"730 -174 LINE SMOOTH",
"730 -264 OFFCURVE",
"704 -346 OFFCURVE",
"644 -346 CURVE SMOOTH",
"614 -346 OFFCURVE",
"596 -328 OFFCURVE",
"596 -298 CURVE SMOOTH",
"596 -262 OFFCURVE",
"632 -244 OFFCURVE",
"632 -184 CURVE SMOOTH",
"632 -108 OFFCURVE",
"582 -82 OFFCURVE",
"534 -82 CURVE SMOOTH",
"470 -82 OFFCURVE",
"416 -130 OFFCURVE",
"416 -216 CURVE SMOOTH",
"416 -352 OFFCURVE",
"544 -434 OFFCURVE",
"642 -434 CURVE SMOOTH"
);
}
);
width = 949;
}
);
leftKerningGroup = N;
leftMetricsKey = N;
rightKerningGroup = N;
rightMetricsKey = N;
unicode = 014A;
},
{
glyphname = O;
lastChange = "2020-02-11 16:19:44 +0000";
layers = (
{
anchors = (
{
name = bottom;
position = "{386, 0}";
},
{
name = center;
position = "{402, 770}";
},
{
name = ogonek;
position = "{486, 2}";
},
{
name = top;
position = "{386, 1540}";
},
{
name = topleft;
position = "{54, 1540}";
},
{
name = topright;
position = "{554, 1540}";
}
);
layerId = "798A1B98-D718-4469-8D5D-1F04921BF637";
paths = (
{
closed = 1;
nodes = (
"586 -24 OFFCURVE",
"684 318 OFFCURVE",
"684 768 CURVE SMOOTH",
"684 1220 OFFCURVE",
"586 1564 OFFCURVE",
"384 1564 CURVE SMOOTH",
"182 1564 OFFCURVE",
"88 1220 OFFCURVE",
"88 768 CURVE SMOOTH",
"88 318 OFFCURVE",
"182 -24 OFFCURVE",
"384 -24 CURVE SMOOTH"
);
},
{
closed = 1;
nodes = (
"216 -2 OFFCURVE",
"158 362 OFFCURVE",
"158 768 CURVE SMOOTH",
"158 1174 OFFCURVE",
"216 1542 OFFCURVE",
"384 1542 CURVE SMOOTH",
"554 1542 OFFCURVE",
"614 1174 OFFCURVE",
"614 768 CURVE SMOOTH",
"614 362 OFFCURVE",
"554 -2 OFFCURVE",
"384 -2 CURVE SMOOTH"
);
}
);
width = 770;
},
{
anchors = (
{
name = bottom;
position = "{484, 0}";
},
{
name = center;
position = "{498, 770}";
},
{
name = ogonek;
position = "{588, 0}";
},
{
name = top;
position = "{484, 1540}";
},
{
name = topleft;
position = "{30, 1540}";
},
{
name = topright;
position = "{722, 1540}";
}
);
layerId = "A4F0BE09-87B8-499B-8BA0-E8BD95093B86";
paths = (
{
closed = 1;
nodes = (
"718 -24 OFFCURVE",
"904 252 OFFCURVE",
"904 768 CURVE SMOOTH",
"904 1286 OFFCURVE",
"718 1564 OFFCURVE",
"484 1564 CURVE SMOOTH",
"252 1564 OFFCURVE",
"66 1286 OFFCURVE",
"66 768 CURVE SMOOTH",
"66 252 OFFCURVE",
"252 -24 OFFCURVE",
"484 -24 CURVE SMOOTH"
);
},
{
closed = 1;
nodes = (
"420 -2 OFFCURVE",
"420 274 OFFCURVE",
"420 768 CURVE SMOOTH",
"420 1262 OFFCURVE",
"420 1542 OFFCURVE",
"484 1542 CURVE SMOOTH",
"548 1542 OFFCURVE",
"550 1262 OFFCURVE",
"550 768 CURVE SMOOTH",
"550 274 OFFCURVE",
"548 -2 OFFCURVE",
"484 -2 CURVE SMOOTH"
);
}
);
width = 970;
},
{
anchors = (
{
name = bottom;
position = "{396, 0}";
},
{
name = center;
position = "{412, 770}";
},
{
name = ogonek;
position = "{496, 2}";
},
{
name = top;
position = "{396, 1540}";
},
{
name = topleft;
position = "{64, 1540}";
},
{
name = topright;
position = "{560, 1540}";
}
);
layerId = "2224527B-843E-45D0-ACBE-AC9678FC6685";
paths = (
{
closed = 1;
nodes = (
"596 -24 OFFCURVE",
"694 318 OFFCURVE",
"694 768 CURVE SMOOTH",
"694 1220 OFFCURVE",
"596 1564 OFFCURVE",
"394 1564 CURVE SMOOTH",
"192 1564 OFFCURVE",
"98 1220 OFFCURVE",
"98 768 CURVE SMOOTH",
"98 318 OFFCURVE",
"192 -24 OFFCURVE",
"394 -24 CURVE SMOOTH"
);
},
{
closed = 1;
nodes = (
"244 42 OFFCURVE",
"168 362 OFFCURVE",
"168 768 CURVE SMOOTH",
"168 1174 OFFCURVE",
"244 1498 OFFCURVE",
"394 1498 CURVE SMOOTH",
"544 1498 OFFCURVE",
"624 1174 OFFCURVE",
"624 768 CURVE SMOOTH",
"624 362 OFFCURVE",
"544 42 OFFCURVE",
"394 42 CURVE SMOOTH"
);
}
);
width = 790;
},
{
anchors = (
{
name = bottom;
position = "{514, 0}";
},
{
name = center;
position = "{528, 770}";
},
{
name = ogonek;
position = "{618, 0}";
},
{
name = top;
position = "{514, 1540}";
},
{
name = topleft;
position = "{60, 1540}";
},
{
name = topright;
position = "{741, 1540}";
}
);
layerId = "42FCB8D3-5141-4304-9365-2E27830BD286";
paths = (
{
closed = 1;
nodes = (
"760 -24 OFFCURVE",
"948 252 OFFCURVE",
"948 768 CURVE SMOOTH",
"948 1286 OFFCURVE",
"760 1564 OFFCURVE",
"514 1564 CURVE SMOOTH",
"268 1564 OFFCURVE",
"86 1286 OFFCURVE",
"86 768 CURVE SMOOTH",
"86 252 OFFCURVE",
"268 -24 OFFCURVE",
"514 -24 CURVE SMOOTH"
);
},
{
closed = 1;
nodes = (
"450 64 OFFCURVE",
"436 296 OFFCURVE",
"436 768 CURVE SMOOTH",
"436 1240 OFFCURVE",
"450 1476 OFFCURVE",
"514 1476 CURVE SMOOTH",
"580 1476 OFFCURVE",
"598 1240 OFFCURVE",
"598 768 CURVE SMOOTH",
"598 296 OFFCURVE",
"580 64 OFFCURVE",
"514 64 CURVE SMOOTH"
);
}
);
width = 1030;
}
);
leftKerningGroup = O;
rightKerningGroup = O;
unicode = 004F;
},
{
glyphname = OE;
lastChange = "2020-01-14 18:15:34 +0000";
layers = (
{
anchors = (
{
name = bottom;
position = "{532, 0}";
},
{
name = top;
position = "{532, 1540}";
}
);
layerId = "798A1B98-D718-4469-8D5D-1F04921BF637";
paths = (
{
closed = 1;
nodes = (
"470 -24 OFFCURVE",
"524 -8 OFFCURVE",
"554 30 CURVE",
"534 60 LINE",
"512 20 OFFCURVE",
"488 -2 OFFCURVE",
"402 -2 CURVE SMOOTH",
"232 -2 OFFCURVE",
"158 362 OFFCURVE",
"158 768 CURVE SMOOTH",
"158 1174 OFFCURVE",
"238 1542 OFFCURVE",
"406 1542 CURVE SMOOTH",
"446 1542 OFFCURVE",
"496 1532 OFFCURVE",
"528 1496 CURVE",
"538 1526 LINE",
"510 1554 OFFCURVE",
"448 1564 OFFCURVE",
"406 1564 CURVE SMOOTH",
"204 1564 OFFCURVE",
"88 1220 OFFCURVE",
"88 768 CURVE SMOOTH",
"88 318 OFFCURVE",
"200 -24 OFFCURVE",
"402 -24 CURVE SMOOTH"
);
},
{
closed = 1;
nodes = (
"942 0 LINE",
"942 272 LINE",
"920 272 LINE",
"920 92 OFFCURVE",
"908 22 OFFCURVE",
"740 22 CURVE SMOOTH",
"578 22 LINE",
"578 782 LINE",
"876 782 LINE",
"876 652 LINE",
"898 652 LINE",
"898 936 LINE",
"876 936 LINE",
"876 804 LINE",
"578 804 LINE",
"578 1518 LINE",
"752 1518 LINE SMOOTH",
"912 1518 OFFCURVE",
"920 1450 OFFCURVE",
"920 1272 CURVE",
"942 1272 LINE",
"942 1540 LINE",
"512 1540 LINE",
"512 0 LINE"
);
}
);
width = 1006;
},
{
anchors = (
{
name = bottom;
position = "{670, 0}";
},
{
name = top;
position = "{670, 1540}";
}
);
layerId = "A4F0BE09-87B8-499B-8BA0-E8BD95093B86";
paths = (
{
closed = 1;
nodes = (
"582 -24 OFFCURVE",
"664 26 OFFCURVE",
"722 128 CURVE",
"642 128 LINE",
"642 46 OFFCURVE",
"576 -2 OFFCURVE",
"506 -2 CURVE SMOOTH",
"424 -2 OFFCURVE",
"394 362 OFFCURVE",
"394 768 CURVE SMOOTH",
"394 1174 OFFCURVE",
"424 1538 OFFCURVE",
"506 1542 CURVE SMOOTH",
"562 1544 OFFCURVE",
"620 1512 OFFCURVE",
"638 1430 CURVE",
"714 1434 LINE",
"658 1520 OFFCURVE",
"576 1564 OFFCURVE",
"484 1564 CURVE SMOOTH",
"238 1564 OFFCURVE",
"66 1220 OFFCURVE",
"66 768 CURVE SMOOTH",
"66 318 OFFCURVE",
"238 -24 OFFCURVE",
"484 -24 CURVE SMOOTH"
);
},
{
closed = 1;
nodes = (
"1240 0 LINE",
"1240 404 LINE",
"1218 404 LINE",
"1218 224 OFFCURVE",
"1158 22 OFFCURVE",
"986 22 CURVE SMOOTH",
"922 22 LINE",
"922 782 LINE",
"1218 782 LINE",
"1218 652 LINE",
"1240 652 LINE",
"1240 936 LINE",
"1218 936 LINE",
"1218 804 LINE",
"922 804 LINE",
"922 1518 LINE",
"986 1518 LINE SMOOTH",
"1158 1518 OFFCURVE",
"1218 1318 OFFCURVE",
"1218 1140 CURVE",
"1240 1140 LINE",
"1240 1540 LINE",
"594 1540 LINE",
"594 0 LINE"
);
}
);
width = 1295;
},
{
anchors = (
{
name = bottom;
position = "{542, 0}";
},
{
name = top;
position = "{542, 1540}";
}
);
layerId = "2224527B-843E-45D0-ACBE-AC9678FC6685";
paths = (
{
closed = 1;
nodes = (
"480 -24 OFFCURVE",
"534 -8 OFFCURVE",
"564 30 CURVE",
"544 104 LINE",
"522 64 OFFCURVE",
"498 42 OFFCURVE",
"412 42 CURVE SMOOTH",
"242 42 OFFCURVE",
"168 406 OFFCURVE",
"168 768 CURVE SMOOTH",
"168 1130 OFFCURVE",
"248 1498 OFFCURVE",
"416 1498 CURVE SMOOTH",
"456 1498 OFFCURVE",
"506 1488 OFFCURVE",
"538 1452 CURVE",
"548 1526 LINE",
"520 1554 OFFCURVE",
"458 1564 OFFCURVE",
"416 1564 CURVE SMOOTH",
"214 1564 OFFCURVE",
"98 1220 OFFCURVE",
"98 768 CURVE SMOOTH",
"98 318 OFFCURVE",
"210 -24 OFFCURVE",
"412 -24 CURVE SMOOTH"
);
},
{
closed = 1;
nodes = (
"952 0 LINE",
"952 272 LINE",
"886 272 LINE",
"886 92 OFFCURVE",
"874 66 OFFCURVE",
"750 66 CURVE SMOOTH",
"588 66 LINE",
"588 760 LINE",
"842 760 LINE",
"842 652 LINE",
"908 652 LINE",
"908 936 LINE",
"842 936 LINE",
"842 826 LINE",
"588 826 LINE",
"588 1474 LINE",
"762 1474 LINE SMOOTH",
"878 1474 OFFCURVE",
"886 1450 OFFCURVE",
"886 1272 CURVE",
"952 1272 LINE",
"952 1540 LINE",
"522 1540 LINE",
"522 0 LINE"
);
}
);
width = 1038;
},
{
anchors = (
{
name = bottom;
position = "{690, 0}";
},
{
name = top;
position = "{690, 1540}";
}
);
layerId = "42FCB8D3-5141-4304-9365-2E27830BD286";
paths = (
{
closed = 1;
nodes = (
"602 -24 OFFCURVE",
"684 26 OFFCURVE",
"742 128 CURVE",
"662 194 LINE",
"662 146 OFFCURVE",
"596 64 OFFCURVE",
"558 64 CURVE SMOOTH",
"444 64 OFFCURVE",
"414 362 OFFCURVE",
"414 768 CURVE SMOOTH",
"414 1174 OFFCURVE",
"434 1476 OFFCURVE",
"558 1476 CURVE SMOOTH",
"582 1476 OFFCURVE",
"640 1446 OFFCURVE",
"658 1364 CURVE",
"734 1434 LINE",
"678 1520 OFFCURVE",
"596 1564 OFFCURVE",
"504 1564 CURVE SMOOTH",
"258 1564 OFFCURVE",
"86 1220 OFFCURVE",
"86 768 CURVE SMOOTH",
"86 318 OFFCURVE",
"258 -24 OFFCURVE",
"504 -24 CURVE SMOOTH"
);
},
{
closed = 1;
nodes = (
"1260 0 LINE",
"1260 404 LINE",
"1172 404 LINE",
"1172 224 OFFCURVE",
"1170 88 OFFCURVE",
"1006 88 CURVE SMOOTH",
"942 88 LINE",
"942 748 LINE",
"1172 748 LINE",
"1172 652 LINE",
"1260 652 LINE",
"1260 936 LINE",
"1172 936 LINE",
"1172 836 LINE",
"942 836 LINE",
"942 1452 LINE",
"1006 1452 LINE SMOOTH",
"1170 1452 OFFCURVE",
"1172 1318 OFFCURVE",
"1172 1140 CURVE",
"1260 1140 LINE",
"1260 1540 LINE",
"614 1540 LINE",
"614 0 LINE"
);
}
);
width = 1345;
}
);
leftKerningGroup = O;
leftMetricsKey = O;
rightKerningGroup = E;
rightMetricsKey = E;
unicode = 0152;
},
{
glyphname = P;
lastChange = "2020-01-14 18:56:55 +0000";
layers = (
{
anchors = (
{
name = bottom;
position = "{370, 0}";
},
{
name = top;
position = "{370, 1540}";
}
);
layerId = "798A1B98-D718-4469-8D5D-1F04921BF637";
paths = (
{
closed = 1;
nodes = (
"334 0 LINE",
"334 22 LINE",
"234 22 LINE",
"234 646 LINE",
"372 646 LINE SMOOTH",
"484 646 OFFCURVE",
"638 784 OFFCURVE",
"638 1116 CURVE SMOOTH",
"638 1440 OFFCURVE",
"488 1540 OFFCURVE",
"372 1540 CURVE SMOOTH",
"66 1540 LINE",
"66 1518 LINE",
"168 1518 LINE",
"168 22 LINE",
"66 22 LINE",
"66 0 LINE"
);
},
{
closed = 1;
nodes = (
"234 1518 LINE",
"362 1518 LINE SMOOTH",
"464 1518 OFFCURVE",
"568 1384 OFFCURVE",
"568 1118 CURVE SMOOTH",
"568 836 OFFCURVE",
"454 668 OFFCURVE",
"354 668 CURVE SMOOTH",
"234 668 LINE"
);
}
);
width = 682;
},
{
anchors = (
{
name = bottom;
position = "{494, 0}";
},
{
name = top;
position = "{494, 1540}";
}
);
layerId = "A4F0BE09-87B8-499B-8BA0-E8BD95093B86";
paths = (
{
closed = 1;
nodes = (
"564 0 LINE",
"564 22 LINE",
"464 22 LINE",
"464 646 LINE",
"560 646 LINE SMOOTH",
"716 646 OFFCURVE",
"924 784 OFFCURVE",
"924 1116 CURVE SMOOTH",
"924 1440 OFFCURVE",
"720 1540 OFFCURVE",
"560 1540 CURVE SMOOTH",
"34 1540 LINE",
"34 1518 LINE",
"136 1518 LINE",
"136 22 LINE",
"34 22 LINE",
"34 0 LINE"
);
},
{
closed = 1;
nodes = (
"464 1518 LINE",
"486 1518 LINE SMOOTH",
"544 1518 OFFCURVE",
"580 1396 OFFCURVE",
"580 1118 CURVE SMOOTH",
"580 824 OFFCURVE",
"534 668 OFFCURVE",
"478 668 CURVE SMOOTH",
"464 668 LINE"
);
}
);
width = 960;
},
{
anchors = (
{
name = bottom;
position = "{380, 0}";
},
{
name = top;
position = "{380, 1540}";
}
);
layerId = "2224527B-843E-45D0-ACBE-AC9678FC6685";
paths = (
{
closed = 1;
nodes = (
"357 0 LINE",
"357 66 LINE",
"244 66 LINE",
"244 624 LINE",
"382 624 LINE SMOOTH",
"494 624 OFFCURVE",
"648 784 OFFCURVE",
"648 1116 CURVE SMOOTH",
"648 1440 OFFCURVE",
"498 1540 OFFCURVE",
"382 1540 CURVE SMOOTH",
"64 1540 LINE",
"64 1474 LINE",
"178 1474 LINE",
"178 66 LINE",
"64 66 LINE",
"64 0 LINE"
);
},
{
closed = 1;
nodes = (
"244 1474 LINE",
"372 1474 LINE SMOOTH",
"474 1474 OFFCURVE",
"578 1384 OFFCURVE",
"578 1118 CURVE SMOOTH",
"578 836 OFFCURVE",
"464 690 OFFCURVE",
"364 690 CURVE SMOOTH",
"244 690 LINE"
);
}
);
width = 702;
},
{
anchors = (
{
name = bottom;
position = "{525, 0}";
},
{
name = top;
position = "{525, 1540}";
}
);
layerId = "42FCB8D3-5141-4304-9365-2E27830BD286";
paths = (
{
closed = 1;
nodes = (
"618 0 LINE",
"618 88 LINE",
"496 88 LINE",
"496 612 LINE",
"592 612 LINE SMOOTH",
"746 612 OFFCURVE",
"964 784 OFFCURVE",
"964 1116 CURVE SMOOTH",
"964 1440 OFFCURVE",
"750 1540 OFFCURVE",
"592 1540 CURVE SMOOTH",
"48 1540 LINE",
"48 1452 LINE",
"170 1452 LINE",
"170 88 LINE",
"48 88 LINE",
"48 0 LINE"
);
},
{
closed = 1;
nodes = (
"496 1452 LINE",
"523 1452 LINE SMOOTH",
"593 1452 OFFCURVE",
"620 1360 OFFCURVE",
"620 1116 CURVE SMOOTH",
"620 859 OFFCURVE",
"585 700 OFFCURVE",
"513 700 CURVE SMOOTH",
"496 700 LINE"
);
}
);
width = 1010;
}
);
leftKerningGroup = H;
rightKerningGroup = P;
unicode = 0050;
},
{
glyphname = Thorn;
lastChange = "2020-01-14 17:56:03 +0000";
layers = (
{
anchors = (
{
name = bottom;
position = "{376, 0}";
},
{
name = top;
position = "{376, 1540}";
}
);
components = (
{
name = I;
}
);
layerId = "798A1B98-D718-4469-8D5D-1F04921BF637";
paths = (
{
closed = 1;
nodes = (
"360 364 LINE SMOOTH",
"528 364 OFFCURVE",
"664 546 OFFCURVE",
"664 812 CURVE SMOOTH",
"664 1068 OFFCURVE",
"532 1232 OFFCURVE",
"374 1232 CURVE",
"230 1232 LINE",
"230 1210 LINE",
"356 1210 LINE",
"498 1210 OFFCURVE",
"592 1028 OFFCURVE",
"592 812 CURVE SMOOTH",
"592 582 OFFCURVE",
"492 386 OFFCURVE",
"334 386 CURVE",
"230 386 LINE",
"230 364 LINE"
);
}
);
width = 750;
},
{
anchors = (
{
name = bottom;
position = "{506, 0}";
},
{
name = top;
position = "{506, 1540}";
}
);
components = (
{
name = I;
}
);
layerId = "A4F0BE09-87B8-499B-8BA0-E8BD95093B86";
paths = (
{
closed = 1;
nodes = (
"614 364 LINE SMOOTH",
"826 364 OFFCURVE",
"958 544 OFFCURVE",
"958 810 CURVE SMOOTH",
"958 1066 OFFCURVE",
"830 1232 OFFCURVE",
"628 1232 CURVE",
"462 1232 LINE",
"462 1210 LINE",
"500 1210 LINE",
"576 1210 OFFCURVE",
"624 1006 OFFCURVE",
"624 812 CURVE SMOOTH",
"624 604 OFFCURVE",
"570 386 OFFCURVE",
"478 386 CURVE",
"462 386 LINE",
"462 364 LINE"
);
}
);
width = 1012;
},
{
anchors = (
{
name = bottom;
position = "{386, 0}";
},
{
name = top;
position = "{386, 1540}";
}
);
components = (
{
name = I;
}
);
layerId = "2224527B-843E-45D0-ACBE-AC9678FC6685";
paths = (
{
closed = 1;
nodes = (
"370 364 LINE SMOOTH",
"538 364 OFFCURVE",
"674 546 OFFCURVE",
"674 812 CURVE SMOOTH",
"674 1068 OFFCURVE",
"542 1232 OFFCURVE",
"384 1232 CURVE",
"240 1232 LINE",
"240 1166 LINE",
"366 1166 LINE",
"508 1166 OFFCURVE",
"602 1028 OFFCURVE",
"602 812 CURVE SMOOTH",
"602 582 OFFCURVE",
"502 430 OFFCURVE",
"344 430 CURVE",
"240 430 LINE",
"240 364 LINE"
);
}
);
width = 770;
},
{
anchors = (
{
name = bottom;
position = "{536, 0}";
},
{
name = top;
position = "{536, 1540}";
}
);
components = (
{
name = I;
}
);
layerId = "42FCB8D3-5141-4304-9365-2E27830BD286";
paths = (
{
closed = 1;
nodes = (
"644 364 LINE SMOOTH",
"856 364 OFFCURVE",
"988 544 OFFCURVE",
"988 810 CURVE SMOOTH",
"988 1066 OFFCURVE",
"860 1232 OFFCURVE",
"658 1232 CURVE",
"492 1232 LINE",
"492 1144 LINE",
"530 1144 LINE",
"606 1144 OFFCURVE",
"654 1006 OFFCURVE",
"654 812 CURVE SMOOTH",
"654 604 OFFCURVE",
"600 452 OFFCURVE",
"508 452 CURVE",
"492 452 LINE",
"492 364 LINE"
);
}
);
width = 1072;
}
);
leftKerningGroup = H;
rightKerningGroup = Thorn;
unicode = 00DE;
},
{
glyphname = Q;
lastChange = "2020-01-14 18:01:22 +0000";
layers = (
{
anchors = (
{
name = bottom;
position = "{402, 0}";
},
{
name = top;
position = "{402, 1540}";
}
);
components = (
{
name = O;
}
);
layerId = "798A1B98-D718-4469-8D5D-1F04921BF637";
paths = (
{
closed = 1;
nodes = (
"664 -332 OFFCURVE",
"684 -310 OFFCURVE",
"684 -252 CURVE SMOOTH",
"684 -70 OFFCURVE",
"626 42 OFFCURVE",
"542 42 CURVE SMOOTH",
"530 42 OFFCURVE",
"512 40 OFFCURVE",
"504 34 CURVE",
"476 4 LINE",
"498 16 OFFCURVE",
"518 20 OFFCURVE",
"534 20 CURVE SMOOTH",
"596 20 OFFCURVE",
"622 -42 OFFCURVE",
"622 -86 CURVE SMOOTH",
"622 -176 OFFCURVE",
"600 -214 OFFCURVE",
"600 -268 CURVE SMOOTH",
"600 -306 OFFCURVE",
"618 -332 OFFCURVE",
"640 -332 CURVE SMOOTH"
);
}
);
width = 770;
},
{
anchors = (
{
name = bottom;
position = "{508, 0}";
},
{
name = top;
position = "{508, 1540}";
}
);
components = (
{
name = O;
}
);
layerId = "A4F0BE09-87B8-499B-8BA0-E8BD95093B86";
paths = (
{
closed = 1;
nodes = (
"810 -412 OFFCURVE",
"868 -362 OFFCURVE",
"868 -244 CURVE SMOOTH",
"868 -78 OFFCURVE",
"804 36 OFFCURVE",
"672 36 CURVE SMOOTH",
"652 36 OFFCURVE",
"614 32 OFFCURVE",
"606 26 CURVE",
"596 0 LINE",
"608 4 OFFCURVE",
"630 8 OFFCURVE",
"646 8 CURVE SMOOTH",
"680 8 OFFCURVE",
"716 -8 OFFCURVE",
"716 -36 CURVE SMOOTH",
"716 -100 OFFCURVE",
"604 -152 OFFCURVE",
"604 -264 CURVE SMOOTH",
"604 -362 OFFCURVE",
"662 -412 OFFCURVE",
"736 -412 CURVE SMOOTH"
);
}
);
width = 970;
},
{
anchors = (
{
name = bottom;
position = "{412, 0}";
},
{
name = top;
position = "{412, 1540}";
}
);
components = (
{
name = O;
}
);
layerId = "2224527B-843E-45D0-ACBE-AC9678FC6685";
paths = (
{
closed = 1;
nodes = (
"692 -332 OFFCURVE",
"713 -292 OFFCURVE",
"713 -208 CURVE SMOOTH",
"713 -34 OFFCURVE",
"660 76 OFFCURVE",
"564 76 CURVE SMOOTH",
"528 76 OFFCURVE",
"520 68 OFFCURVE",
"514 60 CURVE",
"486 4 LINE",
"500 14 OFFCURVE",
"528 26 OFFCURVE",
"544 26 CURVE SMOOTH",
"606 26 OFFCURVE",
"632 -44 OFFCURVE",
"632 -88 CURVE SMOOTH",
"632 -178 OFFCURVE",
"608 -210 OFFCURVE",
"608 -264 CURVE SMOOTH",
"608 -302 OFFCURVE",
"626 -332 OFFCURVE",
"656 -332 CURVE SMOOTH"
);
}
);
width = 790;
},
{
anchors = (
{
name = bottom;
position = "{538, 0}";
},
{
name = top;
position = "{538, 1540}";
}
);
components = (
{
name = O;
}
);
layerId = "42FCB8D3-5141-4304-9365-2E27830BD286";
paths = (
{
closed = 1;
nodes = (
"840 -412 OFFCURVE",
"908 -352 OFFCURVE",
"908 -234 CURVE SMOOTH",
"908 -32 OFFCURVE",
"860 98 OFFCURVE",
"718 98 CURVE SMOOTH",
"696 98 OFFCURVE",
"644 90 OFFCURVE",
"636 84 CURVE",
"626 0 LINE",
"638 4 OFFCURVE",
"660 8 OFFCURVE",
"676 8 CURVE SMOOTH",
"710 8 OFFCURVE",
"738 -8 OFFCURVE",
"738 -36 CURVE SMOOTH",
"738 -100 OFFCURVE",
"634 -152 OFFCURVE",
"634 -264 CURVE SMOOTH",
"634 -362 OFFCURVE",
"692 -412 OFFCURVE",
"766 -412 CURVE SMOOTH"
);
}
);
width = 1030;
}
);
leftKerningGroup = O;
rightKerningGroup = O;
unicode = 0051;
},
{
glyphname = R;
lastChange = "2020-01-14 17:56:03 +0000";
layers = (
{
anchors = (
{
name = bottom;
position = "{384, 0}";
},
{
name = top;
position = "{384, 1540}";
}
);
layerId = "798A1B98-D718-4469-8D5D-1F04921BF637";
paths = (
{
closed = 1;
nodes = (
"692 -16 OFFCURVE",
"724 10 OFFCURVE",
"726 48 CURVE",
"706 48 LINE",
"704 32 OFFCURVE",
"692 20 OFFCURVE",
"680 20 CURVE SMOOTH",
"628 20 OFFCURVE",
"622 160 OFFCURVE",
"622 242 CURVE SMOOTH",
"622 318 OFFCURVE",
"626 398 OFFCURVE",
"626 474 CURVE SMOOTH",
"626 656 OFFCURVE",
"594 794 OFFCURVE",
"406 794 CURVE",
"530 802 OFFCURVE",
"646 924 OFFCURVE",
"646 1182 CURVE SMOOTH",
"646 1434 OFFCURVE",
"542 1540 OFFCURVE",
"382 1540 CURVE SMOOTH",
"66 1540 LINE",
"66 1518 LINE",
"168 1518 LINE",
"168 22 LINE",
"66 22 LINE",
"66 0 LINE",
"336 0 LINE",
"336 22 LINE",
"234 22 LINE",
"234 782 LINE",
"312 782 LINE SMOOTH",
"506 782 OFFCURVE",
"564 718 OFFCURVE",
"564 528 CURVE SMOOTH",
"564 438 OFFCURVE",
"554 326 OFFCURVE",
"554 224 CURVE SMOOTH",
"554 116 OFFCURVE",
"570 -16 OFFCURVE",
"656 -16 CURVE SMOOTH"
);
},
{
closed = 1;
nodes = (
"234 1518 LINE",
"366 1518 LINE SMOOTH",
"556 1518 OFFCURVE",
"578 1356 OFFCURVE",
"578 1178 CURVE SMOOTH",
"578 984 OFFCURVE",
"528 804 OFFCURVE",
"350 804 CURVE SMOOTH",
"234 804 LINE"
);
}
);
width = 766;
},
{
anchors = (
{
name = bottom;
position = "{522, 0}";
},
{
name = top;
position = "{522, 1540}";
}
);
layerId = "A4F0BE09-87B8-499B-8BA0-E8BD95093B86";
paths = (
{
closed = 1;
nodes = (
"920 -20 OFFCURVE",
"1020 0 OFFCURVE",
"1028 60 CURVE",
"1006 60 LINE",
"1004 46 OFFCURVE",
"992 34 OFFCURVE",
"976 34 CURVE SMOOTH",
"938 34 OFFCURVE",
"928 116 OFFCURVE",
"928 210 CURVE SMOOTH",
"928 254 OFFCURVE",
"932 304 OFFCURVE",
"932 354 CURVE SMOOTH",
"932 658 OFFCURVE",
"886 776 OFFCURVE",
"572 794 CURVE",
"722 818 OFFCURVE",
"946 902 OFFCURVE",
"946 1182 CURVE SMOOTH",
"946 1434 OFFCURVE",
"774 1540 OFFCURVE",
"570 1540 CURVE SMOOTH",
"34 1540 LINE",
"34 1518 LINE",
"136 1518 LINE",
"136 22 LINE",
"34 22 LINE",
"34 0 LINE",
"561 0 LINE",
"561 22 LINE",
"464 22 LINE",
"464 782 LINE",
"502 782 LINE SMOOTH",
"588 782 OFFCURVE",
"604 698 OFFCURVE",
"604 568 CURVE SMOOTH",
"604 486 OFFCURVE",
"590 390 OFFCURVE",
"590 294 CURVE SMOOTH",
"590 96 OFFCURVE",
"642 -20 OFFCURVE",
"858 -20 CURVE SMOOTH"
);
},
{
closed = 1;
nodes = (
"464 1518 LINE",
"497 1518 LINE SMOOTH",
"563 1518 OFFCURVE",
"598 1406 OFFCURVE",
"598 1178 CURVE SMOOTH",
"598 934 OFFCURVE",
"567 804 OFFCURVE",
"499 804 CURVE SMOOTH",
"464 804 LINE"
);
}
);
width = 1041;
},
{
anchors = (
{
name = bottom;
position = "{394, 0}";
},
{
name = top;
position = "{394, 1540}";
}
);
layerId = "2224527B-843E-45D0-ACBE-AC9678FC6685";
paths = (
{
closed = 1;
nodes = (
"706 -16 OFFCURVE",
"758 16 OFFCURVE",
"758 78 CURVE",
"698 78 LINE",
"698 58 OFFCURVE",
"684 40 OFFCURVE",
"674 40 CURVE SMOOTH",
"638 40 OFFCURVE",
"632 162 OFFCURVE",
"632 242 CURVE SMOOTH",
"632 316 OFFCURVE",
"636 394 OFFCURVE",
"636 464 CURVE SMOOTH",
"636 664 OFFCURVE",
"606 794 OFFCURVE",
"438 794 CURVE",
"562 802 OFFCURVE",
"656 924 OFFCURVE",
"656 1182 CURVE SMOOTH",
"656 1434 OFFCURVE",
"552 1540 OFFCURVE",
"392 1540 CURVE SMOOTH",
"76 1540 LINE",
"76 1474 LINE",
"178 1474 LINE",
"178 66 LINE",
"76 66 LINE",
"76 0 LINE",
"346 0 LINE",
"346 66 LINE",
"244 66 LINE",
"244 760 LINE",
"322 760 LINE SMOOTH",
"536 760 OFFCURVE",
"566 704 OFFCURVE",
"566 452 CURVE SMOOTH",
"566 374 OFFCURVE",
"562 294 OFFCURVE",
"562 220 CURVE SMOOTH",
"562 94 OFFCURVE",
"574 -16 OFFCURVE",
"670 -16 CURVE SMOOTH"
);
},
{
closed = 1;
nodes = (
"244 1474 LINE",
"376 1474 LINE SMOOTH",
"552 1474 OFFCURVE",
"588 1356 OFFCURVE",
"588 1178 CURVE SMOOTH",
"588 984 OFFCURVE",
"524 826 OFFCURVE",
"360 826 CURVE SMOOTH",
"244 826 LINE"
);
}
);
width = 786;
},
{
anchors = (
{
name = bottom;
position = "{554, 0}";
},
{
name = top;
position = "{554, 1540}";
}
);
layerId = "42FCB8D3-5141-4304-9365-2E27830BD286";
paths = (
{
closed = 1;
nodes = (
"1018 -20 OFFCURVE",
"1084 22 OFFCURVE",
"1100 126 CURVE",
"1018 126 LINE",
"1016 108 OFFCURVE",
"1010 90 OFFCURVE",
"990 90 CURVE SMOOTH",
"962 90 OFFCURVE",
"958 156 OFFCURVE",
"958 210 CURVE SMOOTH",
"958 274 OFFCURVE",
"966 354 OFFCURVE",
"966 434 CURVE SMOOTH",
"966 696 OFFCURVE",
"894 780 OFFCURVE",
"638 794 CURVE",
"778 816 OFFCURVE",
"972 932 OFFCURVE",
"972 1182 CURVE SMOOTH",
"972 1434 OFFCURVE",
"804 1540 OFFCURVE",
"602 1540 CURVE SMOOTH",
"48 1540 LINE",
"48 1452 LINE",
"170 1452 LINE",
"170 88 LINE",
"48 88 LINE",
"48 0 LINE",
"612 0 LINE",
"612 88 LINE",
"496 88 LINE",
"496 748 LINE",
"534 748 LINE SMOOTH",
"606 748 OFFCURVE",
"636 716 OFFCURVE",
"636 570 CURVE SMOOTH",
"636 534 OFFCURVE",
"632 460 OFFCURVE",
"632 382 CURVE SMOOTH",
"632 144 OFFCURVE",
"652 -20 OFFCURVE",
"890 -20 CURVE SMOOTH"
);
},
{
closed = 1;
nodes = (
"496 1452 LINE",
"532 1452 LINE SMOOTH",
"596 1452 OFFCURVE",
"640 1358 OFFCURVE",
"640 1178 CURVE SMOOTH",
"640 988 OFFCURVE",
"602 836 OFFCURVE",
"534 836 CURVE SMOOTH",
"496 836 LINE"
);
}
);
width = 1101;
}
);
leftKerningGroup = H;
rightKerningGroup = R;
unicode = 0052;
},
{
glyphname = S;
lastChange = "2020-02-11 16:19:31 +0000";
layers = (
{
anchors = (
{
name = bottom;
position = "{328, 0}";
},
{
name = top;
position = "{306, 1540}";
}
);
layerId = "798A1B98-D718-4469-8D5D-1F04921BF637";
paths = (
{
closed = 1;
nodes = (
"481 -30 OFFCURVE",
"542 150 OFFCURVE",
"542 318 CURVE SMOOTH",
"542 516 OFFCURVE",
"422 700 OFFCURVE",
"306 868 CURVE SMOOTH",
"160 1076 OFFCURVE",
"132 1200 OFFCURVE",
"132 1312 CURVE SMOOTH",
"132 1472 OFFCURVE",
"218 1540 OFFCURVE",
"300 1540 CURVE SMOOTH",
"422 1540 OFFCURVE",
"466 1402 OFFCURVE",
"474 1248 CURVE",
"496 1248 LINE",
"496 1540 LINE",
"476 1540 LINE",
"474 1516 OFFCURVE",
"470 1510 OFFCURVE",
"460 1510 CURVE SMOOTH",
"440 1510 OFFCURVE",
"392 1564 OFFCURVE",
"294 1564 CURVE SMOOTH",
"166 1564 OFFCURVE",
"76 1450 OFFCURVE",
"76 1274 CURVE SMOOTH",
"76 1150 OFFCURVE",
"112 1030 OFFCURVE",
"272 792 CURVE SMOOTH",
"366 652 OFFCURVE",
"484 456 OFFCURVE",
"484 284 CURVE SMOOTH",
"484 156 OFFCURVE",
"465 -4 OFFCURVE",
"303 -4 CURVE SMOOTH",
"199 -4 OFFCURVE",
"111 132 OFFCURVE",
"103 294 CURVE",
"81 294 LINE",
"81 0 LINE",
"101 0 LINE",
"101 30 OFFCURVE",
"107 38 OFFCURVE",
"119 38 CURVE SMOOTH",
"147 38 OFFCURVE",
"213 -30 OFFCURVE",
"305 -30 CURVE SMOOTH"
);
}
);
width = 596;
},
{
anchors = (
{
name = bottom;
position = "{406, 0}";
},
{
name = top;
position = "{388, 1540}";
}
);
layerId = "A4F0BE09-87B8-499B-8BA0-E8BD95093B86";
paths = (
{
closed = 1;
nodes = (
"484 -30 OFFCURVE",
"720 44 OFFCURVE",
"720 386 CURVE SMOOTH",
"720 584 OFFCURVE",
"650 738 OFFCURVE",
"500 910 CURVE SMOOTH",
"349 1083 OFFCURVE",
"253 1194 OFFCURVE",
"253 1362 CURVE SMOOTH",
"253 1492 OFFCURVE",
"288 1540 OFFCURVE",
"360 1540 CURVE SMOOTH",
"516 1540 OFFCURVE",
"616 1218 OFFCURVE",
"624 1138 CURVE",
"646 1138 LINE",
"646 1540 LINE",
"626 1540 LINE",
"626 1512 OFFCURVE",
"616 1504 OFFCURVE",
"594 1504 CURVE SMOOTH",
"554 1504 OFFCURVE",
"464 1564 OFFCURVE",
"364 1564 CURVE SMOOTH",
"224 1564 OFFCURVE",
"43 1451 OFFCURVE",
"43 1151 CURVE SMOOTH",
"43 979 OFFCURVE",
"100 828 OFFCURVE",
"264 614 CURVE SMOOTH",
"404 432 OFFCURVE",
"502 298 OFFCURVE",
"502 168 CURVE SMOOTH",
"502 41 OFFCURVE",
"450 -4 OFFCURVE",
"372 -4 CURVE SMOOTH",
"194 -4 OFFCURVE",
"84 342 OFFCURVE",
"80 404 CURVE",
"58 404 LINE",
"58 0 LINE",
"78 0 LINE",
"78 30 OFFCURVE",
"86 38 OFFCURVE",
"102 38 CURVE SMOOTH",
"142 38 OFFCURVE",
"232 -30 OFFCURVE",
"370 -30 CURVE SMOOTH"
);
}
);
width = 763;
},
{
anchors = (
{
name = bottom;
position = "{340, 0}";
},
{
name = top;
position = "{316, 1540}";
}
);
layerId = "2224527B-843E-45D0-ACBE-AC9678FC6685";
paths = (
{
closed = 1;
nodes = (
"498 -30 OFFCURVE",
"556 104 OFFCURVE",
"556 306 CURVE SMOOTH",
"556 504 OFFCURVE",
"432 700 OFFCURVE",
"316 868 CURVE SMOOTH",
"170 1076 OFFCURVE",
"160 1166 OFFCURVE",
"160 1296 CURVE SMOOTH",
"160 1424 OFFCURVE",
"216 1496 OFFCURVE",
"306 1496 CURVE SMOOTH",
"406 1496 OFFCURVE",
"456 1382 OFFCURVE",
"462 1248 CURVE",
"528 1248 LINE",
"528 1540 LINE",
"464 1540 LINE",
"464 1516 OFFCURVE",
"460 1498 OFFCURVE",
"450 1498 CURVE SMOOTH",
"436 1498 OFFCURVE",
"402 1564 OFFCURVE",
"304 1564 CURVE SMOOTH",
"176 1564 OFFCURVE",
"86 1450 OFFCURVE",
"86 1274 CURVE SMOOTH",
"86 1152 OFFCURVE",
"124 1006 OFFCURVE",
"282 786 CURVE SMOOTH",
"382 650 OFFCURVE",
"482 478 OFFCURVE",
"482 312 CURVE SMOOTH",
"482 156 OFFCURVE",
"460 40 OFFCURVE",
"336 40 CURVE SMOOTH",
"225 40 OFFCURVE",
"155 164 OFFCURVE",
"147 294 CURVE",
"81 294 LINE",
"81 0 LINE",
"145 0 LINE",
"145 36 OFFCURVE",
"151 48 OFFCURVE",
"165 48 CURVE SMOOTH",
"183 48 OFFCURVE",
"235 -30 OFFCURVE",
"332 -30 CURVE SMOOTH"
);
}
);
width = 616;
},
{
anchors = (
{
name = bottom;
position = "{436, 0}";
},
{
name = top;
position = "{418, 1540}";
}
);
layerId = "42FCB8D3-5141-4304-9365-2E27830BD286";
paths = (
{
closed = 1;
nodes = (
"564 -30 OFFCURVE",
"750 44 OFFCURVE",
"750 386 CURVE SMOOTH",
"750 584 OFFCURVE",
"694 732 OFFCURVE",
"530 910 CURVE SMOOTH",
"382 1071 OFFCURVE",
"278 1222 OFFCURVE",
"278 1328 CURVE SMOOTH",
"278 1418 OFFCURVE",
"316 1474 OFFCURVE",
"390 1474 CURVE SMOOTH",
"546 1474 OFFCURVE",
"614 1218 OFFCURVE",
"620 1138 CURVE",
"708 1138 LINE",
"708 1540 LINE",
"622 1540 LINE",
"621 1491 OFFCURVE",
"610 1478 OFFCURVE",
"590 1478 CURVE SMOOTH",
"548 1478 OFFCURVE",
"526 1564 OFFCURVE",
"384 1564 CURVE SMOOTH",
"228 1564 OFFCURVE",
"74 1432 OFFCURVE",
"74 1172 CURVE SMOOTH",
"74 996 OFFCURVE",
"118 835 OFFCURVE",
"294 614 CURVE SMOOTH",
"441 430 OFFCURVE",
"532 312 OFFCURVE",
"532 190 CURVE SMOOTH",
"532 100 OFFCURVE",
"500 62 OFFCURVE",
"422 62 CURVE SMOOTH",
"244 62 OFFCURVE",
"166 342 OFFCURVE",
"162 404 CURVE",
"74 404 LINE",
"74 0 LINE",
"160 0 LINE",
"160 44 OFFCURVE",
"170 66 OFFCURVE",
"194 66 CURVE SMOOTH",
"240 66 OFFCURVE",
"248 -30 OFFCURVE",
"426 -30 CURVE SMOOTH"
);
}
);
width = 823;
}
);
leftKerningGroup = S;
rightKerningGroup = S;
unicode = 0053;
},
{
glyphname = Germandbls;
lastChange = "2020-01-14 18:58:32 +0000";
layers = (
{
layerId = "798A1B98-D718-4469-8D5D-1F04921BF637";
paths = (
{
closed = 1;
nodes = (
"644 -26 OFFCURVE",
"728 114 OFFCURVE",
"728 342 CURVE SMOOTH",
"728 650 OFFCURVE",
"404 920 OFFCURVE",
"404 994 CURVE SMOOTH",
"404 1052 OFFCURVE",
"623 1376 OFFCURVE",
"758 1548 CURVE",
"742 1566 LINE",
"406 1566 LINE",
"242 1566 OFFCURVE",
"172 1517 OFFCURVE",
"172 1235 CURVE SMOOTH",
"172 22 LINE",
"66 22 LINE",
"66 0 LINE",
"236 0 LINE",
"236 1277 LINE SMOOTH",
"236 1447 OFFCURVE",
"280 1548 OFFCURVE",
"410 1548 CURVE",
"735 1548 LINE",
"616 1390 OFFCURVE",
"368 1045 OFFCURVE",
"368 977 CURVE SMOOTH",
"368 855 OFFCURVE",
"674 632 OFFCURVE",
"674 338 CURVE SMOOTH",
"674 128 OFFCURVE",
"626 -8 OFFCURVE",
"502 -8 CURVE SMOOTH",
"468 -8 OFFCURVE",
"448 2 OFFCURVE",
"448 20 CURVE SMOOTH",
"448 42 OFFCURVE",
"480 66 OFFCURVE",
"480 102 CURVE SMOOTH",
"480 142 OFFCURVE",
"458 156 OFFCURVE",
"432 156 CURVE SMOOTH",
"408 156 OFFCURVE",
"388 134 OFFCURVE",
"388 96 CURVE SMOOTH",
"388 16 OFFCURVE",
"430 -26 OFFCURVE",
"510 -26 CURVE SMOOTH"
);
}
);
width = 812;
},
{
layerId = "A4F0BE09-87B8-499B-8BA0-E8BD95093B86";
paths = (
{
closed = 1;
nodes = (
"840 -24 OFFCURVE",
"1008 80 OFFCURVE",
"1008 354 CURVE SMOOTH",
"1008 731 OFFCURVE",
"576 808 OFFCURVE",
"576 972 CURVE SMOOTH",
"576 1078 OFFCURVE",
"851 1386 OFFCURVE",
"1018 1540 CURVE",
"1001 1566 LINE",
"562 1566 LINE",
"292 1566 OFFCURVE",
"88 1344 OFFCURVE",
"88 1002 CURVE SMOOTH",
"88 22 LINE",
"26 22 LINE",
"26 0 LINE",
"434 0 LINE",
"434 1118 LINE SMOOTH",
"434 1342 OFFCURVE",
"435 1544 OFFCURVE",
"576 1544 CURVE",
"983 1544 LINE",
"840 1421 OFFCURVE",
"504 1076 OFFCURVE",
"504 922 CURVE SMOOTH",
"504 703 OFFCURVE",
"746 600 OFFCURVE",
"746 230 CURVE SMOOTH",
"746 114 OFFCURVE",
"730 -4 OFFCURVE",
"660 -4 CURVE SMOOTH",
"630 -4 OFFCURVE",
"608 4 OFFCURVE",
"608 36 CURVE SMOOTH",
"608 96 OFFCURVE",
"676 126 OFFCURVE",
"676 202 CURVE SMOOTH",
"676 262 OFFCURVE",
"644 304 OFFCURVE",
"588 304 CURVE SMOOTH",
"524 304 OFFCURVE",
"486 244 OFFCURVE",
"486 160 CURVE SMOOTH",
"486 38 OFFCURVE",
"580 -24 OFFCURVE",
"668 -24 CURVE SMOOTH"
);
}
);
width = 1061;
},
{
layerId = "2224527B-843E-45D0-ACBE-AC9678FC6685";
paths = (
{
closed = 1;
nodes = (
"644 -26 OFFCURVE",
"738 114 OFFCURVE",
"738 342 CURVE SMOOTH",
"738 650 OFFCURVE",
"434 919 OFFCURVE",
"434 993 CURVE SMOOTH",
"434 1051 OFFCURVE",
"640 1336 OFFCURVE",
"768 1508 CURVE",
"728 1566 LINE",
"426 1566 LINE",
"262 1566 OFFCURVE",
"182 1517 OFFCURVE",
"182 1235 CURVE SMOOTH",
"182 67 LINE",
"66 67 LINE",
"66 0 LINE",
"246 0 LINE",
"246 1247 LINE SMOOTH",
"246 1448 OFFCURVE",
"290 1508 OFFCURVE",
"420 1508 CURVE",
"695 1508 LINE",
"576 1350 OFFCURVE",
"368 1065 OFFCURVE",
"368 987 CURVE SMOOTH",
"368 865 OFFCURVE",
"674 632 OFFCURVE",
"674 338 CURVE SMOOTH",
"674 138 OFFCURVE",
"606 36 OFFCURVE",
"512 36 CURVE SMOOTH",
"478 36 OFFCURVE",
"471 59 OFFCURVE",
"471 77 CURVE SMOOTH",
"471 99 OFFCURVE",
"490 110 OFFCURVE",
"490 146 CURVE SMOOTH",
"490 186 OFFCURVE",
"468 200 OFFCURVE",
"442 200 CURVE SMOOTH",
"418 200 OFFCURVE",
"392 185 OFFCURVE",
"392 132 CURVE SMOOTH",
"392 28 OFFCURVE",
"431 -26 OFFCURVE",
"510 -26 CURVE SMOOTH"
);
}
);
width = 828;
},
{
layerId = "42FCB8D3-5141-4304-9365-2E27830BD286";
paths = (
{
closed = 1;
nodes = (
"900 -24 OFFCURVE",
"1068 80 OFFCURVE",
"1068 354 CURVE SMOOTH",
"1068 750 OFFCURVE",
"686 808 OFFCURVE",
"686 952 CURVE SMOOTH",
"686 1048 OFFCURVE",
"949 1326 OFFCURVE",
"1097 1480 CURVE",
"1051 1566 LINE",
"622 1566 LINE",
"352 1566 OFFCURVE",
"148 1344 OFFCURVE",
"148 1002 CURVE SMOOTH",
"148 82 LINE",
"46 82 LINE",
"46 0 LINE",
"494 0 LINE",
"494 1118 LINE SMOOTH",
"494 1342 OFFCURVE",
"495 1484 OFFCURVE",
"636 1484 CURVE",
"983 1484 LINE",
"860 1361 OFFCURVE",
"564 1064 OFFCURVE",
"564 912 CURVE SMOOTH",
"564 693 OFFCURVE",
"806 647 OFFCURVE",
"806 251 CURVE SMOOTH",
"806 135 OFFCURVE",
"790 56 OFFCURVE",
"720 56 CURVE SMOOTH",
"702 56 OFFCURVE",
"689 68 OFFCURVE",
"689 86 CURVE SMOOTH",
"689 116 OFFCURVE",
"736 126 OFFCURVE",
"736 202 CURVE SMOOTH",
"736 262 OFFCURVE",
"704 304 OFFCURVE",
"648 304 CURVE SMOOTH",
"584 304 OFFCURVE",
"546 244 OFFCURVE",
"546 160 CURVE SMOOTH",
"546 38 OFFCURVE",
"640 -24 OFFCURVE",
"728 -24 CURVE SMOOTH"
);
}
);
width = 1170;
}
);
leftKerningGroup = H;
leftMetricsKey = H;
rightKerningGroup = S;
rightMetricsKey = S;
unicode = 1E9E;
},
{
glyphname = Schwa;
lastChange = "2020-02-10 15:57:41 +0000";
layers = (
{
anchors = (
{
name = bottom;
position = "{361.762, -17.68}";
},
{
name = ogonek;
position = "{195.196, 1532.875}";
},
{
name = top;
position = "{322.491, 1541}";
}
);
layerId = "798A1B98-D718-4469-8D5D-1F04921BF637";
paths = (
{
closed = 1;
nodes = (
"542 -24 OFFCURVE",
"658 257 OFFCURVE",
"658 758 CURVE SMOOTH",
"658 1124 OFFCURVE",
"604 1574 OFFCURVE",
"350 1574 CURVE SMOOTH",
"220 1574 OFFCURVE",
"133 1476 OFFCURVE",
"92 1354 CURVE",
"115 1341 LINE",
"142 1438 OFFCURVE",
"220 1552 OFFCURVE",
"344 1552 CURVE SMOOTH",
"558 1552 OFFCURVE",
"586 1083 OFFCURVE",
"586 712 CURVE SMOOTH",
"586 244 OFFCURVE",
"488 -2 OFFCURVE",
"355 -2 CURVE SMOOTH",
"214 -2 OFFCURVE",
"160 290 OFFCURVE",
"160 704 CURVE",
"594 704 LINE",
"594 734 LINE",
"90 734 LINE",
"88 707 OFFCURVE",
"88 680 OFFCURVE",
"88 651 CURVE SMOOTH",
"88 345 OFFCURVE",
"144 -24 OFFCURVE",
"355 -24 CURVE SMOOTH"
);
},
{
closed = 1;
nodes = (
"115 1341 LINE",
"133 1427 LINE",
"123 1427 OFFCURVE",
"116 1474 OFFCURVE",
"116 1540 CURVE",
"92 1540 LINE",
"92 1341 LINE"
);
}
);
width = 744;
},
{
anchors = (
{
name = bottom;
position = "{510, -19}";
},
{
name = ogonek;
position = "{334, 1536}";
},
{
name = top;
position = "{436, 1541}";
}
);
layerId = "A4F0BE09-87B8-499B-8BA0-E8BD95093B86";
paths = (
{
closed = 1;
nodes = (
"721 -27 OFFCURVE",
"956 168 OFFCURVE",
"956 756 CURVE SMOOTH",
"956 1240 OFFCURVE",
"824 1571 OFFCURVE",
"483 1571 CURVE SMOOTH",
"248 1571 OFFCURVE",
"134 1448 OFFCURVE",
"85 1347 CURVE",
"102 1338 LINE",
"143 1435 OFFCURVE",
"270 1546 OFFCURVE",
"427 1546 CURVE SMOOTH",
"597 1546 OFFCURVE",
"600 1273 OFFCURVE",
"600 772 CURVE SMOOTH",
"600 238 OFFCURVE",
"564 -5 OFFCURVE",
"505 -5 CURVE SMOOTH",
"445 -5 OFFCURVE",
"423 236 OFFCURVE",
"423 793 CURVE",
"627 793 LINE",
"627 815 LINE",
"70 815 LINE",
"67 773 OFFCURVE",
"66 742 OFFCURVE",
"66 703 CURVE SMOOTH",
"66 215 OFFCURVE",
"231 -27 OFFCURVE",
"505 -27 CURVE SMOOTH"
);
},
{
closed = 1;
nodes = (
"102 1338 LINE",
"124 1414 LINE",
"103 1414 OFFCURVE",
"103 1464 OFFCURVE",
"103 1540 CURVE",
"69 1540 LINE",
"69 1338 LINE"
);
}
);
width = 1022;
},
{
anchors = (
{
name = bottom;
position = "{349, -16}";
},
{
name = ogonek;
position = "{187, 1533}";
},
{
name = top;
position = "{314, 1541}";
}
);
layerId = "2224527B-843E-45D0-ACBE-AC9678FC6685";
paths = (
{
closed = 1;
nodes = (
"536 -27 OFFCURVE",
"625 277 OFFCURVE",
"625 758 CURVE SMOOTH",
"625 1121 OFFCURVE",
"597 1574 OFFCURVE",
"349 1574 CURVE SMOOTH",
"247 1574 OFFCURVE",
"156 1479 OFFCURVE",
"117 1365 CURVE",
"179 1332 LINE",
"195 1395 OFFCURVE",
"244 1508 OFFCURVE",
"349 1508 CURVE SMOOTH",
"528 1508 OFFCURVE",
"555 1083 OFFCURVE",
"555 712 CURVE SMOOTH",
"555 333 OFFCURVE",
"479 39 OFFCURVE",
"346 39 CURVE SMOOTH",
"206 39 OFFCURVE",
"176 352 OFFCURVE",
"176 727 CURVE",
"574 727 LINE",
"574 793 LINE",
"106 793 LINE",
"105 753 OFFCURVE",
"105 711 OFFCURVE",
"105 668 CURVE SMOOTH",
"105 343 OFFCURVE",
"146 -27 OFFCURVE",
"346 -27 CURVE SMOOTH"
);
},
{
closed = 1;
nodes = (
"179 1332 LINE",
"184 1448 LINE",
"173 1448 OFFCURVE",
"162 1505 OFFCURVE",
"162 1540 CURVE",
"98 1540 LINE",
"98 1332 LINE"
);
}
);
width = 721;
},
{
anchors = (
{
name = bottom;
position = "{547, -19}";
},
{
name = ogonek;
position = "{371, 1536}";
},
{
name = top;
position = "{471, 1541}";
}
);
layerId = "42FCB8D3-5141-4304-9365-2E27830BD286";
paths = (
{
closed = 1;
nodes = (
"737 -27 OFFCURVE",
"1018 168 OFFCURVE",
"1018 756 CURVE SMOOTH",
"1018 1335 OFFCURVE",
"823 1571 OFFCURVE",
"528 1571 CURVE SMOOTH",
"331 1571 OFFCURVE",
"175 1445 OFFCURVE",
"124 1347 CURVE",
"217 1282 LINE",
"258 1360 OFFCURVE",
"354 1471 OFFCURVE",
"498 1471 CURVE SMOOTH",
"639 1471 OFFCURVE",
"661 1313 OFFCURVE",
"661 772 CURVE SMOOTH",
"661 238 OFFCURVE",
"606 61 OFFCURVE",
"539 61 CURVE SMOOTH",
"474 61 OFFCURVE",
"438 269 OFFCURVE",
"438 795 CURVE",
"683 795 LINE",
"683 883 LINE",
"91 883 LINE",
"88 841 OFFCURVE",
"86 802 OFFCURVE",
"86 762 CURVE SMOOTH",
"86 218 OFFCURVE",
"290 -27 OFFCURVE",
"539 -27 CURVE SMOOTH"
);
},
{
closed = 1;
nodes = (
"217 1282 LINE",
"209 1429 LINE",
"183 1429 OFFCURVE",
"180 1485 OFFCURVE",
"180 1540 CURVE",
"91 1540 LINE",
"91 1282 LINE"
);
}
);
width = 1100;
}
);
leftKerningGroup = O;
leftMetricsKey = O;
rightKerningGroup = O;
rightMetricsKey = O;
unicode = 018F;
},
{
glyphname = T;
lastChange = "2020-01-14 18:27:54 +0000";
layers = (
{
anchors = (
{
name = bottom;
position = "{361, 22}";
},
{
name = center;
position = "{347, 792}";
},
{
name = top;
position = "{354, 1562}";
}
);
layerId = "798A1B98-D718-4469-8D5D-1F04921BF637";
paths = (
{
closed = 1;
nodes = (
"484 0 LINE",
"484 22 LINE",
"380 22 LINE",
"380 1518 LINE",
"492 1518 LINE SMOOTH",
"600 1518 OFFCURVE",
"618 1444 OFFCURVE",
"618 1272 CURVE",
"640 1272 LINE",
"640 1540 LINE",
"54 1540 LINE",
"54 1272 LINE",
"76 1272 LINE",
"76 1444 OFFCURVE",
"94 1518 OFFCURVE",
"202 1518 CURVE SMOOTH",
"314 1518 LINE",
"314 22 LINE",
"216 22 LINE",
"216 0 LINE"
);
}
);
width = 694;
},
{
anchors = (
{
name = bottom;
position = "{472, 22}";
},
{
name = center;
position = "{448, 770}";
},
{
name = top;
position = "{444, 1540}";
}
);
layerId = "A4F0BE09-87B8-499B-8BA0-E8BD95093B86";
paths = (
{
closed = 1;
nodes = (
"714 0 LINE",
"714 22 LINE",
"610 22 LINE",
"610 1518 LINE",
"612 1518 LINE SMOOTH",
"742 1518 OFFCURVE",
"826 1318 OFFCURVE",
"826 1140 CURVE",
"848 1140 LINE",
"848 1540 LINE",
"44 1540 LINE",
"44 1140 LINE",
"66 1140 LINE",
"66 1318 OFFCURVE",
"150 1518 OFFCURVE",
"280 1518 CURVE SMOOTH",
"282 1518 LINE",
"282 22 LINE",
"184 22 LINE",
"184 0 LINE"
);
}
);
width = 891;
},
{
anchors = (
{
name = bottom;
position = "{356, 22}";
},
{
name = center;
position = "{355, 792}";
},
{
name = top;
position = "{364, 1562}";
}
);
layerId = "2224527B-843E-45D0-ACBE-AC9678FC6685";
paths = (
{
closed = 1;
nodes = (
"516 0 LINE",
"516 66 LINE",
"390 66 LINE",
"390 1474 LINE",
"516 1474 LINE SMOOTH",
"606 1474 OFFCURVE",
"606 1428 OFFCURVE",
"606 1272 CURVE",
"672 1272 LINE",
"672 1540 LINE",
"42 1540 LINE",
"42 1272 LINE",
"108 1272 LINE",
"108 1428 OFFCURVE",
"108 1474 OFFCURVE",
"198 1474 CURVE SMOOTH",
"324 1474 LINE",
"324 66 LINE",
"204 66 LINE",
"204 0 LINE"
);
}
);
width = 714;
},
{
anchors = (
{
name = bottom;
position = "{492, 22}";
},
{
name = center;
position = "{482, 770}";
},
{
name = top;
position = "{474, 1540}";
}
);
layerId = "42FCB8D3-5141-4304-9365-2E27830BD286";
paths = (
{
closed = 1;
nodes = (
"776 0 LINE",
"776 88 LINE",
"640 88 LINE",
"640 1452 LINE",
"642 1452 LINE SMOOTH",
"794 1452 OFFCURVE",
"822 1352 OFFCURVE",
"822 1140 CURVE",
"910 1140 LINE",
"910 1540 LINE",
"42 1540 LINE",
"42 1140 LINE",
"130 1140 LINE",
"130 1352 OFFCURVE",
"158 1452 OFFCURVE",
"310 1452 CURVE SMOOTH",
"312 1452 LINE",
"312 88 LINE",
"180 88 LINE",
"180 0 LINE"
);
}
);
width = 951;
}
);
leftKerningGroup = T;
rightKerningGroup = T;
unicode = 0054;
},
{
glyphname = U;
lastChange = "2020-02-10 14:45:01 +0000";
layers = (
{
anchors = (
{
name = bottom;
position = "{376, 0}";
},
{
name = ogonek;
position = "{520, 22}";
},
{
name = top;
position = "{376, 1540}";
},
{
name = topright;
position = "{690, 1659}";
}
);
layerId = "798A1B98-D718-4469-8D5D-1F04921BF637";
paths = (
{
closed = 1;
nodes = (
"474 -26 OFFCURVE",
"586 32 OFFCURVE",
"586 238 CURVE SMOOTH",
"586 1518 LINE",
"690 1518 LINE",
"690 1540 LINE",
"472 1540 LINE",
"472 1518 LINE",
"562 1518 LINE",
"562 238 LINE SMOOTH",
"562 62 OFFCURVE",
"470 10 OFFCURVE",
"380 10 CURVE SMOOTH",
"272 10 OFFCURVE",
"212 90 OFFCURVE",
"212 310 CURVE SMOOTH",
"212 1518 LINE",
"314 1518 LINE",
"314 1540 LINE",
"44 1540 LINE",
"44 1518 LINE",
"146 1518 LINE",
"146 304 LINE SMOOTH",
"146 24 OFFCURVE",
"262 -26 OFFCURVE",
"370 -26 CURVE SMOOTH"
);
}
);
width = 734;
},
{
anchors = (
{
name = bottom;
position = "{496, 4}";
},
{
name = ogonek;
position = "{662, 14}";
},
{
name = top;
position = "{480, 1540}";
},
{
name = topright;
position = "{840, 1540}";
}
);
layerId = "A4F0BE09-87B8-499B-8BA0-E8BD95093B86";
paths = (
{
closed = 1;
nodes = (
"626 -26 OFFCURVE",
"760 22 OFFCURVE",
"760 362 CURVE SMOOTH",
"760 1518 LINE",
"862 1518 LINE",
"862 1540 LINE",
"636 1540 LINE",
"636 1518 LINE",
"736 1518 LINE",
"736 334 LINE SMOOTH",
"736 48 OFFCURVE",
"610 10 OFFCURVE",
"560 10 CURVE SMOOTH",
"474 10 OFFCURVE",
"462 154 OFFCURVE",
"462 374 CURVE SMOOTH",
"462 1518 LINE",
"552 1518 LINE",
"552 1540 LINE",
"22 1540 LINE",
"22 1518 LINE",
"126 1518 LINE",
"126 390 LINE SMOOTH",
"126 32 OFFCURVE",
"338 -26 OFFCURVE",
"460 -26 CURVE SMOOTH"
);
}
);
width = 895;
},
{
anchors = (
{
name = bottom;
position = "{374, 0}";
},
{
name = ogonek;
position = "{520, 22}";
},
{
name = top;
position = "{374, 1540}";
},
{
name = topright;
position = "{684, 1540}";
}
);
layerId = "2224527B-843E-45D0-ACBE-AC9678FC6685";
paths = (
{
closed = 1;
nodes = (
"496 -26 OFFCURVE",
"608 54 OFFCURVE",
"608 310 CURVE SMOOTH",
"608 1474 LINE",
"712 1474 LINE",
"712 1540 LINE",
"452 1540 LINE",
"452 1474 LINE",
"542 1474 LINE",
"542 326 LINE SMOOTH",
"542 106 OFFCURVE",
"470 42 OFFCURVE",
"376 42 CURVE SMOOTH",
"284 42 OFFCURVE",
"212 106 OFFCURVE",
"212 326 CURVE SMOOTH",
"212 1474 LINE",
"314 1474 LINE",
"314 1540 LINE",
"42 1540 LINE",
"42 1474 LINE",
"146 1474 LINE",
"146 310 LINE SMOOTH",
"146 54 OFFCURVE",
"258 -26 OFFCURVE",
"376 -26 CURVE SMOOTH"
);
}
);
width = 754;
},
{
anchors = (
{
name = bottom;
position = "{518, 4}";
},
{
name = ogonek;
position = "{684, 14}";
},
{
name = top;
position = "{502, 1540}";
},
{
name = topright;
position = "{864, 1540}";
}
);
layerId = "42FCB8D3-5141-4304-9365-2E27830BD286";
paths = (
{
closed = 1;
nodes = (
"706 -26 OFFCURVE",
"814 56 OFFCURVE",
"814 328 CURVE SMOOTH",
"814 1452 LINE",
"918 1452 LINE",
"918 1540 LINE",
"626 1540 LINE",
"626 1452 LINE",
"724 1452 LINE",
"724 334 LINE SMOOTH",
"724 134 OFFCURVE",
"668 86 OFFCURVE",
"606 86 CURVE SMOOTH",
"518 86 OFFCURVE",
"484 176 OFFCURVE",
"484 374 CURVE SMOOTH",
"484 1452 LINE",
"608 1452 LINE",
"608 1540 LINE",
"38 1540 LINE",
"38 1452 LINE",
"148 1452 LINE",
"148 390 LINE SMOOTH",
"148 32 OFFCURVE",
"360 -26 OFFCURVE",
"516 -26 CURVE SMOOTH"
);
}
);
width = 955;
}
);
leftKerningGroup = U;
rightKerningGroup = U;
unicode = 0055;
},
{
glyphname = Ubar;
lastChange = "2020-01-14 17:56:03 +0000";
layers = (
{
components = (
{
name = U;
}
);
layerId = "798A1B98-D718-4469-8D5D-1F04921BF637";
paths = (
{
closed = 1;
nodes = (
"760 942 LINE",
"760 964 LINE",
"92 964 LINE",
"92 942 LINE"
);
}
);
width = 778;
},
{
components = (
{
name = U;
}
);
layerId = "A4F0BE09-87B8-499B-8BA0-E8BD95093B86";
paths = (
{
closed = 1;
nodes = (
"838 942 LINE",
"838 964 LINE",
"82 964 LINE",
"82 942 LINE"
);
}
);
width = 895;
},
{
components = (
{
name = U;
}
);
layerId = "2224527B-843E-45D0-ACBE-AC9678FC6685";
paths = (
{
closed = 1;
nodes = (
"748 920 LINE",
"748 986 LINE",
"80 986 LINE",
"80 920 LINE"
);
}
);
width = 798;
},
{
components = (
{
name = U;
}
);
layerId = "42FCB8D3-5141-4304-9365-2E27830BD286";
paths = (
{
closed = 1;
nodes = (
"890 910 LINE",
"890 998 LINE",
"90 998 LINE",
"90 910 LINE"
);
}
);
width = 955;
}
);
leftKerningGroup = Ubar;
rightKerningGroup = Ubar;
unicode = 0244;
},
{
glyphname = Uhorn;
lastChange = "2020-02-10 14:48:01 +0000";
layers = (
{
anchors = (
{
name = bottom;
position = "{376, 0}";
},
{
name = ogonek;
position = "{520, 22}";
},
{
name = top;
position = "{376, 1540}";
}
);
components = (
{
name = horncomb;
transform = "{1, 0, 0, 1, 325, 507}";
}
);
layerId = "798A1B98-D718-4469-8D5D-1F04921BF637";
paths = (
{
closed = 1;
nodes = (
"474 -26 OFFCURVE",
"586 32 OFFCURVE",
"586 238 CURVE SMOOTH",
"586 1540 LINE",
"472 1540 LINE",
"472 1518 LINE",
"562 1518 LINE",
"562 238 LINE SMOOTH",
"562 62 OFFCURVE",
"470 10 OFFCURVE",
"380 10 CURVE SMOOTH",
"272 10 OFFCURVE",
"212 90 OFFCURVE",
"212 310 CURVE SMOOTH",
"212 1518 LINE",
"314 1518 LINE",
"314 1540 LINE",
"44 1540 LINE",
"44 1518 LINE",
"146 1518 LINE",
"146 304 LINE SMOOTH",
"146 24 OFFCURVE",
"262 -26 OFFCURVE",
"370 -26 CURVE SMOOTH"
);
}
);
width = 734;
},
{
anchors = (
{
name = bottom;
position = "{496, 4}";
},
{
name = ogonek;
position = "{662, 14}";
},
{
name = top;
position = "{480, 1540}";
}
);
components = (
{
name = horncomb;
transform = "{1, 0, 0, 1, 499, 507}";
}
);
layerId = "A4F0BE09-87B8-499B-8BA0-E8BD95093B86";
paths = (
{
closed = 1;
nodes = (
"626 -26 OFFCURVE",
"760 22 OFFCURVE",
"760 362 CURVE SMOOTH",
"760 1540 LINE",
"636 1540 LINE",
"636 1518 LINE",
"736 1518 LINE",
"736 334 LINE SMOOTH",
"736 48 OFFCURVE",
"610 10 OFFCURVE",
"560 10 CURVE SMOOTH",
"474 10 OFFCURVE",
"462 154 OFFCURVE",
"462 374 CURVE SMOOTH",
"462 1518 LINE",
"552 1518 LINE",
"552 1540 LINE",
"22 1540 LINE",
"22 1518 LINE",
"126 1518 LINE",
"126 390 LINE SMOOTH",
"126 32 OFFCURVE",
"338 -26 OFFCURVE",
"460 -26 CURVE SMOOTH"
);
}
);
width = 895;
},
{
anchors = (
{
name = bottom;
position = "{374, 0}";
},
{
name = ogonek;
position = "{520, 22}";
},
{
name = top;
position = "{374, 1540}";
}
);
components = (
{
name = horncomb;
transform = "{1, 0, 0, 1, 347, 487}";
}
);
layerId = "2224527B-843E-45D0-ACBE-AC9678FC6685";
paths = (
{
closed = 1;
nodes = (
"496 -26 OFFCURVE",
"608 54 OFFCURVE",
"608 310 CURVE SMOOTH",
"608 1540 LINE",
"452 1540 LINE",
"452 1474 LINE",
"542 1474 LINE",
"542 326 LINE SMOOTH",
"542 106 OFFCURVE",
"470 42 OFFCURVE",
"376 42 CURVE SMOOTH",
"284 42 OFFCURVE",
"212 106 OFFCURVE",
"212 326 CURVE SMOOTH",
"212 1474 LINE",
"314 1474 LINE",
"314 1540 LINE",
"42 1540 LINE",
"42 1474 LINE",
"146 1474 LINE",
"146 310 LINE SMOOTH",
"146 54 OFFCURVE",
"258 -26 OFFCURVE",
"376 -26 CURVE SMOOTH"
);
}
);
width = 754;
},
{
anchors = (
{
name = bottom;
position = "{518, 4}";
},
{
name = ogonek;
position = "{684, 14}";
},
{
name = top;
position = "{502, 1540}";
}
);
components = (
{
name = horncomb;
transform = "{1, 0, 0, 1, 552, 477}";
}
);
layerId = "42FCB8D3-5141-4304-9365-2E27830BD286";
paths = (
{
closed = 1;
nodes = (
"706 -26 OFFCURVE",
"814 56 OFFCURVE",
"814 328 CURVE SMOOTH",
"814 1540 LINE",
"626 1540 LINE",
"626 1452 LINE",
"724 1452 LINE",
"724 334 LINE SMOOTH",
"724 134 OFFCURVE",
"668 86 OFFCURVE",
"606 86 CURVE SMOOTH",
"518 86 OFFCURVE",
"484 176 OFFCURVE",
"484 374 CURVE SMOOTH",
"484 1452 LINE",
"608 1452 LINE",
"608 1540 LINE",
"38 1540 LINE",
"38 1452 LINE",
"148 1452 LINE",
"148 390 LINE SMOOTH",
"148 32 OFFCURVE",
"360 -26 OFFCURVE",
"516 -26 CURVE SMOOTH"
);
}
);
width = 955;
}
);
leftKerningGroup = U;
leftMetricsKey = U;
rightKerningGroup = U;
unicode = 01AF;
},
{
glyphname = V;
lastChange = "2020-01-14 17:56:03 +0000";
layers = (
{
anchors = (
{
name = bottom;
position = "{360, 0}";
},
{
name = top;
position = "{360, 1540}";
}
);
layerId = "798A1B98-D718-4469-8D5D-1F04921BF637";
paths = (
{
closed = 1;
nodes = (
"362 -4 LINE",
"564 1518 LINE",
"666 1518 LINE",
"666 1540 LINE",
"446 1540 LINE",
"446 1518 LINE",
"542 1518 LINE",
"372 234 LINE",
"380 234 LINE",
"180 1518 LINE",
"274 1518 LINE",
"274 1540 LINE",
"22 1540 LINE",
"22 1518 LINE",
"110 1518 LINE",
"350 -4 LINE"
);
}
);
width = 688;
},
{
anchors = (
{
name = bottom;
position = "{406, 0}";
},
{
name = top;
position = "{406, 1540}";
}
);
layerId = "A4F0BE09-87B8-499B-8BA0-E8BD95093B86";
paths = (
{
closed = 1;
nodes = (
"430 0 LINE",
"686 1518 LINE",
"788 1518 LINE",
"788 1540 LINE",
"588 1540 LINE",
"588 1518 LINE",
"660 1518 LINE",
"536 796 LINE",
"550 796 LINE",
"434 1518 LINE",
"524 1518 LINE",
"524 1540 LINE",
"-26 1540 LINE",
"-26 1518 LINE",
"78 1518 LINE",
"352 0 LINE"
);
}
);
width = 777;
},
{
anchors = (
{
name = bottom;
position = "{370, 0}";
},
{
name = top;
position = "{370, 1540}";
}
);
layerId = "2224527B-843E-45D0-ACBE-AC9678FC6685";
paths = (
{
closed = 1;
nodes = (
"402 -4 LINE",
"586 1474 LINE",
"694 1474 LINE",
"694 1540 LINE",
"414 1540 LINE",
"414 1474 LINE",
"514 1474 LINE",
"348 96 LINE",
"350 96 LINE",
"176 1474 LINE",
"264 1474 LINE",
"264 1540 LINE",
"20 1540 LINE",
"20 1474 LINE",
"108 1474 LINE",
"300 -4 LINE"
);
}
);
width = 708;
},
{
anchors = (
{
name = bottom;
position = "{436, 0}";
},
{
name = top;
position = "{436, 1540}";
}
);
layerId = "42FCB8D3-5141-4304-9365-2E27830BD286";
paths = (
{
closed = 1;
nodes = (
"492 0 LINE",
"748 1452 LINE",
"836 1452 LINE",
"836 1540 LINE",
"566 1540 LINE",
"566 1452 LINE",
"650 1452 LINE",
"538 796 LINE",
"566 796 LINE",
"464 1452 LINE",
"552 1452 LINE",
"552 1540 LINE",
"10 1540 LINE",
"10 1452 LINE",
"108 1452 LINE",
"368 0 LINE"
);
}
);
width = 837;
}
);
leftKerningGroup = V;
rightKerningGroup = V;
unicode = 0056;
},
{
glyphname = W;
lastChange = "2020-01-14 17:56:03 +0000";
layers = (
{
anchors = (
{
name = bottom;
position = "{534, 0}";
},
{
name = top;
position = "{534, 1540}";
}
);
layerId = "798A1B98-D718-4469-8D5D-1F04921BF637";
paths = (
{
closed = 1;
nodes = (
"340 -4 LINE",
"538 1312 LINE",
"530 1312 LINE",
"736 -4 LINE",
"750 -4 LINE",
"930 1518 LINE",
"1054 1518 LINE",
"1054 1540 LINE",
"790 1540 LINE",
"790 1518 LINE",
"908 1518 LINE",
"758 234 LINE",
"768 234 LINE",
"568 1518 LINE",
"688 1518 LINE",
"688 1540 LINE",
"392 1540 LINE",
"392 1518 LINE",
"496 1518 LINE",
"526 1332 LINE",
"526 1388 LINE",
"350 234 LINE",
"358 234 LINE",
"202 1518 LINE",
"316 1518 LINE",
"316 1540 LINE",
"22 1540 LINE",
"22 1518 LINE",
"132 1518 LINE",
"328 -4 LINE"
);
}
);
width = 1074;
},
{
anchors = (
{
name = bottom;
position = "{702, 0}";
},
{
name = top;
position = "{702, 1540}";
}
);
layerId = "A4F0BE09-87B8-499B-8BA0-E8BD95093B86";
paths = (
{
closed = 1;
nodes = (
"440 0 LINE",
"692 1228 LINE",
"674 1206 LINE",
"902 0 LINE",
"970 0 LINE",
"1236 1518 LINE",
"1336 1518 LINE",
"1336 1540 LINE",
"1134 1540 LINE",
"1134 1518 LINE",
"1212 1518 LINE",
"1066 690 LINE",
"1110 876 LINE",
"984 1518 LINE",
"1074 1518 LINE",
"1074 1540 LINE",
"546 1540 LINE",
"546 1518 LINE",
"608 1518 LINE",
"680 1174 LINE",
"674 1278 LINE",
"558 662 LINE",
"610 850 LINE",
"476 1518 LINE",
"546 1518 LINE",
"546 1540 LINE",
"-22 1540 LINE",
"-22 1518 LINE",
"78 1518 LINE",
"372 0 LINE"
);
}
);
width = 1313;
},
{
anchors = (
{
name = bottom;
position = "{544, 0}";
},
{
name = top;
position = "{544, 1540}";
}
);
layerId = "2224527B-843E-45D0-ACBE-AC9678FC6685";
paths = (
{
closed = 1;
nodes = (
"396 -4 LINE",
"566 1334 LINE",
"542 1312 LINE",
"712 -4 LINE",
"806 -4 LINE",
"966 1474 LINE",
"1064 1474 LINE",
"1064 1540 LINE",
"800 1540 LINE",
"800 1474 LINE",
"892 1474 LINE",
"758 80 LINE",
"766 80 LINE",
"584 1474 LINE",
"698 1474 LINE",
"698 1540 LINE",
"396 1540 LINE",
"396 1474 LINE",
"514 1474 LINE",
"536 1332 LINE",
"518 1476 LINE",
"348 80 LINE",
"358 80 LINE",
"218 1474 LINE",
"328 1474 LINE",
"328 1540 LINE",
"32 1540 LINE",
"32 1474 LINE",
"148 1474 LINE",
"302 -4 LINE"
);
}
);
width = 1094;
},
{
anchors = (
{
name = bottom;
position = "{732, 0}";
},
{
name = top;
position = "{732, 1540}";
}
);
layerId = "42FCB8D3-5141-4304-9365-2E27830BD286";
paths = (
{
closed = 1;
nodes = (
"504 0 LINE",
"770 1258 LINE",
"712 1158 LINE",
"932 0 LINE",
"1034 0 LINE",
"1294 1452 LINE",
"1382 1452 LINE",
"1382 1540 LINE",
"1112 1540 LINE",
"1112 1452 LINE",
"1198 1452 LINE",
"1066 722 LINE",
"1108 904 LINE",
"1016 1452 LINE",
"1102 1452 LINE",
"1102 1540 LINE",
"576 1540 LINE",
"576 1452 LINE",
"650 1452 LINE",
"710 1174 LINE",
"692 1372 LINE",
"554 696 LINE",
"610 878 LINE",
"508 1452 LINE",
"566 1452 LINE",
"566 1540 LINE",
"10 1540 LINE",
"10 1452 LINE",
"120 1452 LINE",
"402 0 LINE"
);
}
);
width = 1373;
}
);
leftKerningGroup = W;
rightKerningGroup = W;
unicode = 0057;
},
{
glyphname = X;
lastChange = "2020-01-14 17:56:03 +0000";
layers = (
{
anchors = (
{
name = bottom;
position = "{384, 0}";
},
{
name = top;
position = "{384, 1540}";
}
);
layerId = "798A1B98-D718-4469-8D5D-1F04921BF637";
paths = (
{
closed = 1;
nodes = (
"724 0 LINE",
"724 22 LINE",
"630 22 LINE",
"212 1518 LINE",
"306 1518 LINE",
"306 1540 LINE",
"54 1540 LINE",
"54 1518 LINE",
"144 1518 LINE",
"562 22 LINE",
"462 22 LINE",
"462 0 LINE"
);
},
{
closed = 1;
nodes = (
"262 0 LINE",
"262 22 LINE",
"154 22 LINE",
"392 770 LINE",
"376 800 LINE",
"128 22 LINE",
"22 22 LINE",
"22 0 LINE"
);
},
{
closed = 1;
nodes = (
"628 1518 LINE",
"728 1518 LINE",
"728 1540 LINE",
"498 1540 LINE",
"498 1518 LINE",
"602 1518 LINE",
"384 828 LINE",
"400 800 LINE"
);
}
);
width = 748;
},
{
anchors = (
{
name = bottom;
position = "{480, 0}";
},
{
name = top;
position = "{480, 1540}";
}
);
layerId = "A4F0BE09-87B8-499B-8BA0-E8BD95093B86";
paths = (
{
closed = 1;
nodes = (
"932 0 LINE",
"932 22 LINE",
"860 22 LINE",
"442 1518 LINE",
"514 1518 LINE",
"514 1540 LINE",
"12 1540 LINE",
"12 1518 LINE",
"80 1518 LINE",
"498 22 LINE",
"418 22 LINE",
"418 0 LINE"
);
},
{
closed = 1;
nodes = (
"256 0 LINE",
"256 22 LINE",
"166 22 LINE",
"416 684 LINE",
"398 706 LINE",
"142 22 LINE",
"38 22 LINE",
"38 0 LINE"
);
},
{
closed = 1;
nodes = (
"744 1518 LINE",
"844 1518 LINE",
"844 1540 LINE",
"636 1540 LINE",
"636 1518 LINE",
"720 1518 LINE",
"476 872 LINE",
"494 848 LINE"
);
}
);
width = 942;
},
{
anchors = (
{
name = bottom;
position = "{404, 0}";
},
{
name = top;
position = "{404, 1540}";
}
);
layerId = "2224527B-843E-45D0-ACBE-AC9678FC6685";
paths = (
{
closed = 1;
nodes = (
"742 0 LINE",
"742 66 LINE",
"638 66 LINE",
"244 1474 LINE",
"346 1474 LINE",
"346 1540 LINE",
"74 1540 LINE",
"74 1474 LINE",
"174 1474 LINE",
"568 66 LINE",
"464 66 LINE",
"464 0 LINE"
);
},
{
closed = 1;
nodes = (
"310 0 LINE",
"310 66 LINE",
"208 66 LINE",
"432 762 LINE",
"372 806 LINE",
"138 66 LINE",
"32 66 LINE",
"32 0 LINE"
);
},
{
closed = 1;
nodes = (
"656 1474 LINE",
"758 1474 LINE",
"758 1540 LINE",
"484 1540 LINE",
"484 1474 LINE",
"586 1474 LINE",
"382 822 LINE",
"434 768 LINE"
);
}
);
width = 788;
},
{
anchors = (
{
name = bottom;
position = "{494, 0}";
},
{
name = top;
position = "{494, 1540}";
}
);
layerId = "42FCB8D3-5141-4304-9365-2E27830BD286";
paths = (
{
closed = 1;
nodes = (
"946 0 LINE",
"946 88 LINE",
"856 88 LINE",
"478 1452 LINE",
"594 1452 LINE",
"594 1540 LINE",
"22 1540 LINE",
"22 1452 LINE",
"114 1452 LINE",
"492 88 LINE",
"368 88 LINE",
"368 0 LINE"
);
},
{
closed = 1;
nodes = (
"304 0 LINE",
"304 88 LINE",
"208 88 LINE",
"434 684 LINE",
"340 706 LINE",
"110 88 LINE",
"16 88 LINE",
"16 0 LINE"
);
},
{
closed = 1;
nodes = (
"804 1452 LINE",
"890 1452 LINE",
"890 1540 LINE",
"618 1540 LINE",
"618 1452 LINE",
"704 1452 LINE",
"484 872 LINE",
"576 848 LINE"
);
}
);
width = 969;
}
);
leftKerningGroup = X;
rightKerningGroup = X;
unicode = 0058;
},
{
glyphname = Y;
lastChange = "2020-01-14 17:56:03 +0000";
layers = (
{
anchors = (
{
name = bottom;
position = "{342, 0}";
},
{
name = top;
position = "{342, 1540}";
},
{
name = topleft;
position = "{54, 1540}";
}
);
layerId = "798A1B98-D718-4469-8D5D-1F04921BF637";
paths = (
{
closed = 1;
nodes = (
"470 0 LINE",
"470 22 LINE",
"378 22 LINE",
"378 648 LINE",
"572 1518 LINE",
"662 1518 LINE",
"662 1540 LINE",
"444 1540 LINE",
"444 1518 LINE",
"548 1518 LINE",
"360 680 LINE",
"372 680 LINE",
"188 1518 LINE",
"282 1518 LINE",
"282 1540 LINE",
"22 1540 LINE",
"22 1518 LINE",
"112 1518 LINE",
"312 648 LINE",
"312 22 LINE",
"210 22 LINE",
"210 0 LINE"
);
}
);
width = 682;
},
{
anchors = (
{
name = bottom;
position = "{462, 0}";
},
{
name = top;
position = "{462, 1540}";
},
{
name = topleft;
position = "{44, 1540}";
}
);
layerId = "A4F0BE09-87B8-499B-8BA0-E8BD95093B86";
paths = (
{
closed = 1;
nodes = (
"728 0 LINE",
"728 22 LINE",
"636 22 LINE",
"636 704 LINE",
"846 1518 LINE",
"936 1518 LINE",
"936 1540 LINE",
"740 1540 LINE",
"740 1518 LINE",
"822 1518 LINE",
"616 734 LINE",
"632 734 LINE",
"450 1518 LINE",
"520 1518 LINE",
"520 1540 LINE",
"-22 1540 LINE",
"-22 1518 LINE",
"80 1518 LINE",
"306 646 LINE",
"306 22 LINE",
"206 22 LINE",
"206 0 LINE"
);
}
);
width = 924;
},
{
anchors = (
{
name = bottom;
position = "{352, 0}";
},
{
name = top;
position = "{352, 1540}";
},
{
name = topleft;
position = "{64, 1540}";
}
);
layerId = "2224527B-843E-45D0-ACBE-AC9678FC6685";
paths = (
{
closed = 1;
nodes = (
"480 0 LINE",
"480 66 LINE",
"388 66 LINE",
"388 648 LINE",
"594 1474 LINE",
"694 1474 LINE",
"694 1540 LINE",
"442 1540 LINE",
"442 1474 LINE",
"524 1474 LINE",
"338 680 LINE",
"382 680 LINE",
"210 1474 LINE",
"292 1474 LINE",
"292 1540 LINE",
"32 1540 LINE",
"32 1474 LINE",
"130 1474 LINE",
"322 648 LINE",
"322 66 LINE",
"220 66 LINE",
"220 0 LINE"
);
}
);
width = 702;
},
{
anchors = (
{
name = bottom;
position = "{492, 0}";
},
{
name = top;
position = "{492, 1540}";
},
{
name = topleft;
position = "{74, 1540}";
}
);
layerId = "42FCB8D3-5141-4304-9365-2E27830BD286";
paths = (
{
closed = 1;
nodes = (
"792 0 LINE",
"792 88 LINE",
"666 88 LINE",
"666 704 LINE",
"860 1452 LINE",
"966 1452 LINE",
"966 1540 LINE",
"670 1540 LINE",
"670 1452 LINE",
"766 1452 LINE",
"580 734 LINE",
"662 734 LINE",
"496 1452 LINE",
"582 1452 LINE",
"582 1540 LINE",
"18 1540 LINE",
"18 1452 LINE",
"128 1452 LINE",
"336 646 LINE",
"336 88 LINE",
"212 88 LINE",
"212 0 LINE"
);
}
);
width = 984;
}
);
leftKerningGroup = Y;
rightKerningGroup = Y;
unicode = 0059;
},
{
glyphname = Z;
lastChange = "2020-02-10 14:20:59 +0000";
layers = (
{
anchors = (
{
name = bottom;
position = "{308, 0}";
},
{
name = center;
position = "{308, 770}";
},
{
name = top;
position = "{308, 1540}";
}
);
layerId = "798A1B98-D718-4469-8D5D-1F04921BF637";
paths = (
{
closed = 1;
nodes = (
"516 0 LINE",
"516 272 LINE",
"494 272 LINE",
"494 92 OFFCURVE",
"468 22 OFFCURVE",
"316 22 CURVE SMOOTH",
"136 22 LINE",
"518 1518 LINE",
"518 1540 LINE",
"86 1540 LINE",
"86 1272 LINE",
"108 1272 LINE",
"108 1450 OFFCURVE",
"134 1518 OFFCURVE",
"306 1518 CURVE SMOOTH",
"450 1518 LINE",
"76 22 LINE",
"76 0 LINE"
);
}
);
width = 594;
},
{
anchors = (
{
name = bottom;
position = "{418, 0}";
},
{
name = center;
position = "{418, 770}";
},
{
name = top;
position = "{418, 1540}";
}
);
layerId = "A4F0BE09-87B8-499B-8BA0-E8BD95093B86";
paths = (
{
closed = 1;
nodes = (
"752 0 LINE",
"752 404 LINE",
"730 404 LINE",
"730 224 OFFCURVE",
"588 22 OFFCURVE",
"436 22 CURVE SMOOTH",
"408 22 LINE",
"756 1518 LINE",
"756 1540 LINE",
"66 1540 LINE",
"66 1140 LINE",
"88 1140 LINE",
"88 1318 OFFCURVE",
"220 1518 OFFCURVE",
"392 1518 CURVE SMOOTH",
"416 1518 LINE",
"68 22 LINE",
"68 0 LINE"
);
}
);
width = 821;
},
{
anchors = (
{
name = bottom;
position = "{318, 0}";
},
{
name = center;
position = "{318, 770}";
},
{
name = top;
position = "{318, 1540}";
}
);
layerId = "2224527B-843E-45D0-ACBE-AC9678FC6685";
paths = (
{
closed = 1;
nodes = (
"548 0 LINE",
"548 272 LINE",
"482 272 LINE",
"482 92 OFFCURVE",
"476 66 OFFCURVE",
"326 66 CURVE SMOOTH",
"134 66 LINE",
"528 1476 LINE",
"528 1540 LINE",
"74 1540 LINE",
"74 1272 LINE",
"140 1272 LINE",
"140 1450 OFFCURVE",
"148 1474 OFFCURVE",
"316 1474 CURVE SMOOTH",
"450 1474 LINE",
"64 66 LINE",
"64 0 LINE"
);
}
);
width = 614;
},
{
anchors = (
{
name = bottom;
position = "{448, 0}";
},
{
name = center;
position = "{448, 770}";
},
{
name = top;
position = "{448, 1540}";
}
);
layerId = "42FCB8D3-5141-4304-9365-2E27830BD286";
paths = (
{
closed = 1;
nodes = (
"816 0 LINE",
"816 404 LINE",
"728 404 LINE",
"728 224 OFFCURVE",
"622 88 OFFCURVE",
"466 88 CURVE SMOOTH",
"422 88 LINE",
"786 1452 LINE",
"786 1540 LINE",
"96 1540 LINE",
"96 1140 LINE",
"184 1140 LINE",
"184 1318 OFFCURVE",
"216 1452 OFFCURVE",
"390 1452 CURVE SMOOTH",
"430 1452 LINE",
"66 88 LINE",
"66 0 LINE"
);
}
);
width = 881;
}
);
leftKerningGroup = Z;
rightKerningGroup = Z;
unicode = 005A;
},
{
glyphname = a;
lastChange = "2020-02-11 15:41:43 +0000";
layers = (
{
anchors = (
{
name = bottom;
position = "{318, 0}";
},
{
name = ogonek;
position = "{594, 14}";
},
{
name = top;
position = "{304, 1152}";
}
);
layerId = "798A1B98-D718-4469-8D5D-1F04921BF637";
paths = (
{
closed = 1;
nodes = (
"342 -22 OFFCURVE",
"404 52 OFFCURVE",
"420 98 CURVE",
"422 14 OFFCURVE",
"464 -10 OFFCURVE",
"506 -10 CURVE SMOOTH",
"534 -10 OFFCURVE",
"564 2 OFFCURVE",
"580 14 CURVE",
"568 34 LINE",
"558 26 OFFCURVE",
"538 16 OFFCURVE",
"520 16 CURVE SMOOTH",
"498 16 OFFCURVE",
"476 30 OFFCURVE",
"476 80 CURVE SMOOTH",
"476 788 LINE SMOOTH",
"476 1024 OFFCURVE",
"442 1158 OFFCURVE",
"308 1158 CURVE SMOOTH",
"184 1158 OFFCURVE",
"110 1016 OFFCURVE",
"110 882 CURVE SMOOTH",
"110 838 OFFCURVE",
"114 812 OFFCURVE",
"142 812 CURVE SMOOTH",
"172 812 OFFCURVE",
"176 838 OFFCURVE",
"176 872 CURVE SMOOTH",
"176 906 OFFCURVE",
"164 926 OFFCURVE",
"164 984 CURVE SMOOTH",
"164 1056 OFFCURVE",
"232 1134 OFFCURVE",
"308 1134 CURVE SMOOTH",
"408 1134 OFFCURVE",
"410 972 OFFCURVE",
"410 794 CURVE SMOOTH",
"410 602 OFFCURVE",
"66 588 OFFCURVE",
"66 238 CURVE SMOOTH",
"66 38 OFFCURVE",
"160 -22 OFFCURVE",
"262 -22 CURVE SMOOTH"
);
},
{
closed = 1;
nodes = (
"166 2 OFFCURVE",
"140 100 OFFCURVE",
"140 258 CURVE SMOOTH",
"140 524 OFFCURVE",
"404 630 OFFCURVE",
"410 714 CURVE",
"410 144 LINE SMOOTH",
"410 80 OFFCURVE",
"342 2 OFFCURVE",
"270 2 CURVE SMOOTH"
);
}
);
width = 602;
},
{
anchors = (
{
name = bottom;
position = "{488, 0}";
},
{
name = ogonek;
position = "{950, 16}";
},
{
name = top;
position = "{466, 1152}";
}
);
layerId = "A4F0BE09-87B8-499B-8BA0-E8BD95093B86";
paths = (
{
closed = 1;
nodes = (
"472 -24 OFFCURVE",
"508 74 OFFCURVE",
"514 134 CURVE",
"516 24 OFFCURVE",
"638 -22 OFFCURVE",
"764 -22 CURVE SMOOTH",
"874 -22 OFFCURVE",
"938 8 OFFCURVE",
"950 26 CURVE",
"938 46 LINE",
"928 34 OFFCURVE",
"902 20 OFFCURVE",
"882 20 CURVE SMOOTH",
"850 20 OFFCURVE",
"834 56 OFFCURVE",
"834 128 CURVE SMOOTH",
"834 764 LINE SMOOTH",
"834 1066 OFFCURVE",
"632 1158 OFFCURVE",
"452 1158 CURVE SMOOTH",
"246 1158 OFFCURVE",
"90 1038 OFFCURVE",
"90 860 CURVE SMOOTH",
"90 748 OFFCURVE",
"140 680 OFFCURVE",
"218 680 CURVE SMOOTH",
"298 680 OFFCURVE",
"346 740 OFFCURVE",
"346 830 CURVE SMOOTH",
"346 920 OFFCURVE",
"284 954 OFFCURVE",
"284 1016 CURVE SMOOTH",
"284 1094 OFFCURVE",
"334 1130 OFFCURVE",
"392 1130 CURVE SMOOTH",
"502 1130 OFFCURVE",
"504 948 OFFCURVE",
"504 792 CURVE SMOOTH",
"504 598 OFFCURVE",
"56 618 OFFCURVE",
"56 260 CURVE SMOOTH",
"56 80 OFFCURVE",
"166 -24 OFFCURVE",
"320 -24 CURVE SMOOTH"
);
},
{
closed = 1;
nodes = (
"400 64 OFFCURVE",
"388 152 OFFCURVE",
"388 302 CURVE SMOOTH",
"388 546 OFFCURVE",
"496 648 OFFCURVE",
"504 730 CURVE",
"504 168 LINE SMOOTH",
"504 126 OFFCURVE",
"482 64 OFFCURVE",
"448 64 CURVE SMOOTH"
);
}
);
width = 959;
},
{
anchors = (
{
name = bottom;
position = "{324, 0}";
},
{
name = ogonek;
position = "{594, 18}";
},
{
name = top;
position = "{308, 1152}";
}
);
layerId = "2224527B-843E-45D0-ACBE-AC9678FC6685";
paths = (
{
closed = 1;
nodes = (
"366 -22 OFFCURVE",
"410 42 OFFCURVE",
"426 88 CURVE",
"426 18 OFFCURVE",
"472 -10 OFFCURVE",
"516 -10 CURVE SMOOTH",
"550 -10 OFFCURVE",
"580 2 OFFCURVE",
"594 18 CURVE",
"562 74 LINE",
"556 66 OFFCURVE",
"542 56 OFFCURVE",
"522 56 CURVE SMOOTH",
"496 56 OFFCURVE",
"482 70 OFFCURVE",
"482 122 CURVE SMOOTH",
"482 832 LINE SMOOTH",
"482 1068 OFFCURVE",
"426 1158 OFFCURVE",
"304 1158 CURVE SMOOTH",
"180 1158 OFFCURVE",
"100 1028 OFFCURVE",
"100 872 CURVE SMOOTH",
"100 828 OFFCURVE",
"114 802 OFFCURVE",
"142 802 CURVE SMOOTH",
"172 802 OFFCURVE",
"184 828 OFFCURVE",
"184 862 CURVE SMOOTH",
"184 896 OFFCURVE",
"176 910 OFFCURVE",
"176 952 CURVE SMOOTH",
"176 1022 OFFCURVE",
"228 1090 OFFCURVE",
"304 1090 CURVE SMOOTH",
"406 1090 OFFCURVE",
"416 976 OFFCURVE",
"416 804 CURVE SMOOTH",
"416 610 OFFCURVE",
"66 588 OFFCURVE",
"66 260 CURVE SMOOTH",
"66 70 OFFCURVE",
"144 -22 OFFCURVE",
"266 -22 CURVE SMOOTH"
);
},
{
closed = 1;
nodes = (
"184 46 OFFCURVE",
"142 120 OFFCURVE",
"142 260 CURVE SMOOTH",
"142 514 OFFCURVE",
"410 580 OFFCURVE",
"416 662 CURVE",
"416 252 LINE SMOOTH",
"416 188 OFFCURVE",
"366 46 OFFCURVE",
"266 46 CURVE SMOOTH"
);
}
);
width = 622;
},
{
anchors = (
{
name = bottom;
position = "{506, 0}";
},
{
name = ogonek;
position = "{948, 16}";
},
{
name = top;
position = "{484, 1152}";
}
);
layerId = "42FCB8D3-5141-4304-9365-2E27830BD286";
paths = (
{
closed = 1;
nodes = (
"488 -24 OFFCURVE",
"530 44 OFFCURVE",
"538 66 CURVE",
"555 32 OFFCURVE",
"596 -22 OFFCURVE",
"770 -22 CURVE SMOOTH",
"882 -22 OFFCURVE",
"974 26 OFFCURVE",
"1002 66 CURVE",
"950 132 LINE",
"940 120 OFFCURVE",
"918 98 OFFCURVE",
"890 98 CURVE SMOOTH",
"864 98 OFFCURVE",
"852 118 OFFCURVE",
"852 200 CURVE SMOOTH",
"852 744 LINE SMOOTH",
"852 1046 OFFCURVE",
"670 1158 OFFCURVE",
"478 1158 CURVE SMOOTH",
"266 1158 OFFCURVE",
"108 1038 OFFCURVE",
"108 860 CURVE SMOOTH",
"108 748 OFFCURVE",
"160 680 OFFCURVE",
"236 680 CURVE SMOOTH",
"310 680 OFFCURVE",
"362 728 OFFCURVE",
"362 808 CURVE SMOOTH",
"362 898 OFFCURVE",
"302 920 OFFCURVE",
"302 984 CURVE SMOOTH",
"302 1028 OFFCURVE",
"360 1054 OFFCURVE",
"418 1054 CURVE SMOOTH",
"502 1054 OFFCURVE",
"522 982 OFFCURVE",
"522 826 CURVE SMOOTH",
"522 632 OFFCURVE",
"50 632 OFFCURVE",
"50 274 CURVE SMOOTH",
"50 92 OFFCURVE",
"182 -24 OFFCURVE",
"336 -24 CURVE SMOOTH"
);
},
{
closed = 1;
nodes = (
"412 120 OFFCURVE",
"382 186 OFFCURVE",
"382 316 CURVE SMOOTH",
"382 560 OFFCURVE",
"512 586 OFFCURVE",
"522 670 CURVE",
"522 266 LINE SMOOTH",
"522 186 OFFCURVE",
"494 120 OFFCURVE",
"452 120 CURVE SMOOTH"
);
}
);
width = 1019;
}
);
leftKerningGroup = a;
rightKerningGroup = n;
unicode = 0061;
},
{
glyphname = ae;
lastChange = "2020-01-14 18:18:57 +0000";
layers = (
{
anchors = (
{
name = bottom;
position = "{456, 0}";
},
{
name = top;
position = "{456, 1152}";
}
);
components = (
{
alignment = -1;
name = e;
transform = "{1, 0, 0, 1, 342, 0}";
}
);
layerId = "798A1B98-D718-4469-8D5D-1F04921BF637";
paths = (
{
closed = 1;
nodes = (
"316 -18 OFFCURVE",
"380 44 OFFCURVE",
"400 80 CURVE SMOOTH",
"450 158 OFFCURVE",
"454 210 OFFCURVE",
"454 302 CURVE SMOOTH",
"454 788 LINE SMOOTH",
"454 1024 OFFCURVE",
"410 1158 OFFCURVE",
"290 1158 CURVE SMOOTH",
"172 1158 OFFCURVE",
"110 1038 OFFCURVE",
"110 904 CURVE SMOOTH",
"110 860 OFFCURVE",
"114 834 OFFCURVE",
"142 834 CURVE SMOOTH",
"170 834 OFFCURVE",
"176 860 OFFCURVE",
"176 894 CURVE SMOOTH",
"176 928 OFFCURVE",
"164 962 OFFCURVE",
"164 1006 CURVE SMOOTH",
"164 1110 OFFCURVE",
"238 1134 OFFCURVE",
"288 1134 CURVE SMOOTH",
"387 1134 OFFCURVE",
"388 972 OFFCURVE",
"388 794 CURVE SMOOTH",
"388 602 OFFCURVE",
"66 588 OFFCURVE",
"66 216 CURVE SMOOTH",
"66 80 OFFCURVE",
"132 -18 OFFCURVE",
"238 -18 CURVE SMOOTH"
);
},
{
closed = 1;
nodes = (
"142 8 OFFCURVE",
"140 130 OFFCURVE",
"140 236 CURVE SMOOTH",
"140 502 OFFCURVE",
"382 630 OFFCURVE",
"388 714 CURVE",
"388 146 LINE SMOOTH",
"388 82 OFFCURVE",
"320 8 OFFCURVE",
"248 8 CURVE SMOOTH"
);
}
);
width = 878;
},
{
anchors = (
{
name = bottom;
position = "{649, 0}";
},
{
name = top;
position = "{650, 1152}";
}
);
components = (
{
alignment = -1;
name = e;
transform = "{1, 0, 0, 1, 428, 0}";
}
);
layerId = "A4F0BE09-87B8-499B-8BA0-E8BD95093B86";
paths = (
{
closed = 1;
nodes = (
"484 -18 OFFCURVE",
"574 92 OFFCURVE",
"574 295 CURVE SMOOTH",
"574 332 OFFCURVE",
"573 372 OFFCURVE",
"573 410 CURVE",
"663 901 LINE",
"663 1064 OFFCURVE",
"555 1158 OFFCURVE",
"416 1158 CURVE SMOOTH",
"252 1158 OFFCURVE",
"112 1032 OFFCURVE",
"112 860 CURVE SMOOTH",
"112 748 OFFCURVE",
"162 680 OFFCURVE",
"236 680 CURVE SMOOTH",
"308 680 OFFCURVE",
"356 748 OFFCURVE",
"356 840 CURVE SMOOTH",
"356 932 OFFCURVE",
"286 1036 OFFCURVE",
"286 1078 CURVE SMOOTH",
"286 1110 OFFCURVE",
"326 1134 OFFCURVE",
"388 1134 CURVE SMOOTH",
"466 1134 OFFCURVE",
"470 942 OFFCURVE",
"470 764 CURVE SMOOTH",
"470 570 OFFCURVE",
"56 566 OFFCURVE",
"56 238 CURVE SMOOTH",
"56 80 OFFCURVE",
"164 -18 OFFCURVE",
"300 -18 CURVE SMOOTH"
);
},
{
closed = 1;
nodes = (
"406 66 OFFCURVE",
"376 122 OFFCURVE",
"376 302 CURVE SMOOTH",
"376 524 OFFCURVE",
"462 582 OFFCURVE",
"470 664 CURVE",
"470 224 LINE SMOOTH",
"470 106 OFFCURVE",
"454 66 OFFCURVE",
"430 66 CURVE SMOOTH"
);
}
);
width = 1288;
},
{
anchors = (
{
name = bottom;
position = "{456, 0}";
},
{
name = top;
position = "{456, 1152}";
}
);
components = (
{
alignment = -1;
name = e;
transform = "{1, 0, 0, 1, 326, 0}";
}
);
layerId = "2224527B-843E-45D0-ACBE-AC9678FC6685";
paths = (
{
closed = 1;
nodes = (
"316 -18 OFFCURVE",
"380 44 OFFCURVE",
"400 80 CURVE SMOOTH",
"450 158 OFFCURVE",
"454 210 OFFCURVE",
"454 302 CURVE SMOOTH",
"454 788 LINE SMOOTH",
"454 1024 OFFCURVE",
"410 1158 OFFCURVE",
"290 1158 CURVE SMOOTH",
"172 1158 OFFCURVE",
"110 1038 OFFCURVE",
"110 904 CURVE SMOOTH",
"110 860 OFFCURVE",
"120 834 OFFCURVE",
"148 834 CURVE SMOOTH",
"178 834 OFFCURVE",
"188 860 OFFCURVE",
"188 894 CURVE SMOOTH",
"188 928 OFFCURVE",
"182 932 OFFCURVE",
"182 976 CURVE SMOOTH",
"182 1056 OFFCURVE",
"238 1090 OFFCURVE",
"288 1090 CURVE SMOOTH",
"386 1090 OFFCURVE",
"388 928 OFFCURVE",
"388 794 CURVE SMOOTH",
"388 602 OFFCURVE",
"66 588 OFFCURVE",
"66 216 CURVE SMOOTH",
"66 80 OFFCURVE",
"132 -18 OFFCURVE",
"238 -18 CURVE SMOOTH"
);
},
{
closed = 1;
nodes = (
"166 52 OFFCURVE",
"140 130 OFFCURVE",
"140 236 CURVE SMOOTH",
"140 502 OFFCURVE",
"382 564 OFFCURVE",
"388 648 CURVE",
"388 256 LINE SMOOTH",
"388 148 OFFCURVE",
"320 52 OFFCURVE",
"248 52 CURVE SMOOTH"
);
}
);
width = 882;
},
{
anchors = (
{
name = bottom;
position = "{653, 0}";
},
{
name = top;
position = "{654, 1152}";
}
);
components = (
{
alignment = -1;
name = e;
transform = "{1, 0, 0, 1, 403, 0}";
}
);
layerId = "42FCB8D3-5141-4304-9365-2E27830BD286";
paths = (
{
closed = 1;
nodes = (
"470 -18 OFFCURVE",
"569 89 OFFCURVE",
"569 279 CURVE SMOOTH",
"569 322 OFFCURVE",
"567 369 OFFCURVE",
"567 415 CURVE",
"658 902 LINE",
"658 1065 OFFCURVE",
"549 1158 OFFCURVE",
"412 1158 CURVE SMOOTH",
"246 1158 OFFCURVE",
"108 1032 OFFCURVE",
"108 860 CURVE SMOOTH",
"108 748 OFFCURVE",
"156 680 OFFCURVE",
"232 680 CURVE SMOOTH",
"304 680 OFFCURVE",
"352 748 OFFCURVE",
"352 840 CURVE SMOOTH",
"352 932 OFFCURVE",
"304 970 OFFCURVE",
"304 1012 CURVE SMOOTH",
"304 1044 OFFCURVE",
"322 1060 OFFCURVE",
"382 1060 CURVE SMOOTH",
"462 1060 OFFCURVE",
"464 942 OFFCURVE",
"464 764 CURVE SMOOTH",
"464 570 OFFCURVE",
"50 566 OFFCURVE",
"50 238 CURVE SMOOTH",
"50 80 OFFCURVE",
"158 -18 OFFCURVE",
"294 -18 CURVE SMOOTH"
);
},
{
closed = 1;
nodes = (
"400 132 OFFCURVE",
"372 144 OFFCURVE",
"372 302 CURVE SMOOTH",
"372 524 OFFCURVE",
"458 516 OFFCURVE",
"464 598 CURVE",
"464 268 LINE SMOOTH",
"464 172 OFFCURVE",
"448 132 OFFCURVE",
"424 132 CURVE SMOOTH"
);
}
);
width = 1323;
}
);
leftKerningGroup = a;
leftMetricsKey = a;
rightKerningGroup = e;
rightMetricsKey = e;
unicode = 00E6;
},
{
glyphname = b;
lastChange = "2020-01-14 17:56:03 +0000";
layers = (
{
anchors = (
{
name = bottom;
position = "{316, 0}";
},
{
name = top;
position = "{316, 1650}";
}
);
layerId = "798A1B98-D718-4469-8D5D-1F04921BF637";
paths = (
{
closed = 1;
nodes = (
"448 -22 OFFCURVE",
"554 150 OFFCURVE",
"554 570 CURVE SMOOTH",
"554 998 OFFCURVE",
"458 1156 OFFCURVE",
"348 1156 CURVE SMOOTH",
"250 1156 OFFCURVE",
"210 1052 OFFCURVE",
"196 994 CURVE",
"196 1650 LINE",
"32 1650 LINE",
"32 1628 LINE",
"130 1628 LINE",
"130 22 LINE",
"32 22 LINE",
"32 0 LINE",
"196 0 LINE",
"196 148 LINE",
"202 86 OFFCURVE",
"240 -22 OFFCURVE",
"336 -22 CURVE SMOOTH"
);
},
{
closed = 1;
nodes = (
"238 2 OFFCURVE",
"204 174 OFFCURVE",
"196 306 CURVE",
"196 888 LINE",
"206 976 OFFCURVE",
"250 1122 OFFCURVE",
"344 1122 CURVE SMOOTH",
"472 1122 OFFCURVE",
"480 802 OFFCURVE",
"480 564 CURVE SMOOTH",
"480 256 OFFCURVE",
"464 2 OFFCURVE",
"336 2 CURVE SMOOTH"
);
}
);
width = 630;
},
{
anchors = (
{
name = bottom;
position = "{486, 0}";
},
{
name = top;
position = "{486, 1650}";
}
);
layerId = "A4F0BE09-87B8-499B-8BA0-E8BD95093B86";
paths = (
{
closed = 1;
nodes = (
"762 -22 OFFCURVE",
"914 108 OFFCURVE",
"914 570 CURVE SMOOTH",
"914 988 OFFCURVE",
"770 1158 OFFCURVE",
"608 1158 CURVE SMOOTH",
"474 1158 OFFCURVE",
"448 1023 OFFCURVE",
"444 1002 CURVE",
"444 1650 LINE",
"12 1650 LINE",
"12 1628 LINE",
"108 1628 LINE",
"108 22 LINE",
"12 22 LINE",
"12 0 LINE",
"440 0 LINE",
"440 122 LINE",
"442 94 OFFCURVE",
"484 -22 OFFCURVE",
"588 -22 CURVE SMOOTH"
);
},
{
closed = 1;
nodes = (
"500 16 OFFCURVE",
"448 102 OFFCURVE",
"444 216 CURVE",
"444 890 LINE",
"452 1006 OFFCURVE",
"497 1110 OFFCURVE",
"530 1110 CURVE SMOOTH",
"570 1110 OFFCURVE",
"576 824 OFFCURVE",
"576 566 CURVE SMOOTH",
"576 308 OFFCURVE",
"570 16 OFFCURVE",
"530 16 CURVE SMOOTH"
);
}
);
width = 972;
},
{
anchors = (
{
name = bottom;
position = "{326, 0}";
},
{
name = top;
position = "{326, 1650}";
}
);
layerId = "2224527B-843E-45D0-ACBE-AC9678FC6685";
paths = (
{
closed = 1;
nodes = (
"482 -22 OFFCURVE",
"564 150 OFFCURVE",
"564 570 CURVE SMOOTH",
"564 998 OFFCURVE",
"490 1156 OFFCURVE",
"358 1156 CURVE SMOOTH",
"260 1156 OFFCURVE",
"216 1056 OFFCURVE",
"206 1008 CURVE",
"206 1650 LINE",
"20 1650 LINE",
"20 1584 LINE",
"140 1584 LINE",
"140 66 LINE",
"20 66 LINE",
"20 0 LINE",
"206 0 LINE",
"206 148 LINE",
"212 86 OFFCURVE",
"250 -22 OFFCURVE",
"346 -22 CURVE SMOOTH"
);
},
{
closed = 1;
nodes = (
"260 46 OFFCURVE",
"214 240 OFFCURVE",
"206 372 CURVE",
"206 844 LINE",
"216 932 OFFCURVE",
"272 1078 OFFCURVE",
"354 1078 CURVE SMOOTH",
"454 1078 OFFCURVE",
"494 868 OFFCURVE",
"494 564 CURVE SMOOTH",
"494 212 OFFCURVE",
"446 46 OFFCURVE",
"346 46 CURVE SMOOTH"
);
}
);
width = 638;
},
{
anchors = (
{
name = bottom;
position = "{506, 0}";
},
{
name = top;
position = "{506, 1650}";
}
);
layerId = "42FCB8D3-5141-4304-9365-2E27830BD286";
paths = (
{
closed = 1;
nodes = (
"780 -22 OFFCURVE",
"958 108 OFFCURVE",
"958 570 CURVE SMOOTH",
"958 988 OFFCURVE",
"790 1158 OFFCURVE",
"626 1158 CURVE SMOOTH",
"508 1158 OFFCURVE",
"470 1086 OFFCURVE",
"464 1068 CURVE",
"464 1650 LINE",
"16 1650 LINE",
"16 1562 LINE",
"128 1562 LINE",
"128 88 LINE",
"16 88 LINE",
"16 0 LINE",
"426 0 LINE",
"448 106 LINE",
"452 80 OFFCURVE",
"488 -22 OFFCURVE",
"606 -22 CURVE SMOOTH"
);
},
{
closed = 1;
nodes = (
"504 154 OFFCURVE",
"464 264 OFFCURVE",
"464 412 CURVE",
"464 790 LINE",
"470 906 OFFCURVE",
"494 970 OFFCURVE",
"534 970 CURVE SMOOTH",
"606 970 OFFCURVE",
"628 824 OFFCURVE",
"628 566 CURVE SMOOTH",
"628 308 OFFCURVE",
"606 154 OFFCURVE",
"534 154 CURVE SMOOTH"
);
}
);
width = 1032;
}
);
leftKerningGroup = h;
rightKerningGroup = o;
unicode = 0062;
},
{
glyphname = c;
lastChange = "2020-01-14 17:56:03 +0000";
layers = (
{
anchors = (
{
name = bottom;
position = "{338, 2}";
},
{
name = top;
position = "{292, 1152}";
}
);
layerId = "798A1B98-D718-4469-8D5D-1F04921BF637";
paths = (
{
closed = 1;
nodes = (
"388 -22 OFFCURVE",
"448 46 OFFCURVE",
"476 134 CURVE",
"458 144 LINE",
"444 84 OFFCURVE",
"394 2 OFFCURVE",
"304 2 CURVE SMOOTH",
"144 2 OFFCURVE",
"116 352 OFFCURVE",
"116 594 CURVE SMOOTH",
"116 854 OFFCURVE",
"178 1134 OFFCURVE",
"310 1134 CURVE SMOOTH",
"358 1134 OFFCURVE",
"420 1088 OFFCURVE",
"420 984 CURVE SMOOTH",
"420 940 OFFCURVE",
"408 906 OFFCURVE",
"408 872 CURVE SMOOTH",
"408 838 OFFCURVE",
"414 812 OFFCURVE",
"442 812 CURVE SMOOTH",
"470 812 OFFCURVE",
"474 838 OFFCURVE",
"474 882 CURVE SMOOTH",
"474 1016 OFFCURVE",
"426 1158 OFFCURVE",
"310 1158 CURVE SMOOTH",
"166 1158 OFFCURVE",
"44 944 OFFCURVE",
"44 588 CURVE SMOOTH",
"44 324 OFFCURVE",
"120 -22 OFFCURVE",
"304 -22 CURVE SMOOTH"
);
}
);
width = 550;
},
{
anchors = (
{
name = bottom;
position = "{472, 0}";
},
{
name = top;
position = "{450, 1152}";
}
);
layerId = "A4F0BE09-87B8-499B-8BA0-E8BD95093B86";
paths = (
{
closed = 1;
nodes = (
"590 -24 OFFCURVE",
"668 52 OFFCURVE",
"698 140 CURVE",
"678 148 LINE",
"664 88 OFFCURVE",
"596 2 OFFCURVE",
"506 2 CURVE SMOOTH",
"400 2 OFFCURVE",
"386 352 OFFCURVE",
"386 588 CURVE SMOOTH",
"386 774 OFFCURVE",
"390 1134 OFFCURVE",
"488 1134 CURVE SMOOTH",
"542 1134 OFFCURVE",
"568 1110 OFFCURVE",
"568 1056 CURVE SMOOTH",
"568 1014 OFFCURVE",
"476 940 OFFCURVE",
"476 830 CURVE SMOOTH",
"476 736 OFFCURVE",
"530 680 OFFCURVE",
"604 680 CURVE SMOOTH",
"678 680 OFFCURVE",
"730 738 OFFCURVE",
"730 872 CURVE SMOOTH",
"730 1044 OFFCURVE",
"612 1158 OFFCURVE",
"454 1158 CURVE SMOOTH",
"300 1158 OFFCURVE",
"44 1024 OFFCURVE",
"44 580 CURVE SMOOTH",
"44 172 OFFCURVE",
"230 -24 OFFCURVE",
"444 -24 CURVE SMOOTH"
);
}
);
width = 772;
},
{
anchors = (
{
name = bottom;
position = "{348, 2}";
},
{
name = top;
position = "{302, 1152}";
}
);
layerId = "2224527B-843E-45D0-ACBE-AC9678FC6685";
paths = (
{
closed = 1;
nodes = (
"430 -22 OFFCURVE",
"484 58 OFFCURVE",
"506 110 CURVE",
"456 150 LINE",
"432 82 OFFCURVE",
"396 46 OFFCURVE",
"322 46 CURVE SMOOTH",
"174 46 OFFCURVE",
"126 352 OFFCURVE",
"126 594 CURVE SMOOTH",
"126 854 OFFCURVE",
"188 1090 OFFCURVE",
"320 1090 CURVE SMOOTH",
"368 1090 OFFCURVE",
"426 1044 OFFCURVE",
"426 962 CURVE SMOOTH",
"426 918 OFFCURVE",
"412 906 OFFCURVE",
"412 872 CURVE SMOOTH",
"412 838 OFFCURVE",
"426 812 OFFCURVE",
"454 812 CURVE SMOOTH",
"482 812 OFFCURVE",
"494 838 OFFCURVE",
"494 882 CURVE SMOOTH",
"494 1016 OFFCURVE",
"436 1158 OFFCURVE",
"320 1158 CURVE SMOOTH",
"176 1158 OFFCURVE",
"54 944 OFFCURVE",
"54 588 CURVE SMOOTH",
"54 324 OFFCURVE",
"118 -22 OFFCURVE",
"322 -22 CURVE SMOOTH"
);
}
);
width = 570;
},
{
anchors = (
{
name = bottom;
position = "{511, 0}";
},
{
name = top;
position = "{489, 1152}";
}
);
layerId = "42FCB8D3-5141-4304-9365-2E27830BD286";
paths = (
{
closed = 1;
nodes = (
"631 -24 OFFCURVE",
"729 44 OFFCURVE",
"765 132 CURVE",
"685 180 LINE",
"653 120 OFFCURVE",
"621 76 OFFCURVE",
"533 76 CURVE SMOOTH",
"409 76 OFFCURVE",
"403 352 OFFCURVE",
"403 588 CURVE SMOOTH",
"403 774 OFFCURVE",
"409 1068 OFFCURVE",
"515 1068 CURVE SMOOTH",
"557 1068 OFFCURVE",
"581 1042 OFFCURVE",
"581 988 CURVE SMOOTH",
"581 914 OFFCURVE",
"515 892 OFFCURVE",
"515 814 CURVE SMOOTH",
"515 730 OFFCURVE",
"569 680 OFFCURVE",
"643 680 CURVE SMOOTH",
"715 680 OFFCURVE",
"769 738 OFFCURVE",
"769 844 CURVE SMOOTH",
"769 1014 OFFCURVE",
"675 1158 OFFCURVE",
"493 1158 CURVE SMOOTH",
"339 1158 OFFCURVE",
"61 1024 OFFCURVE",
"61 580 CURVE SMOOTH",
"61 166 OFFCURVE",
"273 -24 OFFCURVE",
"481 -24 CURVE SMOOTH"
);
}
);
width = 832;
}
);
leftKerningGroup = o;
rightKerningGroup = c;
unicode = 0063;
},
{
glyphname = d;
lastChange = "2020-01-14 17:56:03 +0000";
layers = (
{
anchors = (
{
name = bottom;
position = "{316, 0}";
},
{
name = center;
position = "{316, 576}";
},
{
name = top;
position = "{316, 1650}";
},
{
name = topright;
position = "{592, 1152}";
}
);
layerId = "798A1B98-D718-4469-8D5D-1F04921BF637";
paths = (
{
closed = 1;
nodes = (
"384 -22 OFFCURVE",
"428 86 OFFCURVE",
"436 148 CURVE",
"436 0 LINE",
"598 0 LINE",
"598 22 LINE",
"502 22 LINE",
"502 1650 LINE",
"338 1650 LINE",
"338 1628 LINE",
"436 1628 LINE",
"436 994 LINE",
"420 1052 OFFCURVE",
"380 1156 OFFCURVE",
"284 1156 CURVE SMOOTH",
"180 1156 OFFCURVE",
"76 998 OFFCURVE",
"76 570 CURVE SMOOTH",
"76 150 OFFCURVE",
"176 -22 OFFCURVE",
"288 -22 CURVE SMOOTH"
);
},
{
closed = 1;
nodes = (
"164 2 OFFCURVE",
"152 256 OFFCURVE",
"152 564 CURVE SMOOTH",
"152 802 OFFCURVE",
"166 1122 OFFCURVE",
"288 1122 CURVE SMOOTH",
"382 1122 OFFCURVE",
"424 976 OFFCURVE",
"436 888 CURVE",
"436 306 LINE",
"426 174 OFFCURVE",
"392 2 OFFCURVE",
"292 2 CURVE SMOOTH"
);
}
);
width = 630;
},
{
anchors = (
{
name = bottom;
position = "{488, 0}";
},
{
name = center;
position = "{488, 576}";
},
{
name = top;
position = "{488, 1650}";
},
{
name = topright;
position = "{934, 1152}";
}
);
layerId = "A4F0BE09-87B8-499B-8BA0-E8BD95093B86";
paths = (
{
closed = 1;
nodes = (
"496 -22 OFFCURVE",
"528 86 OFFCURVE",
"536 126 CURVE",
"536 0 LINE",
"984 0 LINE",
"984 22 LINE",
"866 22 LINE",
"866 1650 LINE",
"426 1650 LINE",
"426 1626 LINE",
"528 1626 LINE",
"528 1002 LINE",
"524 1024 OFFCURVE",
"492 1158 OFFCURVE",
"370 1158 CURVE SMOOTH",
"208 1158 OFFCURVE",
"58 988 OFFCURVE",
"58 570 CURVE SMOOTH",
"58 108 OFFCURVE",
"212 -22 OFFCURVE",
"390 -22 CURVE SMOOTH"
);
},
{
closed = 1;
nodes = (
"404 16 OFFCURVE",
"396 308 OFFCURVE",
"396 566 CURVE SMOOTH",
"396 824 OFFCURVE",
"400 1110 OFFCURVE",
"442 1110 CURVE SMOOTH",
"470 1110 OFFCURVE",
"522 1004 OFFCURVE",
"528 890 CURVE",
"528 212 LINE",
"526 92 OFFCURVE",
"476 16 OFFCURVE",
"442 16 CURVE SMOOTH"
);
}
);
width = 983;
},
{
anchors = (
{
name = bottom;
position = "{326, 0}";
},
{
name = center;
position = "{326, 576}";
},
{
name = top;
position = "{326, 1650}";
},
{
name = topright;
position = "{602, 1152}";
}
);
layerId = "2224527B-843E-45D0-ACBE-AC9678FC6685";
paths = (
{
closed = 1;
nodes = (
"394 -22 OFFCURVE",
"438 90 OFFCURVE",
"446 148 CURVE",
"446 0 LINE",
"630 0 LINE",
"630 66 LINE",
"512 66 LINE",
"512 1650 LINE",
"326 1650 LINE",
"326 1584 LINE",
"446 1584 LINE",
"446 1016 LINE",
"434 1072 OFFCURVE",
"390 1156 OFFCURVE",
"294 1156 CURVE SMOOTH",
"168 1156 OFFCURVE",
"86 998 OFFCURVE",
"86 570 CURVE SMOOTH",
"86 150 OFFCURVE",
"164 -22 OFFCURVE",
"298 -22 CURVE SMOOTH"
);
},
{
closed = 1;
nodes = (
"200 46 OFFCURVE",
"156 212 OFFCURVE",
"156 564 CURVE SMOOTH",
"156 846 OFFCURVE",
"186 1078 OFFCURVE",
"298 1078 CURVE SMOOTH",
"370 1078 OFFCURVE",
"434 954 OFFCURVE",
"446 844 CURVE",
"446 350 LINE",
"436 218 OFFCURVE",
"384 46 OFFCURVE",
"306 46 CURVE SMOOTH"
);
}
);
width = 650;
},
{
anchors = (
{
name = bottom;
position = "{524, -288}";
},
{
name = center;
position = "{524, 866}";
},
{
name = top;
position = "{524, 1650}";
},
{
name = topright;
position = "{968, 1152}";
}
);
layerId = "42FCB8D3-5141-4304-9365-2E27830BD286";
paths = (
{
closed = 1;
nodes = (
"526 -22 OFFCURVE",
"574 70 OFFCURVE",
"578 108 CURVE",
"602 0 LINE",
"1030 0 LINE",
"1030 88 LINE",
"900 88 LINE",
"900 1650 LINE",
"426 1650 LINE",
"426 1560 LINE",
"562 1560 LINE",
"562 1068 LINE",
"558 1086 OFFCURVE",
"530 1158 OFFCURVE",
"398 1158 CURVE SMOOTH",
"236 1158 OFFCURVE",
"64 988 OFFCURVE",
"64 570 CURVE SMOOTH",
"64 108 OFFCURVE",
"246 -22 OFFCURVE",
"420 -22 CURVE SMOOTH"
);
},
{
closed = 1;
nodes = (
"426 154 OFFCURVE",
"394 316 OFFCURVE",
"394 566 CURVE SMOOTH",
"394 824 OFFCURVE",
"434 976 OFFCURVE",
"488 976 CURVE SMOOTH",
"534 976 OFFCURVE",
"558 904 OFFCURVE",
"562 790 CURVE",
"562 398 LINE",
"562 272 OFFCURVE",
"534 154 OFFCURVE",
"486 154 CURVE SMOOTH"
);
}
);
width = 1043;
}
);
leftKerningGroup = o;
rightKerningGroup = l;
unicode = 0064;
},
{
glyphname = eth;
lastChange = "2020-02-11 15:43:12 +0000";
layers = (
{
layerId = "798A1B98-D718-4469-8D5D-1F04921BF637";
paths = (
{
closed = 1;
nodes = (
"492 -24 OFFCURVE",
"592 230 OFFCURVE",
"592 580 CURVE SMOOTH",
"592 1114 OFFCURVE",
"512 1306 OFFCURVE",
"354 1460 CURVE",
"408 1548 LINE",
"392 1560 LINE",
"338 1472 LINE",
"312 1492 LINE SMOOTH",
"268 1526 OFFCURVE",
"224 1544 OFFCURVE",
"178 1562 CURVE",
"174 1536 LINE",
"220 1522 OFFCURVE",
"288 1482 OFFCURVE",
"320 1448 CURVE",
"242 1328 LINE",
"262 1314 LINE",
"336 1432 LINE",
"402 1374 OFFCURVE",
"501 1151 OFFCURVE",
"508 1012 CURVE",
"492 1060 OFFCURVE",
"430 1158 OFFCURVE",
"342 1158 CURVE SMOOTH",
"202 1158 OFFCURVE",
"98 948 OFFCURVE",
"98 582 CURVE SMOOTH",
"98 242 OFFCURVE",
"182 -24 OFFCURVE",
"342 -24 CURVE SMOOTH"
);
},
{
closed = 1;
nodes = (
"268 -2 OFFCURVE",
"168 152 OFFCURVE",
"168 580 CURVE SMOOTH",
"168 1000 OFFCURVE",
"268 1136 OFFCURVE",
"342 1136 CURVE SMOOTH",
"418 1136 OFFCURVE",
"514 1000 OFFCURVE",
"514 580 CURVE SMOOTH",
"514 152 OFFCURVE",
"418 -2 OFFCURVE",
"342 -2 CURVE SMOOTH"
);
}
);
width = 712;
},
{
layerId = "A4F0BE09-87B8-499B-8BA0-E8BD95093B86";
paths = (
{
closed = 1;
nodes = (
"604 -24 OFFCURVE",
"818 186 OFFCURVE",
"818 580 CURVE SMOOTH",
"818 1072 OFFCURVE",
"596 1364 OFFCURVE",
"448 1464 CURVE",
"498 1548 LINE",
"480 1560 LINE",
"432 1478 LINE",
"396 1498 LINE SMOOTH",
"347 1525 OFFCURVE",
"264 1560 OFFCURVE",
"236 1562 CURVE",
"226 1536 LINE",
"286 1520 OFFCURVE",
"364 1468 OFFCURVE",
"396 1432 CURVE",
"330 1328 LINE",
"350 1314 LINE",
"410 1410 LINE",
"440 1364 OFFCURVE",
"498 1230 OFFCURVE",
"514 1140 CURVE",
"504 1144 OFFCURVE",
"464 1158 OFFCURVE",
"432 1158 CURVE SMOOTH",
"268 1158 OFFCURVE",
"44 992 OFFCURVE",
"44 582 CURVE SMOOTH",
"44 198 OFFCURVE",
"250 -24 OFFCURVE",
"432 -24 CURVE SMOOTH"
);
},
{
closed = 1;
nodes = (
"378 -2 OFFCURVE",
"368 262 OFFCURVE",
"368 580 CURVE SMOOTH",
"368 890 OFFCURVE",
"378 1136 OFFCURVE",
"432 1136 CURVE SMOOTH",
"484 1136 OFFCURVE",
"494 890 OFFCURVE",
"494 580 CURVE SMOOTH",
"494 262 OFFCURVE",
"484 -2 OFFCURVE",
"432 -2 CURVE SMOOTH"
);
}
);
width = 884;
},
{
layerId = "2224527B-843E-45D0-ACBE-AC9678FC6685";
paths = (
{
closed = 1;
nodes = (
"502 -24 OFFCURVE",
"602 230 OFFCURVE",
"602 580 CURVE SMOOTH",
"602 1042 OFFCURVE",
"550 1286 OFFCURVE",
"392 1440 CURVE",
"448 1528 LINE",
"402 1560 LINE",
"350 1476 LINE",
"324 1496 LINE SMOOTH",
"294 1520 OFFCURVE",
"230 1552 OFFCURVE",
"190 1564 CURVE",
"168 1514 LINE",
"214 1498 OFFCURVE",
"282 1460 OFFCURVE",
"316 1426 CURVE",
"236 1306 LINE",
"284 1272 LINE",
"354 1384 LINE",
"420 1324 OFFCURVE",
"476 1202 OFFCURVE",
"502 1034 CURVE",
"486 1082 OFFCURVE",
"440 1158 OFFCURVE",
"352 1158 CURVE SMOOTH",
"212 1158 OFFCURVE",
"108 948 OFFCURVE",
"108 582 CURVE SMOOTH",
"108 242 OFFCURVE",
"192 -24 OFFCURVE",
"352 -24 CURVE SMOOTH"
);
},
{
closed = 1;
nodes = (
"278 42 OFFCURVE",
"178 174 OFFCURVE",
"178 580 CURVE SMOOTH",
"178 978 OFFCURVE",
"278 1092 OFFCURVE",
"352 1092 CURVE SMOOTH",
"428 1092 OFFCURVE",
"524 978 OFFCURVE",
"524 580 CURVE SMOOTH",
"524 174 OFFCURVE",
"428 42 OFFCURVE",
"352 42 CURVE SMOOTH"
);
}
);
width = 732;
},
{
layerId = "42FCB8D3-5141-4304-9365-2E27830BD286";
paths = (
{
closed = 1;
nodes = (
"634 -24 OFFCURVE",
"848 186 OFFCURVE",
"848 580 CURVE SMOOTH",
"848 1109 OFFCURVE",
"700 1336 OFFCURVE",
"540 1442 CURVE",
"588 1508 LINE",
"510 1560 LINE",
"462 1498 LINE",
"450 1504 LINE SMOOTH",
"414 1522 OFFCURVE",
"320 1560 OFFCURVE",
"296 1562 CURVE",
"266 1468 LINE",
"316 1451 OFFCURVE",
"394 1422 OFFCURVE",
"414 1404 CURVE",
"348 1312 LINE",
"426 1258 LINE",
"490 1352 LINE",
"512 1318 OFFCURVE",
"538 1220 OFFCURVE",
"544 1140 CURVE",
"534 1144 OFFCURVE",
"494 1158 OFFCURVE",
"462 1158 CURVE SMOOTH",
"298 1158 OFFCURVE",
"74 992 OFFCURVE",
"74 582 CURVE SMOOTH",
"74 198 OFFCURVE",
"280 -24 OFFCURVE",
"462 -24 CURVE SMOOTH"
);
},
{
closed = 1;
nodes = (
"408 64 OFFCURVE",
"398 296 OFFCURVE",
"398 580 CURVE SMOOTH",
"398 856 OFFCURVE",
"408 1070 OFFCURVE",
"462 1070 CURVE SMOOTH",
"514 1070 OFFCURVE",
"524 856 OFFCURVE",
"524 580 CURVE SMOOTH",
"524 296 OFFCURVE",
"514 64 OFFCURVE",
"462 64 CURVE SMOOTH"
);
}
);
width = 944;
}
);
leftKerningGroup = eth;
rightKerningGroup = eth;
unicode = 00F0;
},
{
glyphname = e;
lastChange = "2020-02-10 15:47:07 +0000";
layers = (
{
anchors = (
{
name = bottom;
position = "{312, 0}";
},
{
name = ogonek;
position = "{406, 6}";
},
{
name = top;
position = "{283, 1151}";
}
);
layerId = "798A1B98-D718-4469-8D5D-1F04921BF637";
paths = (
{
closed = 1;
nodes = (
"388 -24 OFFCURVE",
"452 48 OFFCURVE",
"482 138 CURVE",
"462 148 LINE",
"442 76 OFFCURVE",
"388 2 OFFCURVE",
"296 2 CURVE SMOOTH",
"138 2 OFFCURVE",
"134 338 OFFCURVE",
"134 612 CURVE SMOOTH",
"134 958 OFFCURVE",
"190 1138 OFFCURVE",
"288 1138 CURVE SMOOTH",
"392 1138 OFFCURVE",
"414 924 OFFCURVE",
"414 618 CURVE",
"120 618 LINE",
"120 596 LINE",
"484 596 LINE",
"485 616 OFFCURVE",
"485 636 OFFCURVE",
"485 657 CURVE SMOOTH",
"485 883 OFFCURVE",
"444 1158 OFFCURVE",
"288 1158 CURVE SMOOTH",
"150 1158 OFFCURVE",
"64 948 OFFCURVE",
"64 578 CURVE SMOOTH",
"64 308 OFFCURVE",
"104 -24 OFFCURVE",
"292 -24 CURVE SMOOTH"
);
}
);
width = 536;
},
{
anchors = (
{
name = bottom;
position = "{495, 0}";
},
{
name = ogonek;
position = "{570, 4}";
},
{
name = top;
position = "{440, 1152}";
}
);
layerId = "A4F0BE09-87B8-499B-8BA0-E8BD95093B86";
paths = (
{
closed = 1;
nodes = (
"656 -22 OFFCURVE",
"758 54 OFFCURVE",
"794 136 CURVE",
"778 150 LINE",
"748 78 OFFCURVE",
"662 4 OFFCURVE",
"516 4 CURVE SMOOTH",
"376 4 OFFCURVE",
"374 198 OFFCURVE",
"374 568 CURVE SMOOTH",
"374 962 OFFCURVE",
"400 1136 OFFCURVE",
"444 1136 CURVE SMOOTH",
"488 1136 OFFCURVE",
"504 964 OFFCURVE",
"504 552 CURVE",
"354 552 LINE",
"354 530 LINE",
"824 530 LINE",
"826 561 OFFCURVE",
"827 590 OFFCURVE",
"827 619 CURVE SMOOTH",
"827 979 OFFCURVE",
"646 1158 OFFCURVE",
"444 1158 CURVE SMOOTH",
"284 1158 OFFCURVE",
"44 1014 OFFCURVE",
"44 580 CURVE SMOOTH",
"44 222 OFFCURVE",
"208 -22 OFFCURVE",
"460 -22 CURVE SMOOTH"
);
}
);
width = 860;
},
{
anchors = (
{
name = bottom;
position = "{322, 0}";
},
{
name = ogonek;
position = "{416, 6}";
},
{
name = top;
position = "{296, 1150}";
}
);
layerId = "2224527B-843E-45D0-ACBE-AC9678FC6685";
paths = (
{
closed = 1;
nodes = (
"386 -24 OFFCURVE",
"461 46 OFFCURVE",
"482 130 CURVE",
"422 154 LINE",
"410 108 OFFCURVE",
"374 44 OFFCURVE",
"296 44 CURVE SMOOTH",
"164 44 OFFCURVE",
"144 338 OFFCURVE",
"144 612 CURVE SMOOTH",
"144 892 OFFCURVE",
"200 1092 OFFCURVE",
"298 1092 CURVE SMOOTH",
"402 1092 OFFCURVE",
"424 880 OFFCURVE",
"424 618 CURVE",
"130 618 LINE",
"130 552 LINE",
"494 552 LINE",
"495 582 OFFCURVE",
"495 613 OFFCURVE",
"495 645 CURVE SMOOTH",
"495 885 OFFCURVE",
"468 1158 OFFCURVE",
"298 1158 CURVE SMOOTH",
"152 1158 OFFCURVE",
"74 948 OFFCURVE",
"74 578 CURVE SMOOTH",
"74 310 OFFCURVE",
"98 -24 OFFCURVE",
"296 -24 CURVE SMOOTH"
);
}
);
width = 556;
},
{
anchors = (
{
name = bottom;
position = "{528, 0}";
},
{
name = ogonek;
position = "{602, 4}";
},
{
name = top;
position = "{472, 1152}";
}
);
layerId = "42FCB8D3-5141-4304-9365-2E27830BD286";
paths = (
{
closed = 1;
nodes = (
"646 -22 OFFCURVE",
"776 56 OFFCURVE",
"814 136 CURVE",
"730 184 LINE",
"700 126 OFFCURVE",
"622 70 OFFCURVE",
"508 70 CURVE SMOOTH",
"404 70 OFFCURVE",
"380 168 OFFCURVE",
"380 568 CURVE SMOOTH",
"380 962 OFFCURVE",
"428 1068 OFFCURVE",
"478 1068 CURVE SMOOTH",
"526 1068 OFFCURVE",
"560 962 OFFCURVE",
"560 574 CURVE",
"364 574 LINE",
"364 486 LINE",
"868 486 LINE",
"870 517 OFFCURVE",
"871 546 OFFCURVE",
"871 575 CURVE SMOOTH",
"871 977 OFFCURVE",
"691 1158 OFFCURVE",
"478 1158 CURVE SMOOTH",
"302 1158 OFFCURVE",
"50 1014 OFFCURVE",
"50 580 CURVE SMOOTH",
"50 152 OFFCURVE",
"246 -22 OFFCURVE",
"486 -22 CURVE SMOOTH"
);
}
);
width = 920;
}
);
leftKerningGroup = o;
rightKerningGroup = o;
unicode = 0065;
},
{
glyphname = schwa;
lastChange = "2020-02-10 15:46:03 +0000";
layers = (
{
components = (
{
name = e;
transform = "{-1, 0, 0, -1, 551, 1151}";
}
);
layerId = "798A1B98-D718-4469-8D5D-1F04921BF637";
paths = (
{
closed = 1;
nodes = (
"68 1003 LINE",
"89 1003 LINE",
"101 1079 LINE",
"94 1079 OFFCURVE",
"90 1116 OFFCURVE",
"90 1151 CURVE",
"68 1151 LINE"
);
}
);
width = 551;
},
{
components = (
{
name = e;
transform = "{-1, 0, 0, -1, 867, 1151}";
}
);
layerId = "A4F0BE09-87B8-499B-8BA0-E8BD95093B86";
paths = (
{
closed = 1;
nodes = (
"68 1001 LINE",
"89 1001 LINE",
"113 1074 LINE",
"96 1074 OFFCURVE",
"90 1088 OFFCURVE",
"90 1151 CURVE",
"68 1151 LINE"
);
}
);
width = 862;
},
{
components = (
{
name = e;
transform = "{-1, 0, 0, -1, 571, 1151}";
}
);
layerId = "2224527B-843E-45D0-ACBE-AC9678FC6685";
paths = (
{
closed = 1;
nodes = (
"78 997 LINE",
"149 997 LINE",
"141 1079 LINE",
"134 1079 OFFCURVE",
"132 1116 OFFCURVE",
"132 1151 CURVE",
"78 1151 LINE"
);
}
);
width = 571;
},
{
components = (
{
name = e;
transform = "{-1, 0, 0, -1, 933, 1151}";
}
);
layerId = "42FCB8D3-5141-4304-9365-2E27830BD286";
paths = (
{
closed = 1;
nodes = (
"67 967 LINE",
"203 967 LINE",
"195 1079 LINE",
"169 1079 OFFCURVE",
"156 1096 OFFCURVE",
"156 1151 CURVE",
"67 1151 LINE"
);
}
);
width = 944;
}
);
leftKerningGroup = o;
leftMetricsKey = o;
rightKerningGroup = o;
rightMetricsKey = o;
unicode = 0259;
},
{
glyphname = f;
lastChange = "2020-01-14 17:56:03 +0000";
layers = (
{
anchors = (
{
name = bottom;
position = "{240, 0}";
},
{
name = top;
position = "{240, 1650}";
}
);
layerId = "798A1B98-D718-4469-8D5D-1F04921BF637";
paths = (
{
closed = 1;
nodes = (
"322 0 LINE",
"322 22 LINE",
"226 22 LINE",
"226 1130 LINE",
"334 1130 LINE",
"334 1152 LINE",
"226 1152 LINE",
"226 1322 LINE SMOOTH",
"226 1538 OFFCURVE",
"228 1638 OFFCURVE",
"318 1638 CURVE SMOOTH",
"366 1638 OFFCURVE",
"408 1614 OFFCURVE",
"408 1510 CURVE SMOOTH",
"408 1466 OFFCURVE",
"398 1432 OFFCURVE",
"398 1398 CURVE SMOOTH",
"398 1364 OFFCURVE",
"402 1338 OFFCURVE",
"430 1338 CURVE SMOOTH",
"460 1338 OFFCURVE",
"464 1364 OFFCURVE",
"464 1408 CURVE SMOOTH",
"464 1552 OFFCURVE",
"412 1662 OFFCURVE",
"320 1662 CURVE SMOOTH",
"210 1662 OFFCURVE",
"160 1548 OFFCURVE",
"160 1328 CURVE SMOOTH",
"160 1152 LINE",
"54 1152 LINE",
"54 1130 LINE",
"160 1130 LINE",
"160 22 LINE",
"66 22 LINE",
"66 0 LINE"
);
}
);
width = 440;
},
{
anchors = (
{
name = bottom;
position = "{374, 0}";
},
{
name = top;
position = "{374, 1650}";
}
);
layerId = "A4F0BE09-87B8-499B-8BA0-E8BD95093B86";
paths = (
{
closed = 1;
nodes = (
"574 0 LINE",
"574 22 LINE",
"466 22 LINE",
"466 1130 LINE",
"608 1130 LINE",
"608 1152 LINE",
"466 1152 LINE",
"466 1234 LINE SMOOTH",
"466 1408 OFFCURVE",
"470 1638 OFFCURVE",
"554 1638 CURVE SMOOTH",
"614 1638 OFFCURVE",
"632 1608 OFFCURVE",
"632 1554 CURVE SMOOTH",
"632 1490 OFFCURVE",
"544 1426 OFFCURVE",
"544 1336 CURVE SMOOTH",
"544 1240 OFFCURVE",
"588 1184 OFFCURVE",
"664 1184 CURVE SMOOTH",
"740 1184 OFFCURVE",
"790 1244 OFFCURVE",
"790 1356 CURVE SMOOTH",
"790 1528 OFFCURVE",
"692 1662 OFFCURVE",
"532 1662 CURVE SMOOTH",
"260 1662 OFFCURVE",
"136 1472 OFFCURVE",
"136 1252 CURVE SMOOTH",
"136 1152 LINE",
"10 1152 LINE",
"10 1130 LINE",
"136 1130 LINE",
"136 22 LINE",
"34 22 LINE",
"34 0 LINE"
);
}
);
width = 702;
},
{
anchors = (
{
name = bottom;
position = "{250, 0}";
},
{
name = top;
position = "{250, 1650}";
}
);
layerId = "2224527B-843E-45D0-ACBE-AC9678FC6685";
paths = (
{
closed = 1;
nodes = (
"354 0 LINE",
"354 66 LINE",
"236 66 LINE",
"236 1086 LINE",
"366 1086 LINE",
"366 1152 LINE",
"236 1152 LINE",
"236 1340 LINE SMOOTH",
"236 1512 OFFCURVE",
"272 1596 OFFCURVE",
"340 1596 CURVE SMOOTH",
"386 1596 OFFCURVE",
"414 1540 OFFCURVE",
"414 1488 CURVE SMOOTH",
"414 1444 OFFCURVE",
"402 1430 OFFCURVE",
"402 1396 CURVE SMOOTH",
"402 1362 OFFCURVE",
"414 1338 OFFCURVE",
"442 1338 CURVE SMOOTH",
"472 1338 OFFCURVE",
"484 1364 OFFCURVE",
"484 1408 CURVE SMOOTH",
"484 1554 OFFCURVE",
"434 1662 OFFCURVE",
"340 1662 CURVE SMOOTH",
"238 1662 OFFCURVE",
"170 1570 OFFCURVE",
"170 1332 CURVE SMOOTH",
"170 1152 LINE",
"42 1152 LINE",
"42 1086 LINE",
"170 1086 LINE",
"170 66 LINE",
"54 66 LINE",
"54 0 LINE"
);
}
);
width = 460;
},
{
anchors = (
{
name = bottom;
position = "{404, 0}";
},
{
name = top;
position = "{404, 1650}";
}
);
layerId = "42FCB8D3-5141-4304-9365-2E27830BD286";
paths = (
{
closed = 1;
nodes = (
"628 0 LINE",
"628 88 LINE",
"496 88 LINE",
"496 1064 LINE",
"660 1064 LINE",
"660 1152 LINE",
"496 1152 LINE",
"496 1234 LINE SMOOTH",
"496 1408 OFFCURVE",
"500 1572 OFFCURVE",
"592 1572 CURVE SMOOTH",
"624 1572 OFFCURVE",
"660 1550 OFFCURVE",
"660 1498 CURVE SMOOTH",
"660 1446 OFFCURVE",
"568 1432 OFFCURVE",
"568 1324 CURVE SMOOTH",
"568 1250 OFFCURVE",
"602 1184 OFFCURVE",
"694 1184 CURVE SMOOTH",
"780 1184 OFFCURVE",
"826 1244 OFFCURVE",
"826 1356 CURVE SMOOTH",
"826 1538 OFFCURVE",
"730 1662 OFFCURVE",
"562 1662 CURVE SMOOTH",
"290 1662 OFFCURVE",
"166 1472 OFFCURVE",
"166 1252 CURVE SMOOTH",
"166 1152 LINE",
"16 1152 LINE",
"16 1064 LINE",
"166 1064 LINE",
"166 88 LINE",
"40 88 LINE",
"40 0 LINE"
);
}
);
width = 762;
}
);
leftKerningGroup = f;
rightKerningGroup = f;
unicode = 0066;
},
{
glyphname = g;
lastChange = "2020-01-14 17:56:03 +0000";
layers = (
{
anchors = (
{
name = bottom;
position = "{296, -550}";
},
{
name = top;
position = "{304, 1152}";
}
);
layerId = "798A1B98-D718-4469-8D5D-1F04921BF637";
paths = (
{
closed = 1;
nodes = (
"460 -548 OFFCURVE",
"568 -434 OFFCURVE",
"568 -234 CURVE SMOOTH",
"568 -56 OFFCURVE",
"492 21 OFFCURVE",
"320 42 CURVE SMOOTH",
"168 61 OFFCURVE",
"114 99 OFFCURVE",
"114 188 CURVE SMOOTH",
"114 264 OFFCURVE",
"173 288 OFFCURVE",
"199 288 CURVE SMOOTH",
"204 288 OFFCURVE",
"208 288 OFFCURVE",
"210 286 CURVE",
"215 281 OFFCURVE",
"246 254 OFFCURVE",
"306 254 CURVE SMOOTH",
"444 254 OFFCURVE",
"514 404 OFFCURVE",
"514 716 CURVE SMOOTH",
"514 986 OFFCURVE",
"458 1158 OFFCURVE",
"312 1158 CURVE SMOOTH",
"196 1158 OFFCURVE",
"96 1048 OFFCURVE",
"96 690 CURVE SMOOTH",
"96 496 OFFCURVE",
"135 361 OFFCURVE",
"197 303 CURVE",
"195 305 OFFCURVE",
"184 305 OFFCURVE",
"179 305 CURVE SMOOTH",
"142 305 OFFCURVE",
"66 264 OFFCURVE",
"66 162 CURVE SMOOTH",
"66 60 OFFCURVE",
"160 15 OFFCURVE",
"198 8 CURVE",
"114 -30 OFFCURVE",
"54 -126 OFFCURVE",
"54 -256 CURVE SMOOTH",
"54 -396 OFFCURVE",
"122 -548 OFFCURVE",
"308 -548 CURVE SMOOTH"
);
},
{
closed = 1;
nodes = (
"158 -528 OFFCURVE",
"110 -376 OFFCURVE",
"110 -258 CURVE SMOOTH",
"110 -164 OFFCURVE",
"138 -50 OFFCURVE",
"228 0 CURVE",
"246 -2 OFFCURVE",
"262 -4 OFFCURVE",
"340 -16 CURVE SMOOTH",
"440 -30 OFFCURVE",
"516 -98 OFFCURVE",
"516 -274 CURVE SMOOTH",
"516 -412 OFFCURVE",
"446 -528 OFFCURVE",
"308 -528 CURVE SMOOTH"
);
},
{
closed = 1;
nodes = (
"234 276 OFFCURVE",
"168 346 OFFCURVE",
"168 704 CURVE SMOOTH",
"168 1058 OFFCURVE",
"234 1136 OFFCURVE",
"310 1136 CURVE SMOOTH",
"384 1136 OFFCURVE",
"442 1058 OFFCURVE",
"442 712 CURVE SMOOTH",
"442 346 OFFCURVE",
"382 276 OFFCURVE",
"306 276 CURVE SMOOTH"
);
},
{
closed = 1;
nodes = (
"426 1094 LINE",
"426 1118 OFFCURVE",
"448 1144 OFFCURVE",
"468 1144 CURVE SMOOTH",
"496 1144 OFFCURVE",
"496 1106 OFFCURVE",
"528 1106 CURVE SMOOTH",
"552 1106 OFFCURVE",
"568 1126 OFFCURVE",
"568 1148 CURVE SMOOTH",
"568 1172 OFFCURVE",
"552 1192 OFFCURVE",
"522 1192 CURVE SMOOTH",
"474 1192 OFFCURVE",
"416 1146 OFFCURVE",
"410 1094 CURVE"
);
}
);
width = 602;
},
{
anchors = (
{
name = bottom;
position = "{466, -550}";
},
{
name = top;
position = "{466, 1152}";
}
);
layerId = "A4F0BE09-87B8-499B-8BA0-E8BD95093B86";
paths = (
{
closed = 1;
nodes = (
"628 -548 OFFCURVE",
"910 -486 OFFCURVE",
"910 -224 CURVE SMOOTH",
"910 -16 OFFCURVE",
"768 66 OFFCURVE",
"532 112 CURVE SMOOTH",
"318 154 OFFCURVE",
"190 196 OFFCURVE",
"190 234 CURVE SMOOTH",
"190 271 OFFCURVE",
"262 287 OFFCURVE",
"288 287 CURVE SMOOTH",
"292 287 OFFCURVE",
"294 287 OFFCURVE",
"296 286 CURVE",
"310 278 OFFCURVE",
"369 254 OFFCURVE",
"464 254 CURVE SMOOTH",
"606 254 OFFCURVE",
"866 316 OFFCURVE",
"866 716 CURVE SMOOTH",
"866 1017 OFFCURVE",
"716 1158 OFFCURVE",
"466 1158 CURVE SMOOTH",
"282 1158 OFFCURVE",
"64 1054 OFFCURVE",
"64 706 CURVE SMOOTH",
"64 414 OFFCURVE",
"232 320 OFFCURVE",
"272 300 CURVE",
"270 301 OFFCURVE",
"265 301 OFFCURVE",
"261 301 CURVE SMOOTH",
"207 300 OFFCURVE",
"92 261 OFFCURVE",
"92 168 CURVE SMOOTH",
"92 46 OFFCURVE",
"300 -16 OFFCURVE",
"316 -20 CURVE",
"190 -11 OFFCURVE",
"38 -110 OFFCURVE",
"38 -255 CURVE SMOOTH",
"38 -470 OFFCURVE",
"264 -548 OFFCURVE",
"466 -548 CURVE SMOOTH"
);
},
{
closed = 1;
nodes = (
"360 -528 OFFCURVE",
"304 -388 OFFCURVE",
"304 -254 CURVE SMOOTH",
"304 -168 OFFCURVE",
"322 -48 OFFCURVE",
"368 -36 CURVE",
"400 -44 OFFCURVE",
"500 -89 OFFCURVE",
"538 -111 CURVE SMOOTH",
"604 -150 OFFCURVE",
"622 -214 OFFCURVE",
"622 -296 CURVE SMOOTH",
"622 -416 OFFCURVE",
"560 -528 OFFCURVE",
"466 -528 CURVE SMOOTH"
);
},
{
closed = 1;
nodes = (
"424 276 OFFCURVE",
"398 340 OFFCURVE",
"398 708 CURVE SMOOTH",
"398 1060 OFFCURVE",
"424 1136 OFFCURVE",
"464 1136 CURVE SMOOTH",
"504 1136 OFFCURVE",
"530 1060 OFFCURVE",
"530 712 CURVE SMOOTH",
"530 336 OFFCURVE",
"504 276 OFFCURVE",
"464 276 CURVE SMOOTH"
);
},
{
closed = 1;
nodes = (
"682 1076 LINE",
"682 1116 OFFCURVE",
"698 1140 OFFCURVE",
"716 1140 CURVE SMOOTH",
"748 1140 OFFCURVE",
"780 1066 OFFCURVE",
"840 1066 CURVE SMOOTH",
"896 1066 OFFCURVE",
"930 1098 OFFCURVE",
"930 1164 CURVE SMOOTH",
"930 1230 OFFCURVE",
"890 1264 OFFCURVE",
"826 1264 CURVE SMOOTH",
"728 1264 OFFCURVE",
"668 1172 OFFCURVE",
"658 1076 CURVE"
);
}
);
width = 968;
},
{
anchors = (
{
name = bottom;
position = "{306, -550}";
},
{
name = top;
position = "{314, 1152}";
}
);
layerId = "2224527B-843E-45D0-ACBE-AC9678FC6685";
paths = (
{
closed = 1;
nodes = (
"470 -548 OFFCURVE",
"582 -438 OFFCURVE",
"582 -238 CURVE SMOOTH",
"582 -62 OFFCURVE",
"507 34 OFFCURVE",
"320 54 CURVE SMOOTH",
"184 69 OFFCURVE",
"142 106 OFFCURVE",
"142 184 CURVE SMOOTH",
"142 240 OFFCURVE",
"188 280 OFFCURVE",
"222 280 CURVE SMOOTH",
"228 280 OFFCURVE",
"230 279 OFFCURVE",
"232 278 CURVE",
"234 276 OFFCURVE",
"262 254 OFFCURVE",
"316 254 CURVE SMOOTH",
"454 254 OFFCURVE",
"524 404 OFFCURVE",
"524 716 CURVE SMOOTH",
"524 986 OFFCURVE",
"468 1158 OFFCURVE",
"322 1158 CURVE SMOOTH",
"188 1158 OFFCURVE",
"106 1040 OFFCURVE",
"106 692 CURVE SMOOTH",
"106 486 OFFCURVE",
"148 356 OFFCURVE",
"194 318 CURVE",
"193 318 OFFCURVE",
"191 319 OFFCURVE",
"184 319 CURVE SMOOTH",
"139 319 OFFCURVE",
"74 268 OFFCURVE",
"74 176 CURVE SMOOTH",
"74 60 OFFCURVE",
"160 20 OFFCURVE",
"188 14 CURVE",
"138 -10 OFFCURVE",
"56 -78 OFFCURVE",
"56 -254 CURVE SMOOTH",
"56 -394 OFFCURVE",
"130 -548 OFFCURVE",
"318 -548 CURVE SMOOTH"
);
},
{
closed = 1;
nodes = (
"186 -486 OFFCURVE",
"126 -356 OFFCURVE",
"126 -244 CURVE SMOOTH",
"126 -150 OFFCURVE",
"160 -52 OFFCURVE",
"252 0 CURVE",
"264 -3 OFFCURVE",
"304 -10 OFFCURVE",
"350 -16 CURVE SMOOTH",
"470 -34 OFFCURVE",
"514 -92 OFFCURVE",
"514 -258 CURVE SMOOTH",
"514 -392 OFFCURVE",
"436 -486 OFFCURVE",
"318 -486 CURVE SMOOTH"
);
},
{
closed = 1;
nodes = (
"244 320 OFFCURVE",
"178 398 OFFCURVE",
"178 704 CURVE SMOOTH",
"178 1016 OFFCURVE",
"244 1092 OFFCURVE",
"320 1092 CURVE SMOOTH",
"394 1092 OFFCURVE",
"452 1016 OFFCURVE",
"452 712 CURVE SMOOTH",
"452 398 OFFCURVE",
"392 320 OFFCURVE",
"316 320 CURVE SMOOTH"
);
},
{
closed = 1;
nodes = (
"442 1090 LINE",
"442 1114 OFFCURVE",
"458 1136 OFFCURVE",
"478 1136 CURVE SMOOTH",
"506 1136 OFFCURVE",
"506 1106 OFFCURVE",
"538 1106 CURVE SMOOTH",
"566 1106 OFFCURVE",
"584 1128 OFFCURVE",
"584 1156 CURVE SMOOTH",
"584 1192 OFFCURVE",
"566 1212 OFFCURVE",
"518 1212 CURVE SMOOTH",
"464 1212 OFFCURVE",
"400 1166 OFFCURVE",
"390 1096 CURVE"
);
}
);
width = 622;
},
{
anchors = (
{
name = bottom;
position = "{496, -550}";
},
{
name = top;
position = "{496, 1152}";
}
);
layerId = "42FCB8D3-5141-4304-9365-2E27830BD286";
paths = (
{
closed = 1;
nodes = (
"658 -548 OFFCURVE",
"948 -492 OFFCURVE",
"948 -230 CURVE SMOOTH",
"948 -20 OFFCURVE",
"798 66 OFFCURVE",
"562 112 CURVE SMOOTH",
"348 154 OFFCURVE",
"286 190 OFFCURVE",
"286 238 CURVE SMOOTH",
"286 270 OFFCURVE",
"304 286 OFFCURVE",
"318 286 CURVE SMOOTH",
"319 286 OFFCURVE",
"318 286 OFFCURVE",
"320 286 CURVE",
"335 279 OFFCURVE",
"398 254 OFFCURVE",
"494 254 CURVE SMOOTH",
"636 254 OFFCURVE",
"904 316 OFFCURVE",
"904 716 CURVE SMOOTH",
"904 982 OFFCURVE",
"746 1158 OFFCURVE",
"496 1158 CURVE SMOOTH",
"352 1158 OFFCURVE",
"86 1054 OFFCURVE",
"86 706 CURVE SMOOTH",
"86 438 OFFCURVE",
"222 352 OFFCURVE",
"230 348 CURVE",
"224 347 OFFCURVE",
"218 345 OFFCURVE",
"211 342 CURVE SMOOTH",
"167 324 OFFCURVE",
"112 275 OFFCURVE",
"112 200 CURVE SMOOTH",
"112 48 OFFCURVE",
"262 4 OFFCURVE",
"280 0 CURVE",
"270 0 OFFCURVE",
"56 -54 OFFCURVE",
"56 -256 CURVE SMOOTH",
"56 -472 OFFCURVE",
"294 -548 OFFCURVE",
"496 -548 CURVE SMOOTH"
);
},
{
closed = 1;
nodes = (
"390 -462 OFFCURVE",
"324 -388 OFFCURVE",
"324 -254 CURVE SMOOTH",
"324 -119 OFFCURVE",
"389 -56 OFFCURVE",
"416 -42 CURVE",
"450 -54 OFFCURVE",
"526 -86 OFFCURVE",
"568 -118 CURVE SMOOTH",
"636 -168 OFFCURVE",
"652 -212 OFFCURVE",
"652 -294 CURVE SMOOTH",
"652 -380 OFFCURVE",
"590 -462 OFFCURVE",
"496 -462 CURVE SMOOTH"
);
},
{
closed = 1;
nodes = (
"458 347 OFFCURVE",
"414 377 OFFCURVE",
"414 708 CURVE SMOOTH",
"414 1027 OFFCURVE",
"454 1065 OFFCURVE",
"494 1065 CURVE SMOOTH",
"534 1065 OFFCURVE",
"576 1027 OFFCURVE",
"576 712 CURVE SMOOTH",
"576 379 OFFCURVE",
"536 347 OFFCURVE",
"494 347 CURVE SMOOTH"
);
},
{
closed = 1;
nodes = (
"716 1076 LINE",
"716 1116 OFFCURVE",
"736 1122 OFFCURVE",
"754 1122 CURVE SMOOTH",
"810 1122 OFFCURVE",
"796 1048 OFFCURVE",
"880 1048 CURVE SMOOTH",
"934 1048 OFFCURVE",
"974 1084 OFFCURVE",
"974 1148 CURVE SMOOTH",
"974 1212 OFFCURVE",
"942 1264 OFFCURVE",
"854 1264 CURVE SMOOTH",
"748 1264 OFFCURVE",
"640 1194 OFFCURVE",
"622 1076 CURVE"
);
}
);
width = 1028;
}
);
leftKerningGroup = g;
rightKerningGroup = g;
unicode = 0067;
},
{
glyphname = h;
lastChange = "2020-01-14 17:56:03 +0000";
layers = (
{
anchors = (
{
name = bottom;
position = "{362, 0}";
},
{
name = center;
position = "{180, 1412}";
},
{
name = top;
position = "{362, 1650}";
}
);
layerId = "798A1B98-D718-4469-8D5D-1F04921BF637";
paths = (
{
closed = 1;
nodes = (
"300 0 LINE",
"300 22 LINE",
"206 22 LINE",
"206 900 LINE",
"210 1022 OFFCURVE",
"278 1134 OFFCURVE",
"378 1134 CURVE SMOOTH",
"474 1134 OFFCURVE",
"512 1028 OFFCURVE",
"512 792 CURVE SMOOTH",
"512 22 LINE",
"418 22 LINE",
"418 0 LINE",
"670 0 LINE",
"670 22 LINE",
"578 22 LINE",
"578 822 LINE SMOOTH",
"578 1110 OFFCURVE",
"476 1160 OFFCURVE",
"392 1160 CURVE SMOOTH",
"292 1160 OFFCURVE",
"212 1068 OFFCURVE",
"206 1000 CURVE",
"206 1650 LINE",
"44 1650 LINE",
"44 1628 LINE",
"140 1628 LINE",
"140 22 LINE",
"44 22 LINE",
"44 0 LINE"
);
}
);
width = 714;
},
{
anchors = (
{
name = bottom;
position = "{526, 0}";
},
{
name = center;
position = "{306, 1412}";
},
{
name = top;
position = "{526, 1650}";
}
);
layerId = "A4F0BE09-87B8-499B-8BA0-E8BD95093B86";
paths = (
{
closed = 1;
nodes = (
"522 0 LINE",
"522 22 LINE",
"460 22 LINE",
"460 898 LINE",
"466 994 OFFCURVE",
"510 1110 OFFCURVE",
"548 1110 CURVE SMOOTH",
"586 1110 OFFCURVE",
"586 1000 OFFCURVE",
"586 782 CURVE SMOOTH",
"586 22 LINE",
"522 22 LINE",
"522 0 LINE",
"1008 0 LINE",
"1008 22 LINE",
"916 22 LINE",
"916 790 LINE SMOOTH",
"916 1068 OFFCURVE",
"804 1158 OFFCURVE",
"648 1158 CURVE SMOOTH",
"504 1158 OFFCURVE",
"475 1060 OFFCURVE",
"460 1008 CURVE",
"460 1650 LINE",
"34 1650 LINE",
"34 1628 LINE",
"130 1628 LINE",
"130 22 LINE",
"34 22 LINE",
"34 0 LINE"
);
}
);
width = 1030;
},
{
anchors = (
{
name = bottom;
position = "{372, 0}";
},
{
name = center;
position = "{190, 1412}";
},
{
name = top;
position = "{372, 1650}";
}
);
layerId = "2224527B-843E-45D0-ACBE-AC9678FC6685";
paths = (
{
closed = 1;
nodes = (
"312 0 LINE",
"312 66 LINE",
"216 66 LINE",
"216 836 LINE",
"218 940 OFFCURVE",
"296 1090 OFFCURVE",
"388 1090 CURVE SMOOTH",
"484 1090 OFFCURVE",
"522 1006 OFFCURVE",
"522 792 CURVE SMOOTH",
"522 66 LINE",
"426 66 LINE",
"426 0 LINE",
"702 0 LINE",
"702 66 LINE",
"588 66 LINE",
"588 822 LINE SMOOTH",
"588 1110 OFFCURVE",
"486 1160 OFFCURVE",
"402 1160 CURVE SMOOTH",
"302 1160 OFFCURVE",
"222 1056 OFFCURVE",
"216 1010 CURVE",
"216 1650 LINE",
"38 1650 LINE",
"38 1584 LINE",
"150 1584 LINE",
"150 66 LINE",
"38 66 LINE",
"38 0 LINE"
);
}
);
width = 734;
},
{
anchors = (
{
name = bottom;
position = "{546, 0}";
},
{
name = center;
position = "{326, 1412}";
},
{
name = top;
position = "{546, 1650}";
}
);
layerId = "42FCB8D3-5141-4304-9365-2E27830BD286";
paths = (
{
closed = 1;
nodes = (
"556 0 LINE",
"556 88 LINE",
"480 88 LINE",
"480 800 LINE",
"484 936 OFFCURVE",
"528 978 OFFCURVE",
"568 978 CURVE SMOOTH",
"604 978 OFFCURVE",
"626 936 OFFCURVE",
"626 782 CURVE SMOOTH",
"626 88 LINE",
"556 88 LINE",
"556 0 LINE",
"1070 0 LINE",
"1070 88 LINE",
"956 88 LINE",
"956 790 LINE SMOOTH",
"956 1068 OFFCURVE",
"844 1158 OFFCURVE",
"688 1158 CURVE SMOOTH",
"546 1158 OFFCURVE",
"480 1070 OFFCURVE",
"480 1066 CURVE",
"480 1650 LINE",
"34 1650 LINE",
"34 1562 LINE",
"150 1562 LINE",
"150 88 LINE",
"34 88 LINE",
"34 0 LINE"
);
}
);
width = 1090;
}
);
leftKerningGroup = h;
rightKerningGroup = n;
unicode = 0068;
},
{
glyphname = i;
lastChange = "2020-01-14 17:56:03 +0000";
layers = (
{
anchors = (
{
name = bottom;
position = "{180, 0}";
}
);
layerId = "798A1B98-D718-4469-8D5D-1F04921BF637";
paths = (
{
closed = 1;
nodes = (
"308 0 LINE",
"308 22 LINE",
"208 22 LINE",
"208 1152 LINE",
"44 1152 LINE",
"44 1130 LINE",
"142 1130 LINE",
"142 22 LINE",
"44 22 LINE",
"44 0 LINE"
);
},
{
closed = 1;
nodes = (
"202 1478 OFFCURVE",
"228 1506 OFFCURVE",
"228 1538 CURVE SMOOTH",
"228 1572 OFFCURVE",
"202 1598 OFFCURVE",
"172 1598 CURVE SMOOTH",
"136 1598 OFFCURVE",
"110 1572 OFFCURVE",
"110 1538 CURVE SMOOTH",
"110 1506 OFFCURVE",
"136 1478 OFFCURVE",
"172 1478 CURVE SMOOTH"
);
}
);
width = 350;
},
{
anchors = (
{
name = bottom;
position = "{280, 0}";
}
);
layerId = "A4F0BE09-87B8-499B-8BA0-E8BD95093B86";
paths = (
{
closed = 1;
nodes = (
"540 0 LINE",
"540 22 LINE",
"440 22 LINE",
"440 1152 LINE",
"12 1152 LINE",
"12 1130 LINE",
"110 1130 LINE",
"110 22 LINE",
"12 22 LINE",
"12 0 LINE"
);
},
{
closed = 1;
nodes = (
"386 1256 OFFCURVE",
"476 1346 OFFCURVE",
"476 1460 CURVE SMOOTH",
"476 1570 OFFCURVE",
"386 1660 OFFCURVE",
"276 1660 CURVE SMOOTH",
"164 1660 OFFCURVE",
"74 1570 OFFCURVE",
"74 1460 CURVE SMOOTH",
"74 1346 OFFCURVE",
"164 1256 OFFCURVE",
"276 1256 CURVE SMOOTH"
);
}
);
width = 550;
},
{
anchors = (
{
name = bottom;
position = "{190, 0}";
}
);
layerId = "2224527B-843E-45D0-ACBE-AC9678FC6685";
paths = (
{
closed = 1;
nodes = (
"340 0 LINE",
"340 66 LINE",
"218 66 LINE",
"218 1152 LINE",
"32 1152 LINE",
"32 1086 LINE",
"152 1086 LINE",
"152 66 LINE",
"32 66 LINE",
"32 0 LINE"
);
},
{
closed = 1;
nodes = (
"220 1464 OFFCURVE",
"254 1496 OFFCURVE",
"254 1538 CURVE SMOOTH",
"254 1580 OFFCURVE",
"220 1614 OFFCURVE",
"182 1614 CURVE SMOOTH",
"138 1614 OFFCURVE",
"104 1580 OFFCURVE",
"104 1538 CURVE SMOOTH",
"104 1496 OFFCURVE",
"138 1464 OFFCURVE",
"182 1464 CURVE SMOOTH"
);
}
);
width = 370;
},
{
anchors = (
{
name = bottom;
position = "{310, 0}";
}
);
layerId = "42FCB8D3-5141-4304-9365-2E27830BD286";
paths = (
{
closed = 1;
nodes = (
"582 0 LINE",
"582 88 LINE",
"470 88 LINE",
"470 1152 LINE",
"28 1152 LINE",
"28 1064 LINE",
"140 1064 LINE",
"140 88 LINE",
"28 88 LINE",
"28 0 LINE"
);
},
{
closed = 1;
nodes = (
"416 1256 OFFCURVE",
"506 1346 OFFCURVE",
"506 1460 CURVE SMOOTH",
"506 1570 OFFCURVE",
"416 1660 OFFCURVE",
"306 1660 CURVE SMOOTH",
"194 1660 OFFCURVE",
"104 1570 OFFCURVE",
"104 1460 CURVE SMOOTH",
"104 1346 OFFCURVE",
"194 1256 OFFCURVE",
"306 1256 CURVE SMOOTH"
);
}
);
width = 610;
}
);
leftKerningGroup = i;
rightKerningGroup = i;
unicode = 0069;
},
{
glyphname = idotless;
lastChange = "2020-02-10 14:57:48 +0000";
layers = (
{
anchors = (
{
name = bottom;
position = "{206, 0}";
},
{
name = ogonek;
position = "{308, 20}";
},
{
name = top;
position = "{201, 1152}";
}
);
layerId = "798A1B98-D718-4469-8D5D-1F04921BF637";
paths = (
{
closed = 1;
nodes = (
"334 0 LINE",
"334 22 LINE",
"234 22 LINE",
"234 1152 LINE",
"70 1152 LINE",
"70 1130 LINE",
"168 1130 LINE",
"168 22 LINE",
"70 22 LINE",
"70 0 LINE"
);
}
);
width = 412;
},
{
anchors = (
{
name = bottom;
position = "{308, 2}";
},
{
name = ogonek;
position = "{466, 22}";
},
{
name = top;
position = "{306, 1152}";
}
);
layerId = "A4F0BE09-87B8-499B-8BA0-E8BD95093B86";
paths = (
{
closed = 1;
nodes = (
"546 0 LINE",
"546 22 LINE",
"470 22 LINE",
"470 1152 LINE",
"62 1152 LINE",
"62 1130 LINE",
"140 1130 LINE",
"140 22 LINE",
"62 22 LINE",
"62 0 LINE"
);
}
);
width = 616;
},
{
anchors = (
{
name = bottom;
position = "{216, 0}";
},
{
name = ogonek;
position = "{318, 20}";
},
{
name = top;
position = "{211, 1152}";
}
);
layerId = "2224527B-843E-45D0-ACBE-AC9678FC6685";
paths = (
{
closed = 1;
nodes = (
"366 0 LINE",
"366 66 LINE",
"244 66 LINE",
"244 1152 LINE",
"58 1152 LINE",
"58 1086 LINE",
"178 1086 LINE",
"178 66 LINE",
"58 66 LINE",
"58 0 LINE"
);
}
);
width = 432;
},
{
anchors = (
{
name = bottom;
position = "{338, 2}";
},
{
name = ogonek;
position = "{496, 22}";
},
{
name = top;
position = "{335, 1152}";
}
);
layerId = "42FCB8D3-5141-4304-9365-2E27830BD286";
paths = (
{
closed = 1;
nodes = (
"610 0 LINE",
"610 88 LINE",
"500 88 LINE",
"500 1152 LINE",
"60 1152 LINE",
"60 1064 LINE",
"170 1064 LINE",
"170 88 LINE",
"60 88 LINE",
"60 0 LINE"
);
}
);
width = 676;
}
);
leftKerningGroup = idotless;
rightKerningGroup = idotless;
unicode = 0131;
},
{
glyphname = j;
lastChange = "2020-02-10 16:06:54 +0000";
layers = (
{
layerId = "798A1B98-D718-4469-8D5D-1F04921BF637";
paths = (
{
closed = 1;
nodes = (
"148 -548 OFFCURVE",
"230 -416 OFFCURVE",
"230 -122 CURVE SMOOTH",
"230 1152 LINE",
"66 1152 LINE",
"66 1130 LINE",
"164 1130 LINE",
"164 -210 LINE SMOOTH",
"164 -406 OFFCURVE",
"114 -524 OFFCURVE",
"28 -524 CURVE SMOOTH",
"2 -524 OFFCURVE",
"-60 -522 OFFCURVE",
"-60 -418 CURVE SMOOTH",
"-60 -374 OFFCURVE",
"-50 -342 OFFCURVE",
"-50 -306 CURVE SMOOTH",
"-50 -274 OFFCURVE",
"-54 -246 OFFCURVE",
"-82 -246 CURVE SMOOTH",
"-110 -246 OFFCURVE",
"-116 -274 OFFCURVE",
"-116 -318 CURVE SMOOTH",
"-116 -452 OFFCURVE",
"-66 -548 OFFCURVE",
"28 -548 CURVE SMOOTH"
);
},
{
closed = 1;
nodes = (
"222 1478 OFFCURVE",
"248 1506 OFFCURVE",
"248 1538 CURVE SMOOTH",
"248 1572 OFFCURVE",
"222 1598 OFFCURVE",
"192 1598 CURVE SMOOTH",
"156 1598 OFFCURVE",
"130 1572 OFFCURVE",
"130 1538 CURVE SMOOTH",
"130 1506 OFFCURVE",
"156 1478 OFFCURVE",
"192 1478 CURVE SMOOTH"
);
}
);
width = 324;
},
{
layerId = "A4F0BE09-87B8-499B-8BA0-E8BD95093B86";
paths = (
{
closed = 1;
nodes = (
"286 -548 OFFCURVE",
"506 -460 OFFCURVE",
"506 -34 CURVE SMOOTH",
"506 1152 LINE",
"80 1152 LINE",
"80 1130 LINE",
"176 1130 LINE",
"176 -254 LINE SMOOTH",
"176 -450 OFFCURVE",
"156 -524 OFFCURVE",
"92 -524 CURVE SMOOTH",
"62 -524 OFFCURVE",
"26 -500 OFFCURVE",
"26 -448 CURVE SMOOTH",
"26 -406 OFFCURVE",
"112 -326 OFFCURVE",
"112 -236 CURVE SMOOTH",
"112 -144 OFFCURVE",
"64 -70 OFFCURVE",
"-8 -70 CURVE SMOOTH",
"-84 -70 OFFCURVE",
"-136 -130 OFFCURVE",
"-136 -242 CURVE SMOOTH",
"-136 -414 OFFCURVE",
"-14 -548 OFFCURVE",
"124 -548 CURVE SMOOTH"
);
},
{
closed = 1;
nodes = (
"446 1256 OFFCURVE",
"536 1346 OFFCURVE",
"536 1460 CURVE SMOOTH",
"536 1570 OFFCURVE",
"446 1660 OFFCURVE",
"336 1660 CURVE SMOOTH",
"224 1660 OFFCURVE",
"134 1570 OFFCURVE",
"134 1460 CURVE SMOOTH",
"134 1346 OFFCURVE",
"224 1256 OFFCURVE",
"336 1256 CURVE SMOOTH"
);
}
);
width = 602;
},
{
layerId = "2224527B-843E-45D0-ACBE-AC9678FC6685";
paths = (
{
closed = 1;
nodes = (
"158 -548 OFFCURVE",
"240 -416 OFFCURVE",
"240 -122 CURVE SMOOTH",
"240 1152 LINE",
"54 1152 LINE",
"54 1086 LINE",
"174 1086 LINE",
"174 -176 LINE SMOOTH",
"174 -372 OFFCURVE",
"124 -480 OFFCURVE",
"38 -480 CURVE SMOOTH",
"12 -480 OFFCURVE",
"-28 -478 OFFCURVE",
"-28 -418 CURVE SMOOTH",
"-28 -374 OFFCURVE",
"-18 -342 OFFCURVE",
"-18 -306 CURVE SMOOTH",
"-18 -274 OFFCURVE",
"-32 -246 OFFCURVE",
"-62 -246 CURVE SMOOTH",
"-90 -246 OFFCURVE",
"-106 -274 OFFCURVE",
"-106 -318 CURVE SMOOTH",
"-106 -452 OFFCURVE",
"-56 -548 OFFCURVE",
"38 -548 CURVE SMOOTH"
);
},
{
closed = 1;
nodes = (
"242 1464 OFFCURVE",
"274 1496 OFFCURVE",
"274 1538 CURVE SMOOTH",
"274 1580 OFFCURVE",
"242 1614 OFFCURVE",
"202 1614 CURVE SMOOTH",
"158 1614 OFFCURVE",
"124 1580 OFFCURVE",
"124 1538 CURVE SMOOTH",
"124 1496 OFFCURVE",
"158 1464 OFFCURVE",
"202 1464 CURVE SMOOTH"
);
}
);
width = 344;
},
{
layerId = "42FCB8D3-5141-4304-9365-2E27830BD286";
paths = (
{
closed = 1;
nodes = (
"316 -548 OFFCURVE",
"536 -460 OFFCURVE",
"536 -34 CURVE SMOOTH",
"536 1152 LINE",
"76 1152 LINE",
"76 1064 LINE",
"206 1064 LINE",
"206 -254 LINE SMOOTH",
"206 -392 OFFCURVE",
"198 -458 OFFCURVE",
"134 -458 CURVE SMOOTH",
"96 -458 OFFCURVE",
"90 -418 OFFCURVE",
"90 -382 CURVE SMOOTH",
"90 -324 OFFCURVE",
"142 -302 OFFCURVE",
"142 -212 CURVE SMOOTH",
"142 -120 OFFCURVE",
"102 -70 OFFCURVE",
"32 -70 CURVE SMOOTH",
"-44 -70 OFFCURVE",
"-106 -130 OFFCURVE",
"-106 -242 CURVE SMOOTH",
"-106 -414 OFFCURVE",
"0 -548 OFFCURVE",
"154 -548 CURVE SMOOTH"
);
},
{
closed = 1;
nodes = (
"476 1256 OFFCURVE",
"566 1346 OFFCURVE",
"566 1460 CURVE SMOOTH",
"566 1570 OFFCURVE",
"476 1660 OFFCURVE",
"366 1660 CURVE SMOOTH",
"254 1660 OFFCURVE",
"164 1570 OFFCURVE",
"164 1460 CURVE SMOOTH",
"164 1346 OFFCURVE",
"254 1256 OFFCURVE",
"366 1256 CURVE SMOOTH"
);
}
);
width = 662;
}
);
leftKerningGroup = j;
rightKerningGroup = j;
unicode = 006A;
},
{
glyphname = jdotless;
lastChange = "2020-02-11 15:43:33 +0000";
layers = (
{
anchors = (
{
name = bottom;
position = "{162, -550}";
},
{
name = top;
position = "{202, 1151}";
}
);
layerId = "798A1B98-D718-4469-8D5D-1F04921BF637";
paths = (
{
closed = 1;
nodes = (
"148 -548 OFFCURVE",
"230 -416 OFFCURVE",
"230 -122 CURVE SMOOTH",
"230 1152 LINE",
"66 1152 LINE",
"66 1130 LINE",
"164 1130 LINE",
"164 -210 LINE SMOOTH",
"164 -406 OFFCURVE",
"114 -524 OFFCURVE",
"28 -524 CURVE SMOOTH",
"2 -524 OFFCURVE",
"-60 -522 OFFCURVE",
"-60 -418 CURVE SMOOTH",
"-60 -374 OFFCURVE",
"-50 -342 OFFCURVE",
"-50 -306 CURVE SMOOTH",
"-50 -274 OFFCURVE",
"-54 -246 OFFCURVE",
"-82 -246 CURVE SMOOTH",
"-110 -246 OFFCURVE",
"-116 -274 OFFCURVE",
"-116 -318 CURVE SMOOTH",
"-116 -452 OFFCURVE",
"-66 -548 OFFCURVE",
"28 -548 CURVE SMOOTH"
);
}
);
width = 324;
},
{
anchors = (
{
name = bottom;
position = "{301, -550}";
},
{
name = top;
position = "{331, 1151}";
}
);
layerId = "A4F0BE09-87B8-499B-8BA0-E8BD95093B86";
paths = (
{
closed = 1;
nodes = (
"286 -548 OFFCURVE",
"506 -460 OFFCURVE",
"506 -34 CURVE SMOOTH",
"506 1152 LINE",
"80 1152 LINE",
"80 1130 LINE",
"176 1130 LINE",
"176 -254 LINE SMOOTH",
"176 -450 OFFCURVE",
"156 -524 OFFCURVE",
"92 -524 CURVE SMOOTH",
"62 -524 OFFCURVE",
"26 -500 OFFCURVE",
"26 -448 CURVE SMOOTH",
"26 -406 OFFCURVE",
"112 -326 OFFCURVE",
"112 -236 CURVE SMOOTH",
"112 -144 OFFCURVE",
"64 -70 OFFCURVE",
"-8 -70 CURVE SMOOTH",
"-84 -70 OFFCURVE",
"-136 -130 OFFCURVE",
"-136 -242 CURVE SMOOTH",
"-136 -414 OFFCURVE",
"-14 -548 OFFCURVE",
"124 -548 CURVE SMOOTH"
);
}
);
width = 602;
},
{
anchors = (
{
name = bottom;
position = "{172, -550}";
},
{
name = top;
position = "{192, 1151}";
}
);
layerId = "2224527B-843E-45D0-ACBE-AC9678FC6685";
paths = (
{
closed = 1;
nodes = (
"158 -548 OFFCURVE",
"240 -416 OFFCURVE",
"240 -122 CURVE SMOOTH",
"240 1152 LINE",
"54 1152 LINE",
"54 1086 LINE",
"174 1086 LINE",
"174 -176 LINE SMOOTH",
"174 -372 OFFCURVE",
"124 -480 OFFCURVE",
"38 -480 CURVE SMOOTH",
"12 -480 OFFCURVE",
"-28 -478 OFFCURVE",
"-28 -418 CURVE SMOOTH",
"-28 -374 OFFCURVE",
"-18 -342 OFFCURVE",
"-18 -306 CURVE SMOOTH",
"-18 -274 OFFCURVE",
"-32 -246 OFFCURVE",
"-62 -246 CURVE SMOOTH",
"-90 -246 OFFCURVE",
"-106 -274 OFFCURVE",
"-106 -318 CURVE SMOOTH",
"-106 -452 OFFCURVE",
"-56 -548 OFFCURVE",
"38 -548 CURVE SMOOTH"
);
}
);
width = 344;
},
{
anchors = (
{
name = bottom;
position = "{331, -550}";
},
{
name = top;
position = "{361, 1151}";
}
);
layerId = "42FCB8D3-5141-4304-9365-2E27830BD286";
paths = (
{
closed = 1;
nodes = (
"316 -548 OFFCURVE",
"536 -460 OFFCURVE",
"536 -34 CURVE SMOOTH",
"536 1152 LINE",
"76 1152 LINE",
"76 1064 LINE",
"206 1064 LINE",
"206 -254 LINE SMOOTH",
"206 -392 OFFCURVE",
"198 -458 OFFCURVE",
"134 -458 CURVE SMOOTH",
"96 -458 OFFCURVE",
"90 -418 OFFCURVE",
"90 -382 CURVE SMOOTH",
"90 -324 OFFCURVE",
"142 -302 OFFCURVE",
"142 -212 CURVE SMOOTH",
"142 -120 OFFCURVE",
"102 -70 OFFCURVE",
"32 -70 CURVE SMOOTH",
"-44 -70 OFFCURVE",
"-106 -130 OFFCURVE",
"-106 -242 CURVE SMOOTH",
"-106 -414 OFFCURVE",
"0 -548 OFFCURVE",
"154 -548 CURVE SMOOTH"
);
}
);
width = 662;
}
);
leftKerningGroup = jdotless;
rightKerningGroup = jdotless;
unicode = 0237;
},
{
glyphname = k;
lastChange = "2020-01-14 17:56:03 +0000";
layers = (
{
anchors = (
{
name = bottom;
position = "{350, 0}";
},
{
name = top;
position = "{350, 1650}";
}
);
layerId = "798A1B98-D718-4469-8D5D-1F04921BF637";
paths = (
{
closed = 1;
nodes = (
"310 0 LINE",
"310 22 LINE",
"216 22 LINE",
"216 596 LINE",
"262 686 LINE",
"508 22 LINE",
"414 22 LINE",
"414 0 LINE",
"660 0 LINE",
"660 22 LINE",
"584 22 LINE",
"304 762 LINE",
"502 1130 LINE",
"586 1130 LINE",
"586 1152 LINE",
"378 1152 LINE",
"378 1130 LINE",
"470 1130 LINE",
"216 660 LINE",
"216 1650 LINE",
"54 1650 LINE",
"54 1628 LINE",
"150 1628 LINE",
"150 22 LINE",
"54 22 LINE",
"54 0 LINE"
);
}
);
width = 680;
},
{
anchors = (
{
name = bottom;
position = "{500, 0}";
},
{
name = top;
position = "{500, 1650}";
}
);
layerId = "A4F0BE09-87B8-499B-8BA0-E8BD95093B86";
paths = (
{
closed = 1;
nodes = (
"520 0 LINE",
"520 22 LINE",
"448 22 LINE",
"448 648 LINE",
"438 642 LINE",
"592 22 LINE",
"520 22 LINE",
"520 0 LINE",
"1014 0 LINE",
"1014 22 LINE",
"924 22 LINE",
"692 936 LINE",
"840 1130 LINE",
"938 1130 LINE",
"938 1152 LINE",
"704 1152 LINE",
"704 1130 LINE",
"814 1130 LINE",
"448 668 LINE",
"448 1650 LINE",
"22 1650 LINE",
"22 1628 LINE",
"118 1628 LINE",
"118 22 LINE",
"22 22 LINE",
"22 0 LINE"
);
}
);
width = 992;
},
{
anchors = (
{
name = bottom;
position = "{360, 0}";
},
{
name = top;
position = "{360, 1650}";
}
);
layerId = "2224527B-843E-45D0-ACBE-AC9678FC6685";
paths = (
{
closed = 1;
nodes = (
"328 0 LINE",
"328 66 LINE",
"226 66 LINE",
"226 568 LINE",
"274 662 LINE",
"502 66 LINE",
"406 66 LINE",
"406 0 LINE",
"673 0 LINE",
"673 66 LINE",
"580 66 LINE",
"320 742 LINE",
"506 1086 LINE",
"590 1086 LINE",
"590 1152 LINE",
"350 1152 LINE",
"350 1086 LINE",
"434 1086 LINE",
"226 704 LINE",
"226 1650 LINE",
"47 1650 LINE",
"47 1584 LINE",
"160 1584 LINE",
"160 66 LINE",
"47 66 LINE",
"47 0 LINE"
);
}
);
width = 700;
},
{
anchors = (
{
name = bottom;
position = "{524, 0}";
},
{
name = top;
position = "{524, 1650}";
}
);
layerId = "42FCB8D3-5141-4304-9365-2E27830BD286";
paths = (
{
closed = 1;
nodes = (
"534 0 LINE",
"534 88 LINE",
"470 88 LINE",
"470 648 LINE",
"456 642 LINE",
"622 88 LINE",
"534 88 LINE",
"534 0 LINE",
"1072 0 LINE",
"1072 88 LINE",
"976 88 LINE",
"714 936 LINE",
"816 1064 LINE",
"952 1064 LINE",
"952 1152 LINE",
"586 1152 LINE",
"586 1064 LINE",
"704 1064 LINE",
"470 772 LINE",
"470 1650 LINE",
"25 1650 LINE",
"25 1562 LINE",
"140 1562 LINE",
"140 88 LINE",
"25 88 LINE",
"25 0 LINE"
);
}
);
width = 1052;
}
);
leftKerningGroup = h;
rightKerningGroup = k;
unicode = 006B;
},
{
glyphname = kgreenlandic;
lastChange = "2020-02-10 14:19:37 +0000";
layers = (
{
anchors = (
{
name = bottom;
position = "{342, 0}";
},
{
name = top;
position = "{342, 1151}";
}
);
layerId = "798A1B98-D718-4469-8D5D-1F04921BF637";
paths = (
{
closed = 1;
nodes = (
"308 0 LINE",
"308 22 LINE",
"204 22 LINE",
"204 565 LINE",
"198 562 LINE",
"484 22 LINE",
"386 22 LINE",
"386 0 LINE",
"640 0 LINE",
"640 22 LINE",
"556 22 LINE",
"234 614 LINE",
"234 576 LINE",
"542 1129 LINE",
"640 1129 LINE",
"640 1151 LINE",
"402 1151 LINE",
"402 1129 LINE",
"514 1129 LINE",
"204 578 LINE",
"204 1129 LINE",
"308 1129 LINE",
"308 1151 LINE",
"36 1151 LINE",
"36 1129 LINE",
"138 1129 LINE",
"138 22 LINE",
"36 22 LINE",
"36 0 LINE"
);
}
);
width = 682;
},
{
anchors = (
{
name = bottom;
position = "{508, 0}";
},
{
name = top;
position = "{500, 1151}";
}
);
layerId = "A4F0BE09-87B8-499B-8BA0-E8BD95093B86";
paths = (
{
closed = 1;
nodes = (
"500 0 LINE",
"500 23 LINE",
"432 23 LINE",
"432 573 LINE",
"422 573 LINE",
"574 23 LINE",
"508 23 LINE",
"508 0 LINE",
"988 0 LINE",
"988 23 LINE",
"904 23 LINE",
"640 870 LINE",
"630 831 LINE",
"836 1129 LINE",
"934 1129 LINE",
"934 1151 LINE",
"718 1151 LINE",
"718 1129 LINE",
"810 1129 LINE",
"432 589 LINE",
"432 1129 LINE",
"514 1129 LINE",
"514 1151 LINE",
"4 1151 LINE",
"4 1129 LINE",
"106 1129 LINE",
"106 23 LINE",
"4 23 LINE",
"4 0 LINE"
);
}
);
width = 999;
},
{
anchors = (
{
name = bottom;
position = "{352, 0}";
},
{
name = top;
position = "{352, 1151}";
}
);
layerId = "2224527B-843E-45D0-ACBE-AC9678FC6685";
paths = (
{
closed = 1;
nodes = (
"318 0 LINE",
"318 66 LINE",
"214 66 LINE",
"214 565 LINE",
"204 562 LINE",
"479 66 LINE",
"396 66 LINE",
"396 0 LINE",
"650 0 LINE",
"650 66 LINE",
"552 66 LINE",
"248 616 LINE",
"256 568 LINE",
"580 1085 LINE",
"650 1085 LINE",
"650 1151 LINE",
"412 1151 LINE",
"412 1085 LINE",
"507 1085 LINE",
"214 620 LINE",
"214 1085 LINE",
"318 1085 LINE",
"318 1151 LINE",
"46 1151 LINE",
"46 1085 LINE",
"148 1085 LINE",
"148 66 LINE",
"46 66 LINE",
"46 0 LINE"
);
}
);
width = 702;
},
{
anchors = (
{
name = bottom;
position = "{525, 0}";
},
{
name = top;
position = "{530, 1151}";
}
);
layerId = "42FCB8D3-5141-4304-9365-2E27830BD286";
paths = (
{
closed = 1;
nodes = (
"528 0 LINE",
"528 88 LINE",
"462 88 LINE",
"462 611 LINE",
"418 628 LINE",
"604 88 LINE",
"536 88 LINE",
"536 0 LINE",
"1030 0 LINE",
"1030 88 LINE",
"956 88 LINE",
"694 834 LINE",
"660 771 LINE",
"896 1063 LINE",
"990 1063 LINE",
"990 1151 LINE",
"694 1151 LINE",
"694 1063 LINE",
"794 1063 LINE",
"462 661 LINE",
"462 1063 LINE",
"576 1063 LINE",
"576 1151 LINE",
"34 1151 LINE",
"34 1063 LINE",
"136 1063 LINE",
"136 88 LINE",
"34 88 LINE",
"34 0 LINE"
);
}
);
width = 1059;
}
);
leftKerningGroup = n;
rightKerningGroup = x;
unicode = 0138;
},
{
glyphname = l;
lastChange = "2020-01-14 17:56:03 +0000";
layers = (
{
anchors = (
{
name = bottom;
position = "{178, 0}";
},
{
name = center;
position = "{178, 826}";
},
{
name = top;
position = "{178, 1650}";
},
{
name = topright;
position = "{308, 1650}";
}
);
layerId = "798A1B98-D718-4469-8D5D-1F04921BF637";
paths = (
{
closed = 1;
nodes = (
"284 0 LINE",
"284 22 LINE",
"206 22 LINE",
"206 1650 LINE",
"66 1650 LINE",
"66 1628 LINE",
"142 1628 LINE",
"142 22 LINE",
"66 22 LINE",
"66 0 LINE"
);
}
);
width = 348;
},
{
anchors = (
{
name = bottom;
position = "{288, 0}";
},
{
name = center;
position = "{288, 826}";
},
{
name = top;
position = "{288, 1650}";
},
{
name = topright;
position = "{552, 1650}";
}
);
layerId = "A4F0BE09-87B8-499B-8BA0-E8BD95093B86";
paths = (
{
closed = 1;
nodes = (
"550 0 LINE",
"550 22 LINE",
"452 22 LINE",
"452 1650 LINE",
"22 1650 LINE",
"22 1628 LINE",
"122 1628 LINE",
"122 22 LINE",
"22 22 LINE",
"22 0 LINE"
);
}
);
width = 572;
},
{
anchors = (
{
name = bottom;
position = "{188, 0}";
},
{
name = center;
position = "{188, 826}";
},
{
name = top;
position = "{188, 1650}";
},
{
name = topright;
position = "{318, 1650}";
}
);
layerId = "2224527B-843E-45D0-ACBE-AC9678FC6685";
paths = (
{
closed = 1;
nodes = (
"316 0 LINE",
"316 66 LINE",
"216 66 LINE",
"216 1650 LINE",
"54 1650 LINE",
"54 1584 LINE",
"152 1584 LINE",
"152 66 LINE",
"54 66 LINE",
"54 0 LINE"
);
}
);
width = 368;
},
{
anchors = (
{
name = bottom;
position = "{318, 0}";
},
{
name = center;
position = "{318, 826}";
},
{
name = top;
position = "{318, 1650}";
},
{
name = topright;
position = "{582, 1650}";
}
);
layerId = "42FCB8D3-5141-4304-9365-2E27830BD286";
paths = (
{
closed = 1;
nodes = (
"604 0 LINE",
"604 88 LINE",
"482 88 LINE",
"482 1650 LINE",
"30 1650 LINE",
"30 1562 LINE",
"152 1562 LINE",
"152 88 LINE",
"30 88 LINE",
"30 0 LINE"
);
}
);
width = 632;
}
);
leftKerningGroup = h;
rightKerningGroup = l;
unicode = 006C;
},
{
glyphname = lslash;
lastChange = "2020-01-14 17:56:03 +0000";
layers = (
{
components = (
{
name = l;
}
);
layerId = "798A1B98-D718-4469-8D5D-1F04921BF637";
paths = (
{
closed = 1;
nodes = (
"334 914 LINE",
"334 950 LINE",
"12 566 LINE",
"12 524 LINE"
);
}
);
width = 366;
},
{
components = (
{
name = l;
}
);
layerId = "A4F0BE09-87B8-499B-8BA0-E8BD95093B86";
paths = (
{
closed = 1;
nodes = (
"540 920 LINE",
"540 950 LINE",
"42 560 LINE",
"42 524 LINE"
);
}
);
width = 612;
},
{
components = (
{
name = l;
}
);
layerId = "2224527B-843E-45D0-ACBE-AC9678FC6685";
paths = (
{
closed = 1;
nodes = (
"342 870 LINE",
"342 950 LINE",
"20 566 LINE",
"20 480 LINE"
);
}
);
width = 386;
},
{
components = (
{
name = l;
}
);
layerId = "42FCB8D3-5141-4304-9365-2E27830BD286";
paths = (
{
closed = 1;
nodes = (
"570 854 LINE",
"570 950 LINE",
"40 560 LINE",
"40 458 LINE"
);
}
);
width = 672;
}
);
leftKerningGroup = lslash;
rightKerningGroup = lslash;
unicode = 0142;
},
{
glyphname = m;
lastChange = "2020-01-14 18:00:01 +0000";
layers = (
{
anchors = (
{
name = bottom;
position = "{508, 0}";
},
{
name = top;
position = "{508, 1152}";
}
);
layerId = "798A1B98-D718-4469-8D5D-1F04921BF637";
paths = (
{
closed = 1;
nodes = (
"296 0 LINE",
"296 22 LINE",
"204 22 LINE",
"204 832 LINE",
"206 932 OFFCURVE",
"254 1110 OFFCURVE",
"344 1110 CURVE SMOOTH",
"458 1110 OFFCURVE",
"470 970 OFFCURVE",
"470 748 CURVE SMOOTH",
"470 22 LINE",
"378 22 LINE",
"378 0 LINE",
"628 0 LINE",
"628 22 LINE",
"536 22 LINE",
"536 832 LINE",
"538 936 OFFCURVE",
"598 1110 OFFCURVE",
"688 1110 CURVE SMOOTH",
"800 1110 OFFCURVE",
"810 970 OFFCURVE",
"810 748 CURVE SMOOTH",
"810 22 LINE",
"716 22 LINE",
"716 0 LINE",
"956 0 LINE",
"956 22 LINE",
"876 22 LINE",
"876 888 LINE SMOOTH",
"876 1032 OFFCURVE",
"836 1156 OFFCURVE",
"716 1156 CURVE SMOOTH",
"608 1156 OFFCURVE",
"548 1014 OFFCURVE",
"534 932 CURVE",
"534 1028 OFFCURVE",
"492 1156 OFFCURVE",
"374 1156 CURVE SMOOTH",
"266 1156 OFFCURVE",
"212 1004 OFFCURVE",
"204 948 CURVE",
"204 1152 LINE",
"42 1152 LINE",
"42 1130 LINE",
"138 1130 LINE",
"138 22 LINE",
"42 22 LINE",
"42 0 LINE"
);
}
);
width = 998;
},
{
anchors = (
{
name = bottom;
position = "{728, 0}";
},
{
name = top;
position = "{728, 1152}";
}
);
layerId = "A4F0BE09-87B8-499B-8BA0-E8BD95093B86";
paths = (
{
closed = 1;
nodes = (
"492 0 LINE",
"492 22 LINE",
"432 22 LINE",
"432 866 LINE",
"434 942 OFFCURVE",
"470 1100 OFFCURVE",
"506 1100 CURVE SMOOTH",
"544 1100 OFFCURVE",
"548 970 OFFCURVE",
"548 748 CURVE SMOOTH",
"548 22 LINE",
"492 22 LINE",
"492 0 LINE",
"938 0 LINE",
"938 22 LINE",
"878 22 LINE",
"878 854 LINE",
"880 958 OFFCURVE",
"920 1100 OFFCURVE",
"958 1100 CURVE SMOOTH",
"994 1100 OFFCURVE",
"1000 970 OFFCURVE",
"1000 748 CURVE SMOOTH",
"1000 22 LINE",
"938 22 LINE",
"938 0 LINE",
"1410 0 LINE",
"1410 22 LINE",
"1330 22 LINE",
"1330 866 LINE SMOOTH",
"1330 1072 OFFCURVE",
"1212 1158 OFFCURVE",
"1080 1158 CURVE SMOOTH",
"922 1158 OFFCURVE",
"892 1080 OFFCURVE",
"866 932 CURVE",
"860 1080 OFFCURVE",
"762 1158 OFFCURVE",
"630 1158 CURVE SMOOTH",
"484 1158 OFFCURVE",
"454 1082 OFFCURVE",
"432 998 CURVE",
"432 1152 LINE",
"26 1152 LINE",
"26 1130 LINE",
"102 1130 LINE",
"102 22 LINE",
"26 22 LINE",
"26 0 LINE"
);
}
);
width = 1437;
},
{
anchors = (
{
name = bottom;
position = "{518, 0}";
},
{
name = top;
position = "{518, 1152}";
}
);
layerId = "2224527B-843E-45D0-ACBE-AC9678FC6685";
paths = (
{
closed = 1;
nodes = (
"316 0 LINE",
"316 66 LINE",
"214 66 LINE",
"214 788 LINE",
"216 918 OFFCURVE",
"258 1082 OFFCURVE",
"370 1082 CURVE SMOOTH",
"476 1082 OFFCURVE",
"482 948 OFFCURVE",
"482 748 CURVE SMOOTH",
"482 66 LINE",
"380 66 LINE",
"380 0 LINE",
"652 0 LINE",
"652 66 LINE",
"548 66 LINE",
"548 788 LINE",
"550 922 OFFCURVE",
"600 1082 OFFCURVE",
"712 1082 CURVE SMOOTH",
"816 1082 OFFCURVE",
"820 948 OFFCURVE",
"820 748 CURVE SMOOTH",
"820 66 LINE",
"716 66 LINE",
"716 0 LINE",
"988 0 LINE",
"988 66 LINE",
"886 66 LINE",
"886 888 LINE SMOOTH",
"886 1032 OFFCURVE",
"846 1156 OFFCURVE",
"726 1156 CURVE SMOOTH",
"618 1156 OFFCURVE",
"548 1072 OFFCURVE",
"536 1006 CURVE",
"536 1032 OFFCURVE",
"502 1156 OFFCURVE",
"384 1156 CURVE SMOOTH",
"276 1156 OFFCURVE",
"222 1070 OFFCURVE",
"214 1024 CURVE",
"214 1152 LINE",
"43 1152 LINE",
"43 1086 LINE",
"148 1086 LINE",
"148 66 LINE",
"43 66 LINE",
"43 0 LINE"
);
}
);
width = 1018;
},
{
anchors = (
{
name = bottom;
position = "{762, 0}";
},
{
name = top;
position = "{762, 1152}";
}
);
layerId = "42FCB8D3-5141-4304-9365-2E27830BD286";
paths = (
{
closed = 1;
nodes = (
"530 0 LINE",
"530 88 LINE",
"466 88 LINE",
"466 786 LINE",
"468 930 OFFCURVE",
"486 990 OFFCURVE",
"538 990 CURVE SMOOTH",
"588 990 OFFCURVE",
"594 930 OFFCURVE",
"594 768 CURVE SMOOTH",
"594 88 LINE",
"530 88 LINE",
"530 0 LINE",
"988 0 LINE",
"988 88 LINE",
"920 88 LINE",
"920 808 LINE",
"924 930 OFFCURVE",
"942 990 OFFCURVE",
"994 990 CURVE SMOOTH",
"1044 990 OFFCURVE",
"1054 930 OFFCURVE",
"1054 768 CURVE SMOOTH",
"1054 88 LINE",
"988 88 LINE",
"988 0 LINE",
"1488 0 LINE",
"1488 88 LINE",
"1384 88 LINE",
"1384 866 LINE SMOOTH",
"1384 1050 OFFCURVE",
"1270 1158 OFFCURVE",
"1136 1158 CURVE SMOOTH",
"1000 1158 OFFCURVE",
"898 1066 OFFCURVE",
"884 1012 CURVE",
"868 1046 OFFCURVE",
"808 1158 OFFCURVE",
"674 1158 CURVE SMOOTH",
"530 1158 OFFCURVE",
"457 1060 OFFCURVE",
"456 1034 CURVE",
"456 1152 LINE",
"28 1152 LINE",
"28 1064 LINE",
"136 1064 LINE",
"136 88 LINE",
"28 88 LINE",
"28 0 LINE"
);
}
);
width = 1497;
}
);
leftKerningGroup = n;
rightKerningGroup = n;
unicode = 006D;
},
{
glyphname = n;
lastChange = "2020-02-11 15:41:29 +0000";
layers = (
{
anchors = (
{
name = bottom;
position = "{364, 0}";
},
{
name = top;
position = "{364, 1152}";
}
);
layerId = "798A1B98-D718-4469-8D5D-1F04921BF637";
paths = (
{
closed = 1;
nodes = (
"310 0 LINE",
"310 22 LINE",
"212 22 LINE",
"212 900 LINE",
"212 960 OFFCURVE",
"284 1130 OFFCURVE",
"366 1130 CURVE SMOOTH",
"454 1130 OFFCURVE",
"502 1036 OFFCURVE",
"502 814 CURVE SMOOTH",
"502 22 LINE",
"406 22 LINE",
"406 0 LINE",
"660 0 LINE",
"660 22 LINE",
"568 22 LINE",
"568 844 LINE SMOOTH",
"568 1118 OFFCURVE",
"464 1158 OFFCURVE",
"392 1158 CURVE SMOOTH",
"304 1158 OFFCURVE",
"238 1058 OFFCURVE",
"212 982 CURVE",
"212 1152 LINE",
"50 1152 LINE",
"50 1130 LINE",
"146 1130 LINE",
"146 22 LINE",
"50 22 LINE",
"50 0 LINE"
);
}
);
width = 702;
},
{
anchors = (
{
name = bottom;
position = "{530, 0}";
},
{
name = top;
position = "{530, 1152}";
}
);
layerId = "A4F0BE09-87B8-499B-8BA0-E8BD95093B86";
paths = (
{
closed = 1;
nodes = (
"524 0 LINE",
"524 22 LINE",
"460 22 LINE",
"460 898 LINE",
"466 994 OFFCURVE",
"506 1110 OFFCURVE",
"544 1110 CURVE SMOOTH",
"584 1110 OFFCURVE",
"586 1000 OFFCURVE",
"586 782 CURVE SMOOTH",
"586 22 LINE",
"524 22 LINE",
"524 0 LINE",
"1008 0 LINE",
"1008 22 LINE",
"916 22 LINE",
"916 790 LINE SMOOTH",
"916 1090 OFFCURVE",
"804 1158 OFFCURVE",
"648 1158 CURVE SMOOTH",
"508 1158 OFFCURVE",
"480 1070 OFFCURVE",
"460 1000 CURVE",
"460 1152 LINE",
"34 1152 LINE",
"34 1130 LINE",
"130 1130 LINE",
"130 22 LINE",
"34 22 LINE",
"34 0 LINE"
);
}
);
width = 1041;
},
{
anchors = (
{
name = bottom;
position = "{380, 0}";
},
{
name = top;
position = "{380, 1152}";
}
);
layerId = "2224527B-843E-45D0-ACBE-AC9678FC6685";
paths = (
{
closed = 1;
nodes = (
"336 0 LINE",
"336 66 LINE",
"228 66 LINE",
"228 834 LINE",
"228 936 OFFCURVE",
"294 1088 OFFCURVE",
"386 1088 CURVE SMOOTH",
"474 1088 OFFCURVE",
"516 1014 OFFCURVE",
"516 814 CURVE SMOOTH",
"516 66 LINE",
"408 66 LINE",
"408 0 LINE",
"692 0 LINE",
"692 66 LINE",
"582 66 LINE",
"582 844 LINE SMOOTH",
"582 1118 OFFCURVE",
"478 1158 OFFCURVE",
"406 1158 CURVE SMOOTH",
"318 1158 OFFCURVE",
"242 1094 OFFCURVE",
"228 1026 CURVE",
"228 1152 LINE",
"52 1152 LINE",
"52 1086 LINE",
"162 1086 LINE",
"162 66 LINE",
"52 66 LINE",
"52 0 LINE"
);
}
);
width = 722;
},
{
anchors = (
{
name = bottom;
position = "{560, 0}";
},
{
name = top;
position = "{560, 1152}";
}
);
layerId = "42FCB8D3-5141-4304-9365-2E27830BD286";
paths = (
{
closed = 1;
nodes = (
"556 0 LINE",
"556 88 LINE",
"490 88 LINE",
"490 800 LINE",
"494 926 OFFCURVE",
"524 988 OFFCURVE",
"570 988 CURVE SMOOTH",
"612 988 OFFCURVE",
"626 920 OFFCURVE",
"626 782 CURVE SMOOTH",
"626 88 LINE",
"556 88 LINE",
"556 0 LINE",
"1072 0 LINE",
"1072 88 LINE",
"956 88 LINE",
"956 790 LINE SMOOTH",
"956 1090 OFFCURVE",
"844 1158 OFFCURVE",
"688 1158 CURVE SMOOTH",
"550 1158 OFFCURVE",
"484 1064 OFFCURVE",
"480 1046 CURVE",
"480 1152 LINE",
"40 1152 LINE",
"40 1064 LINE",
"160 1064 LINE",
"160 88 LINE",
"40 88 LINE",
"40 0 LINE"
);
}
);
width = 1101;
}
);
leftKerningGroup = n;
rightKerningGroup = n;
unicode = 006E;
},
{
glyphname = eng;
lastChange = "2020-01-14 18:36:08 +0000";
layers = (
{
layerId = "798A1B98-D718-4469-8D5D-1F04921BF637";
paths = (
{
closed = 1;
nodes = (
"506 -472 OFFCURVE",
"586 -340 OFFCURVE",
"586 -44 CURVE SMOOTH",
"586 822 LINE SMOOTH",
"586 1114 OFFCURVE",
"492 1158 OFFCURVE",
"404 1158 CURVE SMOOTH",
"318 1158 OFFCURVE",
"250 1038 OFFCURVE",
"232 982 CURVE",
"232 1152 LINE",
"70 1152 LINE",
"70 1130 LINE",
"166 1130 LINE",
"166 22 LINE",
"70 22 LINE",
"70 0 LINE",
"330 0 LINE",
"330 22 LINE",
"232 22 LINE",
"232 900 LINE SMOOTH",
"232 960 OFFCURVE",
"306 1130 OFFCURVE",
"388 1130 CURVE SMOOTH",
"486 1130 OFFCURVE",
"520 992 OFFCURVE",
"520 792 CURVE SMOOTH",
"520 -132 LINE SMOOTH",
"520 -328 OFFCURVE",
"472 -448 OFFCURVE",
"386 -448 CURVE SMOOTH",
"360 -448 OFFCURVE",
"298 -444 OFFCURVE",
"298 -342 CURVE SMOOTH",
"298 -298 OFFCURVE",
"310 -264 OFFCURVE",
"310 -230 CURVE SMOOTH",
"310 -196 OFFCURVE",
"306 -170 OFFCURVE",
"276 -170 CURVE SMOOTH",
"248 -170 OFFCURVE",
"244 -196 OFFCURVE",
"244 -240 CURVE SMOOTH",
"244 -374 OFFCURVE",
"292 -472 OFFCURVE",
"386 -472 CURVE SMOOTH"
);
}
);
width = 674;
},
{
layerId = "A4F0BE09-87B8-499B-8BA0-E8BD95093B86";
paths = (
{
closed = 1;
nodes = (
"724 -472 OFFCURVE",
"922 -368 OFFCURVE",
"922 -84 CURVE SMOOTH",
"922 778 LINE SMOOTH",
"922 1076 OFFCURVE",
"798 1158 OFFCURVE",
"642 1158 CURVE SMOOTH",
"512 1158 OFFCURVE",
"478 1066 OFFCURVE",
"464 1000 CURVE",
"464 1152 LINE",
"60 1152 LINE",
"60 1130 LINE",
"134 1130 LINE",
"134 22 LINE",
"60 22 LINE",
"60 0 LINE",
"540 0 LINE",
"540 22 LINE",
"464 22 LINE",
"464 900 LINE SMOOTH",
"464 970 OFFCURVE",
"508 1109 OFFCURVE",
"550 1109 CURVE SMOOTH",
"592 1109 OFFCURVE",
"592 986 OFFCURVE",
"592 764 CURVE SMOOTH",
"592 -70 LINE SMOOTH",
"592 -218 OFFCURVE",
"588 -452 OFFCURVE",
"514 -452 CURVE SMOOTH",
"470 -452 OFFCURVE",
"452 -430 OFFCURVE",
"452 -404 CURVE SMOOTH",
"452 -368 OFFCURVE",
"524 -278 OFFCURVE",
"524 -202 CURVE SMOOTH",
"524 -124 OFFCURVE",
"486 -66 OFFCURVE",
"426 -66 CURVE SMOOTH",
"360 -66 OFFCURVE",
"320 -124 OFFCURVE",
"320 -218 CURVE SMOOTH",
"320 -366 OFFCURVE",
"406 -472 OFFCURVE",
"520 -472 CURVE SMOOTH"
);
}
);
width = 999;
},
{
layerId = "2224527B-843E-45D0-ACBE-AC9678FC6685";
paths = (
{
closed = 1;
nodes = (
"514 -472 OFFCURVE",
"596 -362 OFFCURVE",
"596 -66 CURVE SMOOTH",
"596 832 LINE SMOOTH",
"596 1124 OFFCURVE",
"502 1158 OFFCURVE",
"414 1158 CURVE SMOOTH",
"328 1158 OFFCURVE",
"260 1074 OFFCURVE",
"242 1026 CURVE",
"242 1152 LINE",
"58 1152 LINE",
"58 1086 LINE",
"176 1086 LINE",
"176 66 LINE",
"58 66 LINE",
"58 0 LINE",
"362 0 LINE",
"362 66 LINE",
"242 66 LINE",
"242 836 LINE SMOOTH",
"242 896 OFFCURVE",
"306 1086 OFFCURVE",
"412 1086 CURVE SMOOTH",
"508 1086 OFFCURVE",
"530 958 OFFCURVE",
"530 802 CURVE SMOOTH",
"530 -132 LINE SMOOTH",
"530 -284 OFFCURVE",
"482 -404 OFFCURVE",
"396 -404 CURVE SMOOTH",
"370 -404 OFFCURVE",
"326 -392 OFFCURVE",
"326 -310 CURVE SMOOTH",
"326 -266 OFFCURVE",
"338 -264 OFFCURVE",
"338 -230 CURVE SMOOTH",
"338 -196 OFFCURVE",
"326 -170 OFFCURVE",
"298 -170 CURVE SMOOTH",
"270 -170 OFFCURVE",
"254 -196 OFFCURVE",
"254 -240 CURVE SMOOTH",
"254 -374 OFFCURVE",
"284 -472 OFFCURVE",
"396 -472 CURVE SMOOTH"
);
}
);
width = 694;
},
{
layerId = "42FCB8D3-5141-4304-9365-2E27830BD286";
paths = (
{
closed = 1;
nodes = (
"754 -472 OFFCURVE",
"952 -368 OFFCURVE",
"952 -84 CURVE SMOOTH",
"952 778 LINE SMOOTH",
"952 1046 OFFCURVE",
"868 1158 OFFCURVE",
"672 1158 CURVE SMOOTH",
"566 1158 OFFCURVE",
"498 1078 OFFCURVE",
"484 1056 CURVE",
"484 1152 LINE",
"56 1152 LINE",
"56 1064 LINE",
"164 1064 LINE",
"164 88 LINE",
"56 88 LINE",
"56 0 LINE",
"570 0 LINE",
"570 88 LINE",
"494 88 LINE",
"494 802 LINE SMOOTH",
"494 894 OFFCURVE",
"500 976 OFFCURVE",
"552 976 CURVE SMOOTH",
"602 976 OFFCURVE",
"622 919 OFFCURVE",
"622 754 CURVE SMOOTH",
"622 -70 LINE SMOOTH",
"622 -218 OFFCURVE",
"622 -386 OFFCURVE",
"554 -386 CURVE SMOOTH",
"510 -386 OFFCURVE",
"494 -364 OFFCURVE",
"494 -338 CURVE SMOOTH",
"494 -302 OFFCURVE",
"554 -278 OFFCURVE",
"554 -202 CURVE SMOOTH",
"554 -124 OFFCURVE",
"516 -66 OFFCURVE",
"456 -66 CURVE SMOOTH",
"390 -66 OFFCURVE",
"350 -124 OFFCURVE",
"350 -218 CURVE SMOOTH",
"350 -366 OFFCURVE",
"436 -472 OFFCURVE",
"550 -472 CURVE SMOOTH"
);
}
);
width = 1059;
}
);
leftKerningGroup = n;
rightKerningGroup = j;
unicode = 014B;
},
{
glyphname = o;
lastChange = "2020-02-10 14:48:42 +0000";
layers = (
{
anchors = (
{
name = bottom;
position = "{308, 0}";
},
{
name = center;
position = "{308, 576}";
},
{
name = ogonek;
position = "{402, 2}";
},
{
name = top;
position = "{308, 1152}";
},
{
name = topright;
position = "{459, 1152}";
}
);
layerId = "798A1B98-D718-4469-8D5D-1F04921BF637";
paths = (
{
closed = 1;
nodes = (
"450 -24 OFFCURVE",
"546 208 OFFCURVE",
"546 580 CURVE SMOOTH",
"546 988 OFFCURVE",
"444 1158 OFFCURVE",
"306 1158 CURVE SMOOTH",
"166 1158 OFFCURVE",
"66 988 OFFCURVE",
"66 580 CURVE SMOOTH",
"66 208 OFFCURVE",
"160 -24 OFFCURVE",
"306 -24 CURVE"
);
},
{
closed = 1;
nodes = (
"208 -4 OFFCURVE",
"136 196 OFFCURVE",
"136 580 CURVE SMOOTH",
"136 956 OFFCURVE",
"208 1138 OFFCURVE",
"306 1138 CURVE SMOOTH",
"402 1138 OFFCURVE",
"474 956 OFFCURVE",
"474 580 CURVE SMOOTH",
"474 196 OFFCURVE",
"402 -4 OFFCURVE",
"306 -4 CURVE SMOOTH"
);
}
);
width = 610;
},
{
anchors = (
{
name = bottom;
position = "{444, 0}";
},
{
name = center;
position = "{444, 576}";
},
{
name = ogonek;
position = "{550, 4}";
},
{
name = top;
position = "{444, 1152}";
},
{
name = topright;
position = "{684, 1152}";
}
);
layerId = "A4F0BE09-87B8-499B-8BA0-E8BD95093B86";
paths = (
{
closed = 1;
nodes = (
"610 -24 OFFCURVE",
"852 164 OFFCURVE",
"852 580 CURVE SMOOTH",
"852 1032 OFFCURVE",
"598 1158 OFFCURVE",
"444 1158 CURVE SMOOTH",
"290 1158 OFFCURVE",
"40 1032 OFFCURVE",
"40 580 CURVE SMOOTH",
"40 164 OFFCURVE",
"280 -24 OFFCURVE",
"444 -24 CURVE"
);
},
{
closed = 1;
nodes = (
"386 -4 OFFCURVE",
"378 218 OFFCURVE",
"378 580 CURVE SMOOTH",
"378 934 OFFCURVE",
"386 1138 OFFCURVE",
"444 1138 CURVE SMOOTH",
"506 1138 OFFCURVE",
"514 934 OFFCURVE",
"514 580 CURVE SMOOTH",
"514 218 OFFCURVE",
"506 -4 OFFCURVE",
"444 -4 CURVE SMOOTH"
);
}
);
width = 891;
},
{
anchors = (
{
name = bottom;
position = "{318, 0}";
},
{
name = center;
position = "{318, 576}";
},
{
name = ogonek;
position = "{412, 2}";
},
{
name = top;
position = "{318, 1152}";
},
{
name = topright;
position = "{438, 1152}";
}
);
layerId = "2224527B-843E-45D0-ACBE-AC9678FC6685";
paths = (
{
closed = 1;
nodes = (
"464 -24 OFFCURVE",
"556 208 OFFCURVE",
"556 580 CURVE SMOOTH",
"556 988 OFFCURVE",
"454 1158 OFFCURVE",
"316 1158 CURVE SMOOTH",
"176 1158 OFFCURVE",
"76 988 OFFCURVE",
"76 580 CURVE SMOOTH",
"76 208 OFFCURVE",
"166 -24 OFFCURVE",
"316 -24 CURVE"
);
},
{
closed = 1;
nodes = (
"220 40 OFFCURVE",
"146 218 OFFCURVE",
"146 580 CURVE SMOOTH",
"146 934 OFFCURVE",
"220 1094 OFFCURVE",
"316 1094 CURVE SMOOTH",
"410 1094 OFFCURVE",
"484 934 OFFCURVE",
"484 580 CURVE SMOOTH",
"484 218 OFFCURVE",
"410 40 OFFCURVE",
"316 40 CURVE SMOOTH"
);
}
);
width = 630;
},
{
anchors = (
{
name = bottom;
position = "{474, -288}";
},
{
name = center;
position = "{474, 866}";
},
{
name = ogonek;
position = "{580, 4}";
},
{
name = top;
position = "{474, 1152}";
},
{
name = topright;
position = "{704, 1151}";
}
);
layerId = "42FCB8D3-5141-4304-9365-2E27830BD286";
paths = (
{
closed = 1;
nodes = (
"662 -24 OFFCURVE",
"890 164 OFFCURVE",
"890 580 CURVE SMOOTH",
"890 1032 OFFCURVE",
"650 1158 OFFCURVE",
"474 1158 CURVE SMOOTH",
"298 1158 OFFCURVE",
"62 1032 OFFCURVE",
"62 580 CURVE SMOOTH",
"62 164 OFFCURVE",
"288 -24 OFFCURVE",
"474 -24 CURVE"
);
},
{
closed = 1;
nodes = (
"422 80 OFFCURVE",
"394 220 OFFCURVE",
"394 580 CURVE SMOOTH",
"394 940 OFFCURVE",
"422 1056 OFFCURVE",
"474 1056 CURVE SMOOTH",
"530 1056 OFFCURVE",
"558 940 OFFCURVE",
"558 580 CURVE SMOOTH",
"558 220 OFFCURVE",
"530 80 OFFCURVE",
"474 80 CURVE SMOOTH"
);
}
);
width = 951;
}
);
leftKerningGroup = o;
rightKerningGroup = o;
unicode = 006F;
},
{
glyphname = oslash;
lastChange = "2020-01-14 18:21:13 +0000";
layers = (
{
components = (
{
name = o;
}
);
layerId = "798A1B98-D718-4469-8D5D-1F04921BF637";
paths = (
{
closed = 1;
nodes = (
"146 -114 LINE",
"546 1232 LINE",
"510 1232 LINE",
"112 -114 LINE"
);
}
);
width = 610;
},
{
components = (
{
name = o;
}
);
layerId = "A4F0BE09-87B8-499B-8BA0-E8BD95093B86";
paths = (
{
closed = 1;
nodes = (
"174 -114 LINE",
"704 1232 LINE",
"676 1232 LINE",
"146 -114 LINE"
);
}
);
width = 891;
},
{
components = (
{
name = o;
transform = "{1, 0, 0, 1, 10, 0}";
}
);
layerId = "2224527B-843E-45D0-ACBE-AC9678FC6685";
paths = (
{
closed = 1;
nodes = (
"133 -114 LINE",
"577 1232 LINE",
"518 1232 LINE",
"76 -114 LINE"
);
}
);
width = 651;
},
{
components = (
{
name = o;
}
);
layerId = "42FCB8D3-5141-4304-9365-2E27830BD286";
paths = (
{
closed = 1;
nodes = (
"214 -114 LINE",
"824 1232 LINE",
"726 1232 LINE",
"116 -114 LINE"
);
}
);
width = 951;
}
);
leftKerningGroup = o;
leftMetricsKey = o;
rightKerningGroup = o;
rightMetricsKey = o;
unicode = 00F8;
},
